<svg width="90" height="89" viewBox="0 0 90 89" fill="none" xmlns="http://www.w3.org/2000/svg">
<path d="M81.9178 40.1934C81.6287 39.6375 81.4764 39.0194 81.4959 38.3935V37.9271C81.4959 17.2894 65.0739 0.5 44.9059 0.5C41.984 0.5 39.1442 0.857632 36.4176 1.53407C34.0074 0.865444 31.4762 0.5 28.859 0.5C13.23 0.5 0.5 13.1575 0.5 28.7218C0.5 37.2312 4.3008 44.8544 10.3008 50.0282C11.832 54.6076 14.2227 58.8758 17.3789 62.5693C19.8906 65.477 21.2695 69.0378 21.2695 72.5985V82.3907C21.2695 85.5239 23.8789 88.074 27.0976 88.074H54.5976C57.8164 88.074 60.4257 85.5278 60.4257 82.3907V78.5306H74.1367C77.3086 78.5306 79.875 75.9921 79.875 72.8861V60.7461C79.875 59.7121 80.5664 58.7947 81.6055 58.4954L86.0274 57.1621C87.0079 56.8627 87.8086 56.1475 88.2188 55.2028C88.629 54.2659 88.6094 53.2008 88.1407 52.2562L81.9219 40.1938L81.9178 40.1934ZM2.46878 28.7291C2.46878 14.2406 14.3088 2.45883 28.8668 2.45883C43.4248 2.45883 55.2648 14.2416 55.2648 28.7291C55.2648 43.2167 43.4248 54.9994 28.8668 54.9994C14.3078 55.0033 2.46878 43.2087 2.46878 28.7291ZM86.4298 54.4441C86.2384 54.864 85.8907 55.1711 85.4493 55.311L81.0391 56.6327C79.168 57.2002 77.918 58.8524 77.918 60.7532V72.8932C77.918 74.9225 76.2266 76.5862 74.1368 76.5862L59.5858 76.6056H59.3163H54.4374C47.2382 76.6056 41.3784 70.934 41.3784 63.9561C41.3784 63.4196 40.9487 62.9804 40.3979 62.9804C39.8471 62.9804 39.4174 63.4196 39.4174 63.9561C39.4174 72.0068 46.1674 78.5571 54.4374 78.5571H58.4765V82.4095C58.4765 84.4698 56.7382 86.1413 54.6054 86.1413H27.1054C24.9648 86.1413 23.2343 84.4698 23.2343 82.4095V72.6173C23.2343 68.5977 21.6835 64.5783 18.8827 61.3202C16.5429 58.5952 14.6639 55.5281 13.2538 52.2744C17.7343 55.2288 23.1054 56.9509 28.8748 56.9509C44.5038 56.9509 57.2338 44.2934 57.2338 28.729C57.2338 17.1255 50.1635 7.13502 40.0858 2.80407C41.6639 2.58638 43.285 2.45421 44.9256 2.45421C64.0276 2.45421 79.5546 18.3768 79.5546 37.9298V38.3574C79.5351 39.302 79.7656 40.2466 80.1953 41.0941L86.4062 53.1375C86.6171 53.5574 86.6249 54.0122 86.4452 54.4398L86.4298 54.4441Z" fill="#B1A489" stroke="#B1A489"/>
<path d="M50.3797 28.7292C50.3797 16.9276 40.7313 7.32129 28.8677 7.32129C17.0087 7.32518 7.34766 16.9269 7.34766 28.7292C7.34766 40.5315 16.9961 50.1371 28.8597 50.1371C40.7187 50.1371 50.3717 40.5354 50.3717 28.7292H50.3797ZM9.30966 28.7292C9.30966 18.0004 18.0792 9.26484 28.8687 9.26484C39.6582 9.26484 48.4277 17.9919 48.4277 28.7292C48.4277 39.4665 39.6582 48.1936 28.8687 48.1936C18.0792 48.1936 9.30966 39.4665 9.30966 28.7292Z" fill="#B1A489" stroke="#B1A489"/>
<path d="M24.7069 21.8531C24.7069 18.6499 23.0468 16.1426 20.9375 16.1426C18.8281 16.1426 17.1562 18.6499 17.1562 21.8531C17.1562 25.0563 18.8165 27.5559 20.9375 27.5559C23.0586 27.5559 24.7069 25.0563 24.7069 21.8531ZM19.1054 21.8531C19.1054 19.6917 20.0741 18.0902 20.9335 18.0902C21.7928 18.0902 22.7537 19.6918 22.7537 21.8531C22.7537 24.0144 21.7928 25.6044 20.9335 25.6044C20.0741 25.6044 19.1054 24.0028 19.1054 21.8531Z" fill="#B1A489" stroke="#B1A489"/>
<path d="M36.7968 27.5559C38.9179 27.5559 40.578 25.0563 40.578 21.8531C40.578 18.6499 38.9178 16.1426 36.7968 16.1426C34.6757 16.1426 33.0273 18.6499 33.0273 21.8531C33.0273 25.0563 34.6875 27.5559 36.7968 27.5559ZM36.7968 18.0902C37.6562 18.0902 38.6249 19.6918 38.6249 21.8531C38.6249 24.0144 37.6562 25.6044 36.7968 25.6044C35.9375 25.6044 34.9765 24.0028 34.9765 21.8531C34.9765 19.7034 35.9375 18.0902 36.7968 18.0902Z" fill="#B1A489" stroke="#B1A489"/>
<path d="M37.3086 36.9005C37.3086 36.3641 36.8672 35.9248 36.3282 35.9248C35.7891 35.9248 35.3477 36.3641 35.3477 36.9005C35.3477 38.195 32.5665 39.6489 28.8594 39.6489C25.1485 39.6489 22.3711 38.195 22.3711 36.9005C22.3711 36.3641 21.9414 35.9248 21.3906 35.9248C20.8398 35.9248 20.4102 36.3641 20.4102 36.9005C20.4102 39.5789 24.0508 41.5886 28.8594 41.5886C33.668 41.5886 37.3086 39.5789 37.3086 36.9005Z" fill="#B1A489" stroke="#B1A489"/>
</svg>
