<svg width="90" height="89" viewBox="0 0 90 89" fill="none" xmlns="http://www.w3.org/2000/svg">
<path d="M81.9178 40.1934C81.6287 39.6375 81.4764 39.0194 81.4959 38.3935V37.9271C81.4959 17.2894 65.0739 0.5 44.9059 0.5C41.984 0.5 39.1442 0.857632 36.4176 1.53407C34.0074 0.865444 31.4762 0.5 28.859 0.5C13.23 0.5 0.5 13.1575 0.5 28.7218C0.5 37.2312 4.3008 44.8544 10.3008 50.0282C11.832 54.6076 14.2227 58.8758 17.3789 62.5693C19.8906 65.477 21.2695 69.0378 21.2695 72.5985V82.3907C21.2695 85.5239 23.8789 88.074 27.0976 88.074H54.5976C57.8164 88.074 60.4257 85.5278 60.4257 82.3907V78.5306H74.1367C77.3086 78.5306 79.875 75.9921 79.875 72.8861V60.7461C79.875 59.7121 80.5664 58.7947 81.6055 58.4954L86.0274 57.1621C87.0079 56.8627 87.8086 56.1475 88.2188 55.2028C88.629 54.2659 88.6094 53.2008 88.1407 52.2562L81.9219 40.1938L81.9178 40.1934ZM2.46878 28.7291C2.46878 14.2406 14.3088 2.45883 28.8668 2.45883C43.4248 2.45883 55.2648 14.2416 55.2648 28.7291C55.2648 43.2167 43.4248 54.9994 28.8668 54.9994C14.3078 55.0033 2.46878 43.2087 2.46878 28.7291ZM86.4298 54.4441C86.2384 54.864 85.8907 55.1711 85.4493 55.311L81.0391 56.6327C79.168 57.2002 77.918 58.8524 77.918 60.7532V72.8932C77.918 74.9225 76.2266 76.5862 74.1368 76.5862L59.5858 76.6056H59.3163H54.4374C47.2382 76.6056 41.3784 70.934 41.3784 63.9561C41.3784 63.4196 40.9487 62.9804 40.3979 62.9804C39.8471 62.9804 39.4174 63.4196 39.4174 63.9561C39.4174 72.0068 46.1674 78.5571 54.4374 78.5571H58.4765V82.4095C58.4765 84.4698 56.7382 86.1413 54.6054 86.1413H27.1054C24.9648 86.1413 23.2343 84.4698 23.2343 82.4095V72.6173C23.2343 68.5977 21.6835 64.5783 18.8827 61.3202C16.5429 58.5952 14.6639 55.5281 13.2538 52.2744C17.7343 55.2288 23.1054 56.9509 28.8748 56.9509C44.5038 56.9509 57.2338 44.2934 57.2338 28.729C57.2338 17.1255 50.1635 7.13502 40.0858 2.80407C41.6639 2.58638 43.285 2.45421 44.9256 2.45421C64.0276 2.45421 79.5546 18.3768 79.5546 37.9298V38.3574C79.5351 39.302 79.7656 40.2466 80.1953 41.0941L86.4062 53.1375C86.6171 53.5574 86.6249 54.0122 86.4452 54.4398L86.4298 54.4441Z" fill="#B1A489" stroke="#B1A489"/>
<path d="M45.9296 32.065V24.6401C46.2578 24.3136 46.4687 23.8549 46.4687 23.3456V16.5583C46.4687 15.5243 45.6289 14.6963 44.5976 14.6963H37.2695C36.2304 14.6963 35.3984 15.5204 35.3984 16.5583V23.3456C35.3984 23.8549 35.6093 24.3097 35.9375 24.6401V31.5363C35.9375 35.2876 32.7578 38.343 28.8672 38.343C24.9766 38.343 21.7969 35.2876 21.7969 31.5363V24.6401C22.125 24.3136 22.3359 23.8549 22.3359 23.3456V16.5583C22.3359 15.5243 21.5078 14.6963 20.4648 14.6963H13.1367C12.1055 14.6963 11.2656 15.5204 11.2656 16.5583V23.3456C11.2656 23.8549 11.4766 24.3097 11.8047 24.6401V32.065C11.8047 41.1691 19.4649 48.5866 28.8637 48.5866C38.2621 48.5866 45.9227 41.1735 45.9227 32.065H45.9296ZM37.3515 16.6519H44.5117V23.2604H37.3515V16.6519ZM13.2225 16.6519H20.3827V23.2604H13.2225V16.6519ZM13.7616 32.065V25.2077H19.8397V31.548C19.8397 36.3761 23.8905 40.3062 28.8709 40.3062C33.8513 40.3062 37.9021 36.3761 37.9021 31.548V25.2077H43.9802V32.065C43.9802 40.104 37.199 46.6421 28.8712 46.6421C20.5434 46.6421 13.7616 40.1036 13.7616 32.065Z" fill="#B1A489" stroke="#B1A489"/>
</svg>
