<svg width="86" height="95" viewBox="0 0 86 95" fill="none" xmlns="http://www.w3.org/2000/svg">
<path fill-rule="evenodd" clip-rule="evenodd" d="M20.7583 8.90656H17.7928V41.5584C17.7928 42.3785 17.1292 43.0428 16.31 43.0428C15.4908 43.0428 14.8272 42.3785 14.8272 41.5584V7.42174C14.8272 6.60164 15.4908 5.93739 16.31 5.93739H20.7583V4.45304C20.7583 3.63294 21.4218 2.9687 22.2411 2.9687H26.6894V1.48435C26.6894 0.664247 27.3529 0 28.1722 0H63.7586C64.5779 0 65.2414 0.664247 65.2414 1.48435V50.4674C65.2414 51.2875 64.5779 51.9517 63.7586 51.9517C62.9394 51.9517 62.2759 51.2875 62.2759 50.4674V11.7708C57.7311 11.1177 54.1355 7.51807 53.4831 2.9686H38.4475C37.7951 7.51816 34.1994 11.1177 29.6547 11.7708V41.5575C29.6547 42.3776 28.9912 43.0418 28.172 43.0418C27.3527 43.0418 26.6892 42.3776 26.6892 41.5575V5.93692H23.7237V41.5575C23.7237 42.3776 23.0601 43.0418 22.2409 43.0418C21.4217 43.0418 20.7581 42.3776 20.7581 41.5575L20.7583 8.90656ZM35.438 2.96917H29.6551V8.75818C32.5576 8.16815 34.8486 5.87479 35.438 2.96917ZM62.2759 8.75818V2.96917H56.493C57.0824 5.87479 59.3733 8.16814 62.2759 8.75818ZM62.2759 57.8903C62.2759 57.0146 61.4974 56.3132 60.415 55.6564C58.1612 54.2908 54.5136 53.441 50.4138 53.441C47.2073 53.441 44.2826 53.9679 42.0658 54.8475C41.3059 55.1517 40.4422 54.7807 40.1382 54.0199C39.838 53.2592 40.2087 52.3946 40.9686 52.0903C43.4781 51.0921 46.7847 50.4724 50.4138 50.4724C55.1513 50.4724 59.3475 51.5374 61.9495 53.1183C64.1069 54.4245 65.2375 56.1427 65.2413 57.8867V57.8905V87.5774C65.2413 89.3215 64.1107 91.0396 61.9495 92.3496C59.3472 93.9304 55.151 94.9955 50.4138 94.9955C46.7847 94.9955 43.4781 94.3757 40.9686 93.3775C40.2087 93.0733 39.838 92.2086 40.1382 91.4479C40.4422 90.6872 41.3059 90.3161 42.0658 90.6204C44.2825 91.4999 47.2073 92.0269 50.4138 92.0269C54.5137 92.0269 58.1613 91.1771 60.415 89.8115C61.4974 89.1547 62.2759 88.4533 62.2759 87.5775V84.7276C62.1721 84.7944 62.0609 84.8649 61.9497 84.9317C59.3474 86.5125 55.1511 87.5776 50.4139 87.5776C46.7849 87.5776 43.4783 86.9578 40.9687 85.9596C40.2088 85.6554 39.8381 84.7944 40.1384 84.03C40.4423 83.2693 41.3061 82.8982 42.0659 83.2025C44.2826 84.082 47.2075 84.609 50.4139 84.609C54.5138 84.609 58.1615 83.7592 60.4152 82.3936C61.4976 81.7368 62.276 81.0354 62.276 80.1559V77.3023C62.1722 77.3728 62.061 77.4396 61.9498 77.5064C59.3475 79.0872 55.1513 80.156 50.4141 80.156C46.785 80.156 43.4784 79.5325 40.9689 78.538C40.2089 78.2338 39.8383 77.3691 40.1385 76.6084C40.4425 75.8477 41.3062 75.4729 42.0661 75.7772C44.2828 76.6604 47.2076 77.1874 50.4141 77.1874C54.5139 77.1874 58.1616 76.3376 60.4153 74.9683C61.4977 74.3115 62.2762 73.6101 62.2762 72.7343V69.877C62.1724 69.9475 62.0612 70.018 61.9499 70.0848C59.3477 71.6656 55.1514 72.7307 50.4142 72.7307C46.7852 72.7307 43.4786 72.111 40.969 71.1127C40.2091 70.8085 39.8384 69.9438 40.1387 69.1831C40.4426 68.4224 41.3064 68.0513 42.0662 68.3556C44.2829 69.2351 47.2077 69.7621 50.4142 69.7621C54.5141 69.7621 58.1617 68.9123 60.4155 67.5467C61.4979 66.8899 62.2763 66.1885 62.2763 65.3127V62.4628C62.1725 62.5296 62.0613 62.6001 61.9501 62.6669C59.3478 64.2477 55.1516 65.3128 50.4144 65.3128C46.7853 65.3128 43.4787 64.6931 40.9692 63.6948C40.2092 63.3906 39.8385 62.5296 40.1388 61.7652C40.4428 61.0045 41.3065 60.6334 42.0664 60.9377C44.2831 61.8172 47.2079 62.3442 50.4144 62.3442C54.5142 62.3442 58.1619 61.4944 60.4156 60.1288C61.498 59.472 62.2764 58.7706 62.2764 57.8911L62.2759 57.8903ZM83.0347 32.6569C83.0347 31.7811 82.2562 31.0797 81.1738 30.4229C78.92 29.0573 75.2723 28.2076 71.1726 28.2076C70.2051 28.2076 69.2598 28.2558 68.3553 28.3486C67.5397 28.4302 66.8132 27.8365 66.7317 27.0201C66.6501 26.2037 67.2432 25.4764 68.0587 25.3948C69.0596 25.2946 70.1012 25.2389 71.1725 25.2389C75.91 25.2389 80.1062 26.304 82.7082 27.8848C84.8693 29.1948 86 30.9129 86 32.657V84.6096C86 86.3537 84.8694 88.0719 82.7082 89.3818C80.1059 90.9627 75.9097 92.0277 71.1725 92.0277C70.1012 92.0277 69.0595 91.972 68.0587 91.8718C67.2432 91.7902 66.6501 91.0629 66.7317 90.2465C66.8132 89.4301 67.5398 88.8363 68.3553 88.918C69.2598 89.0108 70.205 89.0591 71.1726 89.0591C75.2724 89.0591 78.9201 88.2093 81.1738 86.8437C82.2562 86.1869 83.0347 85.4855 83.0347 84.6097V81.7598C82.9308 81.8266 82.8196 81.8971 82.7084 81.9639C80.1062 83.5447 75.9099 84.6098 71.1727 84.6098C70.1014 84.6098 69.0597 84.5578 68.059 84.4539C67.2434 84.3723 66.6503 83.6449 66.7319 82.8286C66.8135 82.0122 67.54 81.4184 68.3555 81.5001C69.26 81.5929 70.2052 81.6411 71.1728 81.6411C75.2727 81.6411 78.9203 80.7913 81.174 79.4258C82.2564 78.7689 83.0349 78.0676 83.0349 77.1881V74.3344C82.9311 74.4049 82.8199 74.4717 82.7087 74.5385C80.1064 76.1194 75.9101 77.1881 71.173 77.1881C70.1017 77.1881 69.06 77.1325 68.0592 77.0323C67.2437 76.9506 66.6505 76.2196 66.7321 75.407C66.8137 74.5906 67.5403 73.9968 68.3558 74.0785C69.2602 74.1675 70.2055 74.2195 71.1731 74.2195C75.2729 74.2195 78.9206 73.3697 81.1743 72.0004C82.2567 71.3436 83.0351 70.6423 83.0351 69.7665V66.9091C82.9313 66.9796 82.8201 67.0501 82.7089 67.1169C80.1066 68.6978 75.9104 69.7628 71.1732 69.7628C70.1019 69.7628 69.0602 69.7071 68.0594 69.607C67.2439 69.5253 66.6508 68.798 66.7324 67.9816C66.8139 67.1652 67.5405 66.5715 68.356 66.6532C69.2605 66.7459 70.2057 66.7942 71.1733 66.7942C75.2731 66.7942 78.9208 65.9444 81.1745 64.5788C82.2569 63.922 83.0354 63.2206 83.0354 62.3448V59.4875C82.9316 59.558 82.8204 59.6248 82.7092 59.6916C80.1069 61.2724 75.9106 62.3375 71.1734 62.3375C70.1021 62.3375 69.0605 62.2855 68.0597 62.1816C67.2441 62.1 66.651 61.3726 66.7326 60.5563C66.8142 59.7436 67.5407 59.1461 68.3562 59.2278C69.2607 59.3206 70.206 59.3688 71.1735 59.3688C75.2734 59.3688 78.921 58.5228 81.1748 57.1535C82.2572 56.4967 83.0356 55.7953 83.0356 54.9195V52.0621C82.9318 52.1327 82.8206 52.1995 82.7094 52.27C80.1071 53.8471 75.9109 54.9159 71.1737 54.9159C70.1024 54.9159 69.0607 54.8602 68.0599 54.76C67.2444 54.6784 66.6513 53.951 66.7329 53.1347C66.8144 52.3183 67.541 51.7245 68.3565 51.8062C69.2609 51.899 70.2062 51.9472 71.1738 51.9472C75.2736 51.9472 78.9213 51.0974 81.175 49.7282C82.2574 49.0751 83.0358 48.37 83.0358 47.4942V44.6405C82.932 44.711 82.8208 44.7778 82.7096 44.8446C80.1074 46.4255 75.9111 47.4905 71.1739 47.4905C70.1026 47.4905 69.0609 47.4386 68.0602 47.3347C67.2446 47.253 66.6515 46.5257 66.7331 45.7093C66.8147 44.8967 67.5412 44.2992 68.3567 44.3846C69.2612 44.4736 70.2064 44.5219 71.174 44.5219C75.2739 44.5219 78.9215 43.6721 81.1752 42.3065C82.2576 41.6497 83.0361 40.9483 83.0361 40.0725V37.23C82.9323 37.2968 82.8211 37.3673 82.7099 37.4341C80.1076 39.015 75.9113 40.08 71.1742 40.08C70.1029 40.08 69.0612 40.028 68.0604 39.9241C67.2449 39.8425 66.6517 39.1152 66.7333 38.2988C66.8149 37.4824 67.5414 36.8887 68.3569 36.9704C69.2614 37.0631 70.2067 37.1114 71.1742 37.1114C75.2741 37.1114 78.9218 36.2616 81.1755 34.896C82.2579 34.2392 83.0363 33.5341 83.0363 32.6583L83.0347 32.6569ZM44.4826 8.90732C44.4789 8.09093 45.1425 7.42298 45.9617 7.42298C46.7809 7.42298 47.4445 8.08722 47.4482 8.90732V11.876C47.4482 12.6924 46.7846 13.3604 45.9654 13.3604C45.1499 13.3604 44.4826 12.6961 44.4826 11.876V8.90732ZM45.9654 17.8134C52.5081 17.8134 57.8238 23.1348 57.8238 29.6882C57.8238 36.2379 52.508 41.5592 45.9654 41.5592C39.419 41.5592 34.1032 36.2378 34.1032 29.6882C34.1032 23.1348 39.419 17.8134 45.9654 17.8134ZM45.9654 20.7821C41.0537 20.7821 37.0688 24.7713 37.0688 29.6882C37.0688 34.6014 41.0537 38.5906 45.9654 38.5906C50.8734 38.5906 54.8583 34.6014 54.8583 29.6882C54.8583 24.7713 50.8734 20.7821 45.9654 20.7821ZM2.96554 56.3476C2.96554 57.164 2.302 57.8319 1.48277 57.8319C0.663541 57.8319 0 57.164 0 56.3476V46.0165C0 45.1964 0.663541 44.5322 1.48277 44.5322H37.0693C37.8885 44.5322 38.552 45.1964 38.552 46.0165V93.5156C38.552 94.3358 37.8885 95 37.0693 95H1.48277C0.663541 95 0 94.3358 0 93.5156V71.0942C0 70.2741 0.663541 69.6098 1.48277 69.6098C2.302 69.6098 2.96554 70.2741 2.96554 71.0942V92.0308H35.5865V47.5004H2.96554V56.3476ZM2.96554 65.313C2.96554 66.1331 2.302 66.7974 1.48277 66.7974C0.663541 66.7974 0 66.1331 0 65.313V62.348C0 61.5279 0.663541 60.8637 1.48277 60.8637C2.302 60.8637 2.96554 61.5279 2.96554 62.348V65.313ZM32.6209 51.9544V60.8605C32.6209 61.6806 31.9574 62.3448 31.1382 62.3448H7.41385C6.59462 62.3448 5.93108 61.6806 5.93108 60.8605V51.9544C5.93108 51.1343 6.59462 50.47 7.41385 50.47H31.1382C31.9574 50.47 32.6209 51.1343 32.6209 51.9544ZM29.6554 53.4387H8.89662V59.3761H29.6554V53.4387ZM17.7932 66.7974V74.2191C17.7932 75.0392 17.1297 75.7035 16.3105 75.7035H7.41385C6.59462 75.7035 5.93108 75.0392 5.93108 74.2191V66.7974C5.93108 65.9773 6.59462 65.313 7.41385 65.313H16.3105C17.1297 65.313 17.7932 65.9773 17.7932 66.7974ZM14.8277 68.2817H8.89662V72.7348H14.8277V68.2817ZM17.7932 80.1565V87.5783C17.7932 88.3984 17.1297 89.0626 16.3105 89.0626H7.41385C6.59462 89.0626 5.93108 88.3984 5.93108 87.5783V80.1565C5.93108 79.3364 6.59462 78.6722 7.41385 78.6722H16.3105C17.1297 78.6722 17.7932 79.3364 17.7932 80.1565ZM14.8277 81.6409H8.89662V86.0939H14.8277V81.6409ZM32.6209 66.7974V74.2191C32.6209 75.0392 31.9574 75.7035 31.1382 75.7035H22.2416C21.4223 75.7035 20.7588 75.0392 20.7588 74.2191V66.7974C20.7588 65.9773 21.4223 65.313 22.2416 65.313H31.1382C31.9574 65.313 32.6209 65.9773 32.6209 66.7974ZM29.6554 68.2817H23.7243V72.7348H29.6554V68.2817ZM32.6209 80.1565V87.5783C32.6209 88.3984 31.9574 89.0626 31.1382 89.0626H22.2416C21.4223 89.0626 20.7588 88.3984 20.7588 87.5783V80.1565C20.7588 79.3364 21.4223 78.6722 22.2416 78.6722H31.1382C31.9574 78.6722 32.6209 79.3364 32.6209 80.1565ZM29.6554 81.6409H23.7243V86.0939H29.6554V81.6409Z" fill="#B1A489"/>
</svg>
