<svg width="84" height="94" viewBox="0 0 84 94" fill="none" xmlns="http://www.w3.org/2000/svg">
<path d="M13.5353 35.3915C13.1212 36.4021 11.9611 36.892 10.9415 36.48C9.9259 36.0679 9.4337 34.9134 9.8477 33.8987L9.9727 33.5916C10.3868 32.5809 11.5469 32.0911 12.5665 32.5031C13.5821 32.9152 14.0743 34.0697 13.6603 35.0844L13.5353 35.3915ZM16.2228 30.2562C15.6212 31.1736 14.3908 31.4341 13.465 30.8393C12.5431 30.2407 12.2814 29.0162 12.8791 28.0949C16.0158 23.2745 20.3361 19.2822 25.4301 16.5261C30.352 13.8633 35.9851 12.3472 41.9571 12.3472C51.5196 12.3472 60.1761 16.2035 66.4411 22.4392C72.7106 28.6783 76.5861 37.2969 76.5861 46.8087C76.5861 56.3249 72.7111 64.9435 66.4411 71.1782C60.1755 77.4135 51.5151 81.2741 41.9531 81.2741C32.3911 81.2741 23.7301 77.4179 17.4651 71.1782C11.1995 64.9429 7.32006 56.3244 7.32006 46.8087C7.32006 45.662 7.38256 44.488 7.50365 43.3023C7.62474 42.1361 7.80443 40.9739 8.03881 39.8348C8.25756 38.7619 9.31221 38.07 10.3865 38.2876C11.4646 38.5053 12.1599 39.5549 11.9412 40.624C11.7342 41.623 11.574 42.6493 11.4685 43.691L11.3748 44.8184H12.6404C13.7459 44.8184 14.6404 45.7086 14.6404 46.8087C14.6404 47.9088 13.7459 48.799 12.6404 48.799H11.3787C11.824 55.7185 14.5935 62.0118 18.9178 66.914L19.8123 66.0238C20.5936 65.2463 21.8592 65.2463 22.6404 66.0238C23.4216 66.8012 23.4217 68.0608 22.6404 68.8382L21.7459 69.7284C26.6678 74.0317 32.9919 76.7879 39.9489 77.231V75.9754C39.9489 74.8753 40.8434 73.9851 41.9489 73.9851C43.0544 73.9851 43.9489 74.8753 43.9489 75.9754V77.231C50.902 76.784 57.2259 74.0318 62.1519 69.7284L61.2574 68.8382C60.4761 68.0607 60.4761 66.8012 61.2574 66.0238C62.0386 65.2463 63.3043 65.2463 64.0855 66.0238L64.98 66.914C69.3042 62.0159 72.0738 55.7224 72.5191 48.799H71.2574C70.1519 48.799 69.2574 47.9088 69.2574 46.8087C69.2574 45.7085 70.1519 44.8184 71.2574 44.8184H72.5191C72.0738 37.8989 69.3043 31.6056 64.98 26.7034L64.0894 27.5897C63.3081 28.3672 62.0425 28.3672 61.2613 27.5897C60.4801 26.8123 60.48 25.5527 61.2613 24.7753L62.1519 23.889C57.23 19.5857 50.9059 16.8335 43.9489 16.3864V17.642C43.9489 18.7421 43.0544 19.6323 41.9489 19.6323C40.8434 19.6323 39.9489 18.7421 39.9489 17.642V16.3864C35.3903 16.674 31.113 17.953 27.3279 20.0016C25.3162 21.0901 23.4451 22.3962 21.7381 23.885L22.6326 24.7752C23.4139 25.5488 23.4139 26.8045 22.6404 27.5819C21.8631 28.3594 20.6013 28.3594 19.8201 27.5897L18.9217 26.6956C17.9373 27.8112 17.0311 29.0008 16.2147 30.2525L16.2228 30.2562ZM48.0548 9.52102C46.9689 9.34997 46.2267 8.3315 46.3986 7.25085C46.5705 6.17021 47.5939 5.4316 48.6798 5.60267C58.7418 7.21592 67.6098 12.3939 73.9298 19.7877C80.1525 27.0687 83.9103 36.5074 83.9103 46.8123C83.9103 51.3411 83.1798 55.7105 81.8361 59.8042C80.4416 64.0453 78.383 67.9871 75.7853 71.5053C75.133 72.3877 73.8869 72.5782 72.9962 71.9329C72.1095 71.2837 71.9181 70.0437 72.5665 69.1573C74.9142 65.9736 76.7774 62.4089 78.0392 58.5757C79.254 54.8828 79.9103 50.9254 79.9103 46.8089C79.9103 37.4754 76.5119 28.9348 70.883 22.3498C65.1682 15.6635 57.149 10.9791 48.055 9.51723L48.0548 9.52102ZM68.9568 73.3627C69.7341 72.5852 70.9959 72.5852 71.7771 73.3549C72.5583 74.1285 72.5583 75.3841 71.7849 76.1616L71.5466 76.3987C70.7693 77.1761 69.5075 77.1761 68.7263 76.4065C67.9451 75.6329 67.9451 74.3772 68.7185 73.5998L68.9568 73.3627ZM64.5076 77.1995C65.3904 76.5464 66.6404 76.733 67.2967 77.6116C67.9529 78.4901 67.7654 79.7341 66.8826 80.3872C63.3865 82.9644 59.4607 85.0131 55.2306 86.4165C52.9806 87.1628 50.6447 87.7226 48.2423 88.0842L51.1564 89.9773C52.0783 90.5759 52.34 91.8004 51.7424 92.7217C51.1408 93.6391 49.9104 93.8996 48.9846 93.3048L41.1799 88.2357C40.258 87.637 39.9963 86.4125 40.5939 85.4912C40.8088 85.1647 41.1057 84.9198 41.4377 84.7643L41.4533 84.7565C41.676 84.6593 41.9221 84.5971 42.176 84.5854L42.2502 84.5816C46.3479 84.5505 50.2893 83.8741 53.9772 82.6496C57.7858 81.3862 61.3327 79.528 64.5042 77.1917L64.5076 77.1995ZM35.8516 84.1035C36.9375 84.2745 37.6797 85.293 37.5078 86.3736C37.3359 87.4543 36.3125 88.1929 35.2266 88.0218C25.1646 86.4086 16.2966 81.2306 9.9766 73.8368C3.7539 66.5558 0 57.117 0 46.8121C0 35.3479 4.6523 24.9574 12.176 17.4121C18.3752 11.1923 26.535 6.90414 35.664 5.53977L32.7499 3.64667C31.828 3.04802 31.5663 1.82354 32.164 0.902216C32.7655 -0.0152041 33.996 -0.275658 34.9218 0.319111L42.7265 5.38827C43.6483 5.98692 43.9101 7.2114 43.3124 8.13273C42.9218 8.73138 42.2655 9.05015 41.5976 9.03459C31.2066 9.12789 21.8086 13.3845 15.0036 20.2073C8.2028 27.0296 3.9956 36.4294 3.9956 46.8119C3.9956 56.1455 7.394 64.6861 13.0229 71.271C18.7377 77.9573 26.7536 82.6416 35.8516 84.1035ZM31.9766 26.9085C31.5782 25.8862 32.0821 24.7355 33.1094 24.3351C34.1367 23.9386 35.293 24.4401 35.6953 25.4624L43.3164 44.8173H52.875C53.9805 44.8173 54.875 45.7075 54.875 46.8077C54.875 47.9078 53.9805 48.798 52.875 48.798H41.957C41.1601 48.7941 40.4062 48.3159 40.0976 47.5307L31.9804 26.908L31.9766 26.9085Z" fill="#B1A489"/>
</svg>
