<svg width="50" height="61" viewBox="0 0 50 61" fill="none" xmlns="http://www.w3.org/2000/svg">
<path d="M40.8704 10.7461H5.76291C5.51611 10.7461 5.31641 10.9458 5.31641 11.1926V46.2993C5.31641 46.5461 5.51612 46.7458 5.76291 46.7458H29.2384C29.4852 46.7458 29.6849 46.5461 29.6849 46.2993V44.5132C29.6849 44.2664 29.4852 44.0667 29.2384 44.0667H15.9288C15.682 44.0667 15.4823 44.2664 15.4823 44.5132V45.8528L6.20925 45.8544V41.4362H8.1788C8.72112 41.4362 9.18874 41.1114 9.39982 40.6471H13.5386C15.5958 40.6471 17.2699 38.973 17.2699 36.9157V36.263C17.2699 34.2057 15.5958 32.5316 13.5386 32.5316H9.39982C9.18874 32.0672 8.72274 31.7425 8.1788 31.7425H6.20925V11.6392H8.0684V14.1398C8.0684 15.7408 8.70653 17.0235 9.91291 17.85C10.9505 18.5612 12.415 18.9379 14.149 18.9379C15.8831 18.9379 17.3476 18.5612 18.385 17.85C19.5914 17.0219 20.2295 15.7391 20.2295 14.1398L20.2263 11.6392H22.2916V20.1103C22.2916 20.7062 22.5238 21.268 22.946 21.6885L30.3743 29.1171C30.7965 29.5392 31.3567 29.7714 31.9526 29.7714H40.4234V45.8531H38.1697V46.7461H40.8699C41.1167 46.7461 41.3164 46.5464 41.3164 46.2996V11.1929C41.3164 10.9461 41.1167 10.7464 40.8699 10.7464L40.8704 10.7461ZM16.3753 44.9611H28.7916V45.8542H16.3753V44.9611ZM9.52011 33.4245H13.5388C15.104 33.4245 16.377 34.6975 16.377 36.2628V36.9155C16.377 38.4808 15.104 39.7538 13.5388 39.7538L9.52011 39.7521V33.4245ZM8.18055 32.6354C8.42735 32.6354 8.62705 32.8351 8.62705 33.0819V40.0964C8.62705 40.3432 8.42734 40.5429 8.18055 40.5429H6.20938V32.6355L8.18055 32.6354ZM13.5859 11.6388H14.7078V13.7156H13.5859V11.6388ZM13.1393 14.6086H15.156C15.4028 14.6086 15.6025 14.4089 15.6025 14.1621V13.4249H17.5477V14.1394C17.5477 15.0487 17.2213 15.3977 16.8674 15.6413C16.2861 16.0391 15.32 16.26 14.1477 16.26C12.9737 16.26 12.0077 16.0408 11.428 15.6413C11.074 15.3994 10.7477 15.0503 10.7477 14.1394V13.4249H12.6928V14.1621C12.6928 14.4089 12.8926 14.6086 13.1393 14.6086ZM19.3336 14.1393C19.3336 17.5378 16.0846 18.0444 14.1473 18.0444C12.2101 18.0444 8.96108 17.5378 8.96108 14.1393V11.6388H12.6923V12.5318H10.3006C10.0538 12.5318 9.85414 12.7316 9.85414 12.9784V14.1393C9.85414 15.4887 10.463 16.0635 10.9225 16.3768C11.6499 16.8769 12.7963 17.1514 14.1472 17.1514C15.4997 17.1514 16.6444 16.8769 17.3718 16.3768C17.8297 16.0618 18.4402 15.4887 18.4402 14.1393V12.9784C18.4402 12.7315 18.2405 12.5318 17.9937 12.5318H15.602V11.6388H19.3333L19.3336 14.1393ZM40.4236 28.8779H31.9528C31.5956 28.8779 31.2578 28.7383 31.0062 28.485L23.5778 21.0565C23.3245 20.8031 23.1849 20.467 23.1849 20.1098V11.6388H40.4238L40.4236 28.8779Z" fill="#B1A489" stroke="#B1A489" stroke-width="0.3"/>
<path d="M31.1457 27.1109C31.5555 27.5207 32.0993 27.7461 32.6777 27.7461H37.1492C38.3439 27.7461 39.3164 26.7736 39.3164 25.5789V15.7801C39.3164 14.1079 37.9546 12.7461 36.2824 12.7461H26.4836C25.2889 12.7461 24.3164 13.7186 24.3164 14.9133V19.3848C24.3164 19.9632 24.5418 20.5086 24.9516 20.9168L31.1457 27.1109ZM25.1833 14.9118C25.1833 14.1947 25.7665 13.6115 26.4837 13.6115H36.2824C37.4771 13.6115 38.4496 14.584 38.4496 15.7786V25.5774C38.4496 26.2945 37.8665 26.8777 37.1493 26.8777H32.6778C32.3311 26.8777 32.0032 26.7422 31.7589 26.4963L25.5634 20.3007C25.3175 20.0548 25.1819 19.7286 25.1819 19.3819L25.1833 14.9118Z" fill="#B1A489" stroke="#B1A489" stroke-width="0.3"/>
<path d="M37.0777 18.5964C37.1576 18.6962 37.2611 18.7461 37.3647 18.7461C37.4683 18.7461 37.5733 18.6962 37.6517 18.5964C38.538 17.4892 38.538 15.687 37.6517 14.5779C37.2227 14.0418 36.6515 13.7461 36.0434 13.7461C35.4353 13.7461 34.8642 14.0418 34.4351 14.5779C34.2768 14.7757 34.2768 15.0992 34.4351 15.2969L37.0777 18.5964ZM36.0449 14.7627C36.4355 14.7627 36.8024 14.9531 37.0777 15.2969C37.3529 15.6407 37.5052 16.0991 37.5052 16.5871C37.5052 16.8995 37.4431 17.2008 37.3247 17.467L35.3406 14.9882C35.5537 14.8404 35.7948 14.7627 36.0449 14.7627Z" fill="#B1A489" stroke="#B1A489" stroke-width="0.3"/>
<path d="M26.3164 19.3662L26.9365 18.7461L33.3164 25.126L32.6963 25.7461L26.3164 19.3662Z" fill="#B1A489" stroke="#B1A489" stroke-width="0.3"/>
<path d="M26.3164 16.3792L26.9495 15.7461L36.3164 25.113L35.6833 25.7461L26.3164 16.3792Z" fill="#B1A489" stroke="#B1A489" stroke-width="0.3"/>
<path d="M28.3164 15.3159L28.9495 14.7461L38.3164 23.1763L37.6833 23.7461L28.3164 15.3159Z" fill="#B1A489" stroke="#B1A489" stroke-width="0.3"/>
<path d="M31.3164 15.3662L31.9365 14.7461L38.3164 21.126L37.6963 21.7461L31.3164 15.3662Z" fill="#B1A489" stroke="#B1A489" stroke-width="0.3"/>
</svg>
