<svg width="36" height="49" viewBox="0 0 36 49" fill="none" xmlns="http://www.w3.org/2000/svg">
<path d="M5.82068 18.2465V13.3509C5.82068 13.0503 6.03666 12.8064 6.30285 12.8064C6.86413 12.8064 7.37391 12.547 7.74309 12.1315C8.11349 11.7119 8.3433 11.1348 8.3433 10.5025C8.3433 10.2019 8.55927 9.95801 8.82546 9.95801H26.5301C26.7963 9.95801 27.0122 10.2019 27.0122 10.5025C27.0122 11.1348 27.2433 11.7104 27.6124 12.1287C27.9703 12.5597 28.5341 12.8064 29.0527 12.8064C29.3189 12.8064 29.5348 13.0503 29.5348 13.3509V18.2465C30.3284 18.3614 31.0429 18.7754 31.5853 19.3864C32.2496 20.1365 32.625 21.1446 32.625 22.2051V30.1449C32.625 30.4455 32.409 30.6893 32.1428 30.6893H31.181V32.3624C31.181 32.7026 31.058 33.0117 30.8596 33.2343C30.6599 33.4597 30.3862 33.5987 30.0848 33.5987H28.1825C27.8811 33.5987 27.6087 33.4597 27.4103 33.2357C27.2106 33.0117 27.0876 32.7026 27.0876 32.3609V30.6879H8.26789V32.3609C8.26789 32.7012 8.14483 33.0117 7.94644 33.2357L7.91003 33.2726C7.7154 33.4739 7.45547 33.5987 7.1717 33.5987H5.26938C4.96802 33.5987 4.69428 33.4597 4.49717 33.2357C4.29752 33.0103 4.17447 32.7012 4.17447 32.3609V30.6879H3.21264C2.94644 30.6879 2.73047 30.444 2.73047 30.1434V22.2036C2.73047 21.1076 3.12726 20.1109 3.76765 19.3864C4.32266 18.7597 5.04086 18.3557 5.81937 18.2437L5.82068 18.2465ZM30.2168 30.6907H28.0521V32.3637C28.0521 32.4034 28.0672 32.4417 28.091 32.4687C28.1136 32.4956 28.1475 32.5126 28.1839 32.5126H30.0862C30.1227 32.5126 30.1553 32.4956 30.1792 32.4701C30.2018 32.4446 30.2168 32.4063 30.2168 32.3652V30.6907ZM7.30384 30.6907H5.13909V32.3637C5.13909 32.4049 5.15416 32.4417 5.17676 32.4687C5.19936 32.4942 5.23326 32.5112 5.26968 32.5112H7.17199C7.20339 32.5112 7.23101 32.4999 7.25361 32.48L7.26366 32.4687C7.28626 32.4431 7.30258 32.4049 7.30258 32.3638V30.6907H7.30384ZM18.5921 18.2153V17.2654C18.5921 16.6415 18.8181 16.0744 19.1809 15.6632C19.5451 15.252 20.0473 14.9983 20.5998 14.9983H24.4909C25.0422 14.9983 25.5444 15.2535 25.9086 15.6632C26.274 16.0758 26.5 16.6429 26.5 17.2668V18.2167H28.5705V13.8528C27.9502 13.738 27.3915 13.4062 26.9596 12.9298C26.505 12.4562 26.1861 11.7332 26.0869 11.0469H9.26884C9.16587 11.763 8.86201 12.4066 8.42504 12.8986C7.98681 13.3906 7.41801 13.7337 6.78515 13.8514V18.2153H8.85446V17.2654C8.85446 16.6415 9.08047 16.0744 9.44335 15.6632C9.80748 15.252 10.3097 14.9983 10.8622 14.9983H14.7533C15.3058 14.9983 15.8081 15.2535 16.1722 15.6632C16.5364 16.0744 16.7611 16.6415 16.7611 17.2654V18.2153H18.5921ZM25.5359 18.2153V17.2654C25.5359 16.9407 25.4179 16.6444 25.2308 16.4317C25.0412 16.2176 24.78 16.0871 24.4925 16.0871H20.6014C20.3151 16.0871 20.0539 16.2204 19.8643 16.4345C19.6747 16.6486 19.5579 16.9435 19.5579 17.2668V18.2167H25.5375L25.5359 18.2153ZM15.7984 18.2153V17.2654C15.7984 16.9421 15.6803 16.6458 15.492 16.4331C15.3024 16.219 15.0412 16.0857 14.7549 16.0857H10.8638C10.5775 16.0857 10.3164 16.219 10.1267 16.4331C9.93713 16.6472 9.82036 16.9421 9.82036 17.2654V18.2153H15.7999H15.7984ZM3.69528 26.844H31.6611V22.2064C31.6611 21.4082 31.3723 20.6823 30.9077 20.1577C30.4406 19.6303 29.799 19.3056 29.0908 19.3056H6.26553C5.55861 19.3056 4.91572 19.6317 4.45113 20.1563C3.98404 20.6837 3.69647 21.4082 3.69647 22.2079V26.8454L3.69528 26.844ZM31.6611 27.9329H3.69528V29.6017H31.6611V27.9329Z" fill="#B1A489"/>
</svg>
