<svg width="104" height="127" viewBox="0 0 104 127" fill="none" xmlns="http://www.w3.org/2000/svg">
<path d="M53.2442 87.3896C50.5002 87.3896 48.2695 89.6092 48.2695 92.3395C48.2695 95.0699 50.5002 97.2894 53.2442 97.2894C55.9882 97.2894 58.2189 95.0699 58.2189 92.3395C58.2189 89.6092 55.9882 87.3896 53.2442 87.3896ZM53.2442 94.8163C51.8741 94.8163 50.755 93.7065 50.755 92.3395C50.755 90.9726 51.8704 89.8628 53.2442 89.8628C54.6144 89.8628 55.7334 90.9726 55.7334 92.3395C55.7334 93.7065 54.6181 94.8163 53.2442 94.8163Z" fill="#B1A489"/>
<path d="M70.6622 87.3896C67.9182 87.3896 65.6875 89.6092 65.6875 92.3395C65.6875 95.0699 67.9182 97.2894 70.6622 97.2894C73.4062 97.2894 75.6369 95.0699 75.6369 92.3395C75.6369 89.6092 73.4062 87.3896 70.6622 87.3896ZM70.6622 94.8163C69.292 94.8163 68.173 93.7065 68.173 92.3395C68.173 90.9726 69.2884 89.8628 70.6622 89.8628C72.0323 89.8628 73.1514 90.9726 73.1514 92.3395C73.1514 93.7065 72.036 94.8163 70.6622 94.8163Z" fill="#B1A489"/>
<path d="M64.4375 61.3943C64.4375 64.8082 67.2295 67.5826 70.6568 67.5826C74.0878 67.5826 76.8761 64.8045 76.8761 61.3943C76.8761 57.9805 74.0841 55.2061 70.6568 55.2061C67.2258 55.2061 64.4375 57.9842 64.4375 61.3943ZM70.6605 57.6828C72.7176 57.6828 74.3943 59.3475 74.3943 61.398C74.3943 63.4449 72.7213 65.1132 70.6605 65.1132C68.6034 65.1132 66.9267 63.4485 66.9267 61.398C66.9267 59.3511 68.5997 57.6828 70.6605 57.6828Z" fill="#B1A489"/>
<path d="M88.0743 87.3896C85.3303 87.3896 83.0996 89.6092 83.0996 92.3395C83.0996 95.0699 85.3303 97.2894 88.0743 97.2894C90.8183 97.2894 93.049 95.0699 93.049 92.3395C93.049 89.6092 90.8183 87.3896 88.0743 87.3896ZM88.0743 94.8163C86.7042 94.8163 85.5851 93.7065 85.5851 92.3395C85.5851 90.9726 86.7005 89.8628 88.0743 89.8628C89.4445 89.8628 90.5635 90.9726 90.5635 92.3395C90.5635 93.7065 89.4481 94.8163 88.0743 94.8163Z" fill="#B1A489"/>
<path d="M69.4175 84.9133C69.4175 85.5968 69.9751 86.1517 70.6621 86.1517C71.349 86.1517 71.9067 85.5968 71.9067 84.9133V78.725H83.1046C85.1618 78.725 86.8384 80.3896 86.8384 82.4402V84.9169C86.8384 85.6004 87.3961 86.1553 88.083 86.1553C88.77 86.1553 89.3276 85.6004 89.3276 84.9169V82.4402C89.3276 79.0263 86.5356 76.2519 83.1083 76.2519H71.9104V70.0636C71.9104 69.3801 71.3527 68.8252 70.6658 68.8252C69.9788 68.8252 69.4212 69.3801 69.4212 70.0636V76.2519H58.2232C54.7922 76.2519 52.0039 79.03 52.0039 82.4402V84.9169C52.0039 85.6004 52.5616 86.1553 53.2485 86.1553C53.9354 86.1553 54.4931 85.6004 54.4931 84.9169V82.4402C54.4931 80.3933 56.1661 78.725 58.2269 78.725H69.4249V84.9133H69.4175Z" fill="#B1A489"/>
<path d="M46.7854 94.8165H17.1662C15.1091 94.8165 13.4324 93.1519 13.4324 91.1013L13.4361 21.7838C13.4361 19.7369 15.1091 18.0686 17.1699 18.0686H28.2014C28.6372 18.0686 29.0472 18.3001 29.2688 18.6676L31.5512 22.4526C32.2234 23.5661 33.4495 24.2533 34.7532 24.2533H44.3741C45.6778 24.2533 46.904 23.5624 47.5761 22.4489L49.8585 18.6639C50.0838 18.2928 50.49 18.0613 50.9258 18.0613H61.9574C64.0145 18.0613 65.6912 19.7259 65.6912 21.7765V53.5632C65.6912 54.2467 66.2488 54.8015 66.9358 54.8015C67.6227 54.8015 68.1804 54.2467 68.1804 53.5632L68.173 21.784C68.173 18.3701 65.381 15.5957 61.9537 15.5957H17.1666C13.7356 15.5957 10.9473 18.3738 10.9473 21.784V91.1015C10.9473 94.5154 13.7393 97.2898 17.1666 97.2898H46.7858C47.4727 97.2898 48.0304 96.7349 48.0304 96.0514C48.0304 95.3679 47.4727 94.813 46.7858 94.813L46.7854 94.8165ZM45.4374 21.1847C45.2121 21.5559 44.8058 21.7874 44.37 21.7874H34.7491C34.3133 21.7874 33.9034 21.5559 33.6818 21.1884L31.8056 18.0759H47.313L45.4368 21.1884L45.4374 21.1847Z" fill="#B1A489"/>
<path d="M32.0978 34.1638C32.0978 31.4335 29.8671 29.2139 27.1231 29.2139C24.3791 29.2139 22.1484 31.4335 22.1484 34.1638C22.1484 36.8941 24.3791 39.1137 27.1231 39.1137C29.8671 39.1137 32.0978 36.8941 32.0978 34.1638ZM24.6303 34.1638C24.6303 32.7968 25.7456 31.687 27.1194 31.687C28.4896 31.687 29.6086 32.7968 29.6086 34.1638C29.6086 35.5308 28.4933 36.6405 27.1194 36.6405C25.7493 36.6405 24.6303 35.5308 24.6303 34.1638Z" fill="#B1A489"/>
<path d="M35.8271 52.7297V50.253C35.8271 45.4758 31.9198 41.5879 27.1186 41.5879C22.3175 41.5879 18.4102 45.4758 18.4102 50.253V52.7297C18.4102 54.7766 20.0831 56.4449 22.1439 56.4449H32.0967C34.1539 56.4449 35.8305 54.7803 35.8305 52.7297H35.8271ZM20.8993 52.7297V50.253C20.8993 46.8391 23.6914 44.0647 27.1186 44.0647C30.5496 44.0647 33.3379 46.8428 33.3379 50.253V52.7297C33.3379 53.4132 32.7803 53.9681 32.0933 53.9681H22.1405C21.4536 53.9681 20.8959 53.4132 20.8959 52.7297H20.8993Z" fill="#B1A489"/>
<path d="M60.709 36.641C60.709 34.5941 59.036 32.9258 56.9752 32.9258H39.558C37.5009 32.9258 35.8242 34.5904 35.8242 36.641C35.8242 38.6878 37.4972 40.3561 39.558 40.3561H56.9752C59.0323 40.3561 60.709 38.6915 60.709 36.641ZM38.3168 36.641C38.3168 35.9574 38.8745 35.4026 39.5614 35.4026H56.9786C57.6655 35.4026 58.2232 35.9574 58.2232 36.641C58.2232 37.3245 57.6655 37.8793 56.9786 37.8793H39.5614C38.8745 37.8793 38.3168 37.3245 38.3168 36.641Z" fill="#B1A489"/>
<path d="M50.7558 42.8291H42.0473C41.3604 42.8291 40.8027 43.384 40.8027 44.0675C40.8027 44.751 41.3604 45.3059 42.0473 45.3059H50.7558C51.4427 45.3059 52.0004 44.751 52.0004 44.0675C52.0004 43.384 51.4427 42.8291 50.7558 42.8291Z" fill="#B1A489"/>
<path d="M50.7558 46.541H42.0473C41.3604 46.541 40.8027 47.0959 40.8027 47.7794C40.8027 48.4629 41.3604 49.0178 42.0473 49.0178H50.7558C51.4427 49.0178 52.0004 48.4629 52.0004 47.7794C52.0004 47.0959 51.4427 46.541 50.7558 46.541Z" fill="#B1A489"/>
<path d="M52.0004 51.4942C52.0004 50.8107 51.4427 50.2559 50.7558 50.2559H42.0473C41.3604 50.2559 40.8027 50.8107 40.8027 51.4942C40.8027 52.1778 41.3604 52.7326 42.0473 52.7326H50.7558C51.4427 52.7326 52.0004 52.1778 52.0004 51.4942Z" fill="#B1A489"/>
<path d="M30.8523 62.6322C30.8523 60.5853 29.1794 58.917 27.1186 58.917C25.0614 58.917 23.3848 60.5816 23.3848 62.6322C23.3848 64.2453 24.4263 65.6051 25.874 66.1158V70.2867C24.43 70.7975 23.3848 72.1608 23.3848 73.7703C23.3848 75.3835 24.4263 76.7433 25.874 77.254V81.4249C24.43 81.9357 23.3848 83.299 23.3848 84.9085C23.3848 86.5217 24.4263 87.8815 25.874 88.3922V89.8584C25.874 90.5419 26.4316 91.0968 27.1186 91.0968C27.8055 91.0968 28.3632 90.5419 28.3632 89.8584V88.3922C29.8071 87.8814 30.8523 86.518 30.8523 84.9085C30.8523 83.2953 29.8108 81.9356 28.3632 81.4249V77.254C29.8071 76.7432 30.8523 75.3799 30.8523 73.7703C30.8523 72.1572 29.8108 70.7974 28.3632 70.2867V66.1158C29.8071 65.605 30.8523 64.2417 30.8523 62.6322ZM27.1186 61.3938C27.8055 61.3938 28.3632 61.9487 28.3632 62.6322C28.3632 63.3157 27.8055 63.8706 27.1186 63.8706C26.4316 63.8706 25.874 63.3157 25.874 62.6322C25.874 61.9487 26.4316 61.3938 27.1186 61.3938ZM27.1186 86.1503C26.4316 86.1503 25.874 85.5954 25.874 84.9119C25.874 84.2284 26.4316 83.6735 27.1186 83.6735C27.8055 83.6735 28.3632 84.2284 28.3632 84.9119C28.3632 85.5954 27.8055 86.1503 27.1186 86.1503ZM27.1186 75.0119C26.4316 75.0119 25.874 74.4571 25.874 73.7736C25.874 73.09 26.4316 72.5352 27.1186 72.5352C27.8055 72.5352 28.3632 73.09 28.3632 73.7736C28.3632 74.4571 27.8055 75.0119 27.1186 75.0119Z" fill="#B1A489"/>
<path d="M44.5363 61.3945H33.3383C32.6514 61.3945 32.0938 61.9494 32.0938 62.6329C32.0938 63.3164 32.6514 63.8713 33.3383 63.8713H44.5363C45.2232 63.8713 45.7809 63.3164 45.7809 62.6329C45.7809 61.9494 45.2232 61.3945 44.5363 61.3945Z" fill="#B1A489"/>
<path d="M33.3383 67.5862H38.313C39 67.5862 39.5576 67.0313 39.5576 66.3478C39.5576 65.6643 39 65.1094 38.313 65.1094H33.3383C32.6514 65.1094 32.0938 65.6643 32.0938 66.3478C32.0938 67.0313 32.6514 67.5862 33.3383 67.5862Z" fill="#B1A489"/>
<path d="M44.5363 72.5361H33.3383C32.6514 72.5361 32.0938 73.091 32.0938 73.7745C32.0938 74.458 32.6514 75.0129 33.3383 75.0129H44.5363C45.2232 75.0129 45.7809 74.458 45.7809 73.7745C45.7809 73.091 45.2232 72.5361 44.5363 72.5361Z" fill="#B1A489"/>
<path d="M33.3383 78.7248H38.313C39 78.7248 39.5576 78.1699 39.5576 77.4864C39.5576 76.8029 39 76.248 38.313 76.248H33.3383C32.6514 76.248 32.0938 76.8029 32.0938 77.4864C32.0938 78.1699 32.6514 78.7248 33.3383 78.7248Z" fill="#B1A489"/>
<path d="M45.7809 84.9132C45.7809 84.2297 45.2232 83.6748 44.5363 83.6748H33.3383C32.6514 83.6748 32.0938 84.2297 32.0938 84.9132C32.0938 85.5967 32.6514 86.1516 33.3383 86.1516H44.5363C45.2232 86.1516 45.7809 85.5967 45.7809 84.9132Z" fill="#B1A489"/>
<path d="M33.3383 87.3896C32.6514 87.3896 32.0938 87.9445 32.0938 88.628C32.0938 89.3116 32.6514 89.8664 33.3383 89.8664H38.313C39 89.8664 39.5576 89.3116 39.5576 88.628C39.5576 87.9445 39 87.3896 38.313 87.3896H33.3383Z" fill="#B1A489"/>
</svg>
