<svg width="110" height="135" viewBox="0 0 110 135" fill="none" xmlns="http://www.w3.org/2000/svg">
<path d="M81.3159 69.2109C71.8862 69.2109 64.2109 76.8828 64.2109 86.3159C64.2109 95.7456 71.8828 103.421 81.3159 103.421C90.7456 103.421 98.4209 95.749 98.4209 86.3159C98.4209 76.8862 90.749 69.2109 81.3159 69.2109ZM81.3159 100.789C73.3354 100.789 66.8429 94.2967 66.8429 86.3159C66.8429 78.3354 73.3351 71.8429 81.3159 71.8429C89.2964 71.8429 95.7889 78.3351 95.7889 86.3159C95.7889 94.2964 89.2967 100.789 81.3159 100.789Z" fill="#B1A489"/>
<path d="M81.3162 73.1561C74.0623 73.1561 68.1602 79.0584 68.1602 86.3121C68.1602 87.0387 68.75 87.6285 69.4766 87.6285C70.2031 87.6285 70.793 87.0387 70.793 86.3121C70.793 80.5074 75.5157 75.7851 81.32 75.7851C82.0465 75.7851 82.6364 75.1953 82.6364 74.4687C82.6364 73.7422 82.0465 73.1523 81.32 73.1523L81.3162 73.1561Z" fill="#B1A489"/>
<path d="M62.2895 79.7381H31.3165C29.1407 79.7381 27.3673 77.9686 27.3673 75.7889V44.2109C27.3673 42.0351 29.1368 40.2617 31.3165 40.2617H78.6835C80.8593 40.2617 82.6327 42.0312 82.6327 44.2109V66.7619C82.6327 67.4885 83.2225 68.0783 83.9491 68.0783C84.6756 68.0783 85.2655 67.4885 85.2655 66.7619V44.2109C85.2655 40.582 82.3124 37.6328 78.6874 37.6328H31.3164C27.6875 37.6328 24.7383 40.5859 24.7383 44.2109V75.7889C24.7383 79.4178 27.6914 82.367 31.3164 82.367H62.2894C63.0159 82.367 63.6058 81.7772 63.6058 81.0506C63.6058 80.3241 63.0159 79.7342 62.2894 79.7342L62.2895 79.7381Z" fill="#B1A489"/>
<path d="M72.1055 36.3164H80C83.6289 36.3164 86.5781 39.2695 86.5781 42.8945V50.789C86.5781 51.5156 87.1679 52.1054 87.8945 52.1054C88.621 52.1054 89.2109 51.5156 89.2109 50.789V42.8945C89.2109 37.8164 85.0781 33.6836 80 33.6836H72.1055C71.3789 33.6836 70.7891 34.2734 70.7891 35C70.7891 35.7266 71.3789 36.3164 72.1055 36.3164Z" fill="#B1A489"/>
<path d="M37.8945 83.6835H30C26.3711 83.6835 23.4219 80.7304 23.4219 77.1054V69.2109C23.4219 68.4844 22.832 67.8945 22.1055 67.8945C21.3789 67.8945 20.7891 68.4844 20.7891 69.2109V77.1054C20.7891 82.1835 24.9219 86.3163 30 86.3163H37.8945C38.621 86.3163 39.2109 85.7265 39.2109 84.9999C39.2109 84.2734 38.621 83.6835 37.8945 83.6835Z" fill="#B1A489"/>
<path d="M23.4218 46.8441C23.4218 46.1176 22.832 45.5277 22.1054 45.5277H15.5273C14.8008 45.5277 14.2109 44.9379 14.2109 44.2113V20.5273C14.2109 19.8008 14.8008 19.2109 15.5273 19.2109H24.7382C25.1484 19.2109 25.5429 19.4101 25.789 19.7383L28.164 22.9063C28.914 23.8906 30.0898 24.4766 31.3163 24.4766H47.1053C47.8319 24.4766 48.4217 25.0664 48.4217 25.793V35.0039C48.4217 35.7304 49.0116 36.3203 49.7381 36.3203C50.4647 36.3203 51.0545 35.7304 51.0545 35.0039V25.793C51.0545 23.6172 49.285 21.8438 47.1053 21.8438H31.3163C30.9062 21.8438 30.5116 21.6445 30.2655 21.3164L27.8905 18.1484C27.1405 17.164 25.9647 16.5781 24.7382 16.5781H15.5273C13.3515 16.5781 11.5781 18.3476 11.5781 20.5273V44.2113C11.5781 46.3871 13.3476 48.1605 15.5273 48.1605H22.1054C22.832 48.1605 23.4218 47.5707 23.4218 46.8441Z" fill="#B1A489"/>
<path d="M18.1562 28.4219H16.8398C16.1133 28.4219 15.5234 29.0117 15.5234 29.7383C15.5234 30.4648 16.1133 31.0547 16.8398 31.0547H18.1562C18.8828 31.0547 19.4726 30.4648 19.4726 29.7383C19.4726 29.0117 18.8828 28.4219 18.1562 28.4219Z" fill="#B1A489"/>
<path d="M18.1562 32.3672H16.8398C16.1133 32.3672 15.5234 32.957 15.5234 33.6836C15.5234 34.4101 16.1133 35 16.8398 35H18.1562C18.8828 35 19.4726 34.4101 19.4726 33.6836C19.4726 32.957 18.8828 32.3672 18.1562 32.3672Z" fill="#B1A489"/>
<path d="M18.1562 36.3164H16.8398C16.1133 36.3164 15.5234 36.9062 15.5234 37.6328C15.5234 38.3594 16.1133 38.9492 16.8398 38.9492H18.1562C18.8828 38.9492 19.4726 38.3594 19.4726 37.6328C19.4726 36.9062 18.8828 36.3164 18.1562 36.3164Z" fill="#B1A489"/>
<path d="M79.0699 58.2969C79.5855 58.8125 80.4176 58.8125 80.9293 58.2969C81.4449 57.7812 81.4449 56.9492 80.9293 56.4375L73.0348 48.543C72.5192 48.0273 71.6871 48.0273 71.1754 48.543L56.3164 63.402L51.9844 59.07C51.4688 58.5543 50.6367 58.5543 50.125 59.07L41.1406 68.0544C40.4062 68.7887 39.3867 69.2106 38.3515 69.2106H31.3203C30.5937 69.2106 30.0039 69.8004 30.0039 70.527C30.0039 71.2535 30.5937 71.8434 31.3203 71.8434H38.3515C40.1093 71.8434 41.7617 71.1598 43.0038 69.9176L51.0585 61.8629L55.3905 66.1949C55.9061 66.7105 56.7382 66.7105 57.2499 66.1949L72.1089 51.3359L79.0737 58.3007L79.0699 58.2969Z" fill="#B1A489"/>
<path d="M41.8437 50.789C41.8437 48.6132 40.0742 46.8398 37.8945 46.8398C35.7187 46.8398 33.9453 48.6093 33.9453 50.789C33.9453 52.9648 35.7148 54.7382 37.8945 54.7382C40.0703 54.7382 41.8437 52.9687 41.8437 50.789ZM36.5781 50.789C36.5781 50.0625 37.168 49.4726 37.8945 49.4726C38.6211 49.4726 39.2109 50.0625 39.2109 50.789C39.2109 51.5156 38.6211 52.1054 37.8945 52.1054C37.168 52.1054 36.5781 51.5156 36.5781 50.789Z" fill="#B1A489"/>
<path d="M66.8437 48.1562C67.5703 48.1562 68.1601 47.5664 68.1601 46.8398C68.1601 46.1133 67.5703 45.5234 66.8437 45.5234H62.8945C62.168 45.5234 61.5781 46.1133 61.5781 46.8398C61.5781 47.5664 62.168 48.1562 62.8945 48.1562H66.8437Z" fill="#B1A489"/>
<path d="M58.9492 45.5273H57.6328C56.9062 45.5273 56.3164 46.1172 56.3164 46.8437C56.3164 47.5703 56.9062 48.1601 57.6328 48.1601H58.9492C59.6758 48.1601 60.2656 47.5703 60.2656 46.8437C60.2656 46.1172 59.6758 45.5273 58.9492 45.5273Z" fill="#B1A489"/>
<path d="M47.1055 69.2109C46.3789 69.2109 45.7891 69.8008 45.7891 70.5273C45.7891 71.2539 46.3789 71.8437 47.1055 71.8437H57.6325C58.359 71.8437 58.9489 71.2539 58.9489 70.5273C58.9489 69.8008 58.359 69.2109 57.6325 69.2109H47.1055Z" fill="#B1A489"/>
<path d="M62.8945 69.2109H61.5781C60.8516 69.2109 60.2617 69.8008 60.2617 70.5273C60.2617 71.2539 60.8516 71.8437 61.5781 71.8437H62.8945C63.6211 71.8437 64.2109 71.2539 64.2109 70.5273C64.2109 69.8008 63.6211 69.2109 62.8945 69.2109Z" fill="#B1A489"/>
<path d="M58.9492 50.7891C58.9492 51.5156 59.5391 52.1055 60.2656 52.1055H62.8984C63.625 52.1055 64.2148 51.5156 64.2148 50.7891C64.2148 50.0625 63.625 49.4727 62.8984 49.4727H60.2656C59.5391 49.4727 58.9492 50.0625 58.9492 50.7891Z" fill="#B1A489"/>
<path d="M58.9492 53.4219C58.2227 53.4219 57.6328 54.0117 57.6328 54.7383C57.6328 55.4648 58.2227 56.0547 58.9492 56.0547H60.2656C60.9922 56.0547 61.582 55.4648 61.582 54.7383C61.582 54.0117 60.9922 53.4219 60.2656 53.4219H58.9492Z" fill="#B1A489"/>
</svg>
