<svg width="110" height="135" viewBox="0 0 110 135" fill="none" xmlns="http://www.w3.org/2000/svg">
<path fill-rule="evenodd" clip-rule="evenodd" d="M28.4879 36.367C28.4762 36.3826 28.4684 36.3943 28.4567 36.406C28.4645 36.3943 28.4762 36.3826 28.4879 36.367ZM59.5699 50.055C59.2926 50.055 59.0191 49.9456 58.816 49.7268C58.4293 49.3089 58.4527 48.6604 58.8707 48.2737C61.1168 46.1917 62.9527 40.5628 62.1129 35.5077C61.6129 32.5077 59.9762 28.4725 55.0152 26.2694C50.8707 24.4374 46.2691 23.8397 41.7182 24.5311C36.0151 25.4061 29.1242 28.0741 28.6792 35.8321C28.6675 36.0196 28.605 36.1993 28.4995 36.3556C28.3667 36.6251 25.6401 42.6486 32.1401 48.0356C32.5776 48.3989 32.6362 49.0473 32.2768 49.4809C31.9135 49.9184 31.2651 49.977 30.8315 49.6176C23.9877 43.9418 25.7846 37.2156 26.6401 35.4806C26.9331 31.4376 28.7339 28.2306 32.0034 25.9337C34.4175 24.2423 37.5776 23.086 41.4057 22.5001C46.3471 21.7462 51.3393 22.4024 55.8467 24.3907C61.6475 26.9688 63.5576 31.6759 64.1397 35.1717C65.1358 41.1483 62.9522 47.2927 60.2686 49.7807C60.0694 49.9643 59.8199 50.055 59.5699 50.055Z" fill="#B1A489"/>
<path fill-rule="evenodd" clip-rule="evenodd" d="M79.8394 97.8053H11.1484C10.582 97.8053 10.1211 97.3443 10.1211 96.778V91.6999C10.1211 86.0827 13.2734 80.8719 18.1523 78.4229C18.164 78.419 18.1757 78.4111 18.1875 78.4072L36.3244 70.1025C37.0862 69.5713 37.5354 68.6923 37.5354 67.7392V64.1923C37.5354 63.6259 37.9963 63.165 38.5626 63.165C39.129 63.165 39.59 63.626 39.59 64.1923V67.7392C39.59 69.4111 38.7696 70.954 37.3946 71.8603C37.3517 71.8877 37.3048 71.915 37.2579 71.9385L19.0629 80.2705C14.8832 82.3799 12.1801 86.8643 12.1801 91.7045V95.7553H78.8171V91.7045C78.8171 86.8647 76.1179 82.3803 71.9343 80.2705L53.7393 71.9346C53.6885 71.9111 53.6378 71.8838 53.5909 71.8525C52.2237 70.9228 51.4073 69.3877 51.4073 67.7392V64.2939C51.4073 63.7275 51.8682 63.2666 52.4346 63.2666C53.0009 63.2666 53.4619 63.7276 53.4619 64.2939V67.7392C53.4619 68.6924 53.9033 69.5517 54.6807 70.1064L72.8097 78.4111C72.8214 78.415 72.8331 78.4228 72.8448 78.4268C77.7237 80.876 80.8761 86.0909 80.8761 91.7038V96.7819C80.8761 97.0553 80.7667 97.317 80.5753 97.5084C80.3839 97.6998 80.1221 97.8092 79.8487 97.8092L79.8394 97.8053Z" fill="#B1A489"/>
<path fill-rule="evenodd" clip-rule="evenodd" d="M41.3163 97.8053C41.2577 97.8053 41.1991 97.8014 41.1366 97.7897C40.578 97.692 40.203 97.1608 40.3006 96.6022L42.3983 84.5902L40.9413 79.891C40.7734 79.348 41.078 78.7738 41.6171 78.6058C42.1601 78.4378 42.7343 78.7425 42.9023 79.2816L44.4335 84.2191C44.4804 84.3753 44.4921 84.5394 44.4648 84.6995L42.3242 96.9575C42.2382 97.4575 41.8046 97.8091 41.3125 97.8091L41.3163 97.8053Z" fill="#B1A489"/>
<path fill-rule="evenodd" clip-rule="evenodd" d="M49.6555 97.8048C49.1594 97.8048 48.7219 97.4454 48.6399 96.9376L46.7024 84.6796C46.679 84.5312 46.6868 84.3788 46.7298 84.2304L48.1595 79.3359C48.3196 78.789 48.89 78.4765 49.4329 78.6367C49.9798 78.7968 50.2923 79.3671 50.1321 79.9101L48.7688 84.5859L50.6711 96.6169C50.7609 97.1794 50.3781 97.7028 49.8156 97.7927C49.7609 97.8005 49.7063 97.8048 49.6555 97.8048Z" fill="#B1A489"/>
<path fill-rule="evenodd" clip-rule="evenodd" d="M38.3157 82.941C38.1751 82.941 38.0345 82.9254 37.8938 82.898C37.2767 82.773 36.7572 82.3824 36.4603 81.8238L31.3822 73.6363C31.0814 73.1559 31.2298 72.5191 31.7142 72.2222C32.1947 71.9215 32.8314 72.0699 33.1283 72.5543L38.226 80.7731C38.2416 80.8004 38.2572 80.8278 38.2729 80.8551C38.2885 80.8864 38.3119 80.8825 38.3119 80.8825C38.3354 80.8629 38.3666 80.8395 38.3939 80.82L53.5699 70.1519C54.0348 69.8277 54.6754 69.9371 55.0035 70.4019C55.3316 70.8668 55.2184 71.5074 54.7535 71.8316L39.6085 82.4767C39.2375 82.7774 38.7804 82.9337 38.3117 82.9337L38.3157 82.941Z" fill="#B1A489"/>
<path fill-rule="evenodd" clip-rule="evenodd" d="M52.6956 82.9412C52.2269 82.9412 51.7737 82.785 51.4026 82.4842L36.2386 71.8392C35.7738 71.515 35.6605 70.8705 35.9886 70.4095C36.3167 69.9447 36.9574 69.8314 37.4183 70.1595L52.6133 80.8275C52.6367 80.847 52.6641 80.8627 52.6875 80.8861C52.6953 80.89 52.7227 80.8939 52.7344 80.8627C52.75 80.8353 52.7617 80.808 52.7813 80.7806L57.8594 72.5618C58.1563 72.0775 58.7891 71.929 59.2735 72.2298C59.7578 72.5267 59.9063 73.1595 59.6094 73.6439L54.5508 81.8314C54.2539 82.3861 53.7344 82.7767 53.1172 82.9056C52.9766 82.9329 52.836 82.9486 52.6953 82.9486L52.6956 82.9412Z" fill="#B1A489"/>
<path fill-rule="evenodd" clip-rule="evenodd" d="M22.039 97.8046C21.4726 97.8046 21.0117 97.3437 21.0117 96.7773V91.0859C21.0117 90.5195 21.4727 90.0586 22.039 90.0586C22.6054 90.0586 23.0663 90.5195 23.0663 91.0859V96.7773C23.0663 97.3437 22.6054 97.8046 22.039 97.8046Z" fill="#B1A489"/>
<path fill-rule="evenodd" clip-rule="evenodd" d="M68.9726 97.8046C68.4062 97.8046 67.9453 97.3437 67.9453 96.7773V91.0859C67.9453 90.5195 68.4063 90.0586 68.9726 90.0586C69.539 90.0586 69.9999 90.5195 69.9999 91.0859V96.7773C69.9999 97.3437 69.539 97.8046 68.9726 97.8046Z" fill="#B1A489"/>
<path fill-rule="evenodd" clip-rule="evenodd" d="M51.1687 38.2107C51.1726 38.2146 51.1765 38.2224 51.1804 38.2263C51.1765 38.2224 51.1726 38.2185 51.1687 38.2107ZM32.5707 52.1169C32.7387 55.4841 34.2152 58.8161 36.6215 61.2614C37.3403 62.0154 38.1723 62.6872 39.1059 63.2731C41.0903 64.5192 43.3364 65.1754 45.5981 65.1754C47.7895 65.1754 49.9653 64.5583 51.8989 63.3863C55.8012 61.0308 58.3677 56.7301 58.602 52.1563L58.3911 42.9336C55.2505 42.875 52.727 40.2227 51.5044 38.6524C44.6763 43.3204 35.8054 43.2149 32.4024 42.961L32.5743 52.1094L32.5707 52.1169ZM45.5937 67.2339C42.9453 67.2339 40.3242 66.4683 38.0117 65.0151C36.9336 64.3394 35.9687 63.5581 35.1406 62.6909C32.3554 59.8589 30.707 56.1284 30.5156 52.2029V52.1717L30.332 42.4022V42.3827C30.332 41.9647 30.5078 41.5584 30.8164 41.2733C31.125 40.9842 31.543 40.8397 31.9648 40.867C31.9726 40.867 31.9804 40.867 31.9882 40.8709C33.9062 41.0506 43.8082 41.6951 50.7342 36.6873C51.0428 36.449 51.4452 36.3475 51.8358 36.4022C52.246 36.4607 52.6132 36.6873 52.8475 37.0193C53.539 37.9725 56.0389 41.1052 58.8123 40.867C58.867 40.8631 58.9217 40.8631 58.9725 40.867C59.7889 40.9256 60.4295 41.5897 60.4373 42.3865L60.66 52.1482V52.2225C60.4022 57.4842 57.453 62.4335 52.9647 65.1485C50.7147 66.5118 48.1678 67.2344 45.6014 67.2344L45.5937 67.2339Z" fill="#B1A489"/>
<path fill-rule="evenodd" clip-rule="evenodd" d="M47.7187 85.5468H43.457C42.8906 85.5468 42.4297 85.0858 42.4297 84.5195C42.4297 83.9531 42.8906 83.4922 43.457 83.4922H47.7187C48.2851 83.4922 48.746 83.9531 48.746 84.5195C48.746 85.0859 48.285 85.5468 47.7187 85.5468Z" fill="#B1A489"/>
<path fill-rule="evenodd" clip-rule="evenodd" d="M82.8599 45.1643C74.6099 45.1643 67.8949 49.6916 67.8949 55.2543C67.8949 58.6645 70.4417 61.8285 74.7073 63.7152C75.1644 63.9183 75.4105 64.4183 75.2894 64.9066C75.2542 65.0433 74.637 67.4183 72.8363 69.598C74.973 69.1215 77.8246 68.0433 80.1332 65.6019C80.3402 65.3793 80.641 65.266 80.9418 65.2816C81.6019 65.3207 82.227 65.3402 82.8598 65.3402C91.1098 65.3402 97.8208 60.8129 97.8208 55.2502C97.8208 49.6875 91.1099 45.1602 82.8598 45.1602L82.8599 45.1643ZM69.8398 72.0273C69.7383 72.0273 69.6719 72.0273 69.6484 72.0234C69.1914 72.0078 68.8008 71.6953 68.6875 71.2539C68.5742 70.8125 68.7656 70.3476 69.1563 70.1172C71.4063 68.7734 72.5586 66.4219 73.0313 65.1953C68.5118 62.9219 65.8438 59.2578 65.8438 55.2539C65.8438 51.9375 67.6641 48.8477 70.9688 46.5508C74.1602 44.332 78.3829 43.1094 82.8638 43.1094C87.3404 43.1094 91.5668 44.3321 94.7587 46.5508C98.0634 48.8477 99.8837 51.9375 99.8837 55.2539C99.8837 58.5703 98.0634 61.6601 94.7587 63.957C91.5673 66.1758 87.3447 67.3945 82.8638 67.3945C82.3442 67.3945 81.8247 67.3828 81.2935 67.3554C76.8169 71.7968 70.9845 72.0234 69.8405 72.0234L69.8398 72.0273Z" fill="#B1A489"/>
<path fill-rule="evenodd" clip-rule="evenodd" d="M90.5074 53.4648H75.2304C74.664 53.4648 74.2031 53.0038 74.2031 52.4375C74.2031 51.8711 74.6641 51.4102 75.2304 51.4102H90.5074C91.0777 51.4102 91.5347 51.8711 91.5347 52.4375C91.5347 53.0038 91.0777 53.4648 90.5074 53.4648Z" fill="#B1A489"/>
<path fill-rule="evenodd" clip-rule="evenodd" d="M90.5074 59.1132H75.2304C74.664 59.1132 74.2031 58.6523 74.2031 58.0859C74.2031 57.5195 74.6641 57.0586 75.2304 57.0586H90.5074C91.0777 57.0586 91.5347 57.5195 91.5347 58.0859C91.5347 58.6523 91.0777 59.1132 90.5074 59.1132Z" fill="#B1A489"/>
</svg>
