<svg width="110" height="135" viewBox="0 0 110 135" fill="none" xmlns="http://www.w3.org/2000/svg">
<path fill-rule="evenodd" clip-rule="evenodd" d="M79.2036 55.492C79.1645 55.5154 79.1216 55.5389 79.0786 55.5545L74.8481 57.6834L78.8481 65.6287L83.5747 75.0115L83.5864 75.0349L83.8716 75.5974L91.1607 71.9255L82.1373 54.0075L79.2036 55.492ZM37.3836 57.6678C37.6336 57.1756 37.4344 56.574 36.9422 56.328L32.3094 53.996L32.3055 31.008H39.1024C39.6571 31.008 40.1024 30.5588 40.1024 30.008V23.2111H76.1224C76.556 23.2111 76.9505 23.3869 77.2318 23.6721L77.2357 23.676C77.5169 23.9572 77.6927 24.3517 77.6927 24.7854V54.0234L73.0599 56.3554C72.5677 56.6054 72.3724 57.203 72.6185 57.6952L73.0873 58.6209L68.8998 59.5741C68.5951 59.6092 68.306 59.5975 68.0326 59.5389C67.767 59.4842 67.513 59.3787 67.2748 59.2264L64.0404 57.0233C63.5951 56.66 63.1497 56.3749 62.6966 56.1717C62.2044 55.953 61.7161 55.8358 61.2239 55.8202C59.0286 55.7889 56.5598 55.8905 54.4036 55.7577C53.884 55.746 53.3997 55.8085 52.9466 55.9413C52.4778 56.078 52.0481 56.2889 51.6575 56.5741L51.595 56.6249L51.2668 56.91L48.5324 56.1678C48.4231 56.1366 48.3137 56.1288 48.2043 56.1366C47.7278 56.1366 47.216 56.2616 46.6731 56.5077C46.1614 56.7381 45.6028 57.0858 45.0012 57.5468C44.9544 57.5858 44.9075 57.6249 44.8684 57.6679C43.4465 59.1327 42.1106 59.664 40.7668 59.6288C39.5871 59.5975 38.3293 59.1405 36.9699 58.4804L37.3836 57.6678ZM36.0789 60.2576C37.6727 61.035 39.1883 61.5779 40.7195 61.617C42.6062 61.6717 44.4226 60.9803 46.2742 59.0858C46.7312 58.7421 47.1414 58.4843 47.5008 58.3241C47.7547 58.2108 47.9696 58.1444 48.1414 58.1288L49.4383 58.4803L41.368 65.41C41.2665 65.4921 41.1766 65.5975 41.1102 65.7225C40.6493 66.5975 40.6297 67.4139 41.0555 68.1678C41.4071 68.7928 42.0711 69.3162 43.0399 69.7225C43.1063 69.7538 43.1766 69.7772 43.2509 69.7968C44.204 70.0155 45.2079 70.0741 46.2587 69.9765C47.2978 69.8788 48.3681 69.6327 49.4775 69.2343C49.9697 69.078 50.5361 68.8436 51.1728 68.5272C51.6532 68.2889 52.1884 67.996 52.7744 67.6522L76.4304 81.3122C76.8952 81.5974 77.2077 82.0427 77.3444 82.5427C77.4772 83.0349 77.4304 83.57 77.1804 84.0466C77.1569 84.0818 77.1335 84.1208 77.114 84.1599C76.8288 84.6208 76.3835 84.9372 75.8874 85.0662C75.3913 85.199 74.8483 85.1521 74.3718 84.8943C74.3366 84.8708 74.3014 84.8474 74.2624 84.8318L68.071 81.2576C67.5944 80.9841 66.9851 81.1482 66.7077 81.6248C66.4303 82.1013 66.5944 82.7107 67.071 82.9881L71.3366 85.449C71.7858 85.7341 72.0905 86.1755 72.2194 86.6599C72.3561 87.1755 72.3014 87.738 72.0163 88.2263L72.0123 88.2341C71.7311 88.7185 71.2702 89.0505 70.7623 89.1872C70.2467 89.3239 69.6842 89.2692 69.192 88.9841L66.4303 87.3903L62.9381 85.3747L62.9147 85.363C62.4381 85.0895 61.8288 85.2536 61.5553 85.7301C61.2819 86.2067 61.4459 86.8161 61.9225 87.0896L61.9459 87.1013L61.9772 87.1208L65.4303 89.1169C65.9225 89.3981 66.2506 89.8591 66.3912 90.3747C66.5279 90.8903 66.4733 91.4528 66.1881 91.945C65.9069 92.4333 65.4459 92.7614 64.9342 92.8981C64.4186 93.0349 63.8561 92.9802 63.3678 92.695L58.3522 89.7966L58.2936 89.7654L57.8288 89.4958C57.3522 89.2224 56.7429 89.3864 56.4694 89.863C56.1959 90.3396 56.36 90.9489 56.8366 91.2224L57.3014 91.4919L57.3522 91.5232L59.86 92.9724C60.317 93.2536 60.6256 93.699 60.7584 94.1951C60.8951 94.7107 60.8405 95.2732 60.5553 95.7654C60.274 96.2537 59.8131 96.5818 59.2975 96.7185C58.7858 96.8552 58.2194 96.8005 57.7311 96.5154C56.2975 95.742 54.8209 94.867 53.3913 94.0193L54.8757 91.4451C55.4109 90.5193 55.5202 89.4607 55.2624 88.4998C55.0124 87.574 54.4226 86.7342 53.5476 86.1951C53.489 86.1521 53.4265 86.117 53.3601 86.0857C52.6023 85.6756 51.7585 85.5467 50.9617 85.6599C50.9617 85.3123 50.9188 84.9685 50.8289 84.6365C50.575 83.6834 49.9578 82.8279 49.0398 82.2888L49.0203 82.2771C48.2703 81.8435 47.4344 81.6912 46.6336 81.7849C46.6648 81.3279 46.618 80.8709 46.5008 80.4333C46.2352 79.4372 45.5984 78.5388 44.6531 77.9606C44.6023 77.9216 44.5476 77.8903 44.489 77.8669C43.5125 77.3278 42.4109 77.2263 41.407 77.4919C40.9695 77.6091 40.5476 77.7966 40.1648 78.0544C39.8601 77.3434 39.3367 76.7185 38.6336 76.2849C38.575 76.2419 38.5125 76.2068 38.4461 76.1755C37.5399 75.6872 36.5242 75.5974 35.5984 75.8435C34.6609 76.0935 33.8172 76.695 33.2781 77.5818C33.2508 77.6208 33.2234 77.6677 33.2039 77.7107L32.6062 78.7459C31.8523 76.8748 30.5124 76.074 28.6179 75.0506L36.0789 60.2576ZM27.7273 76.8396L27.4617 77.367C27.2117 77.8591 26.614 78.0545 26.1219 77.8084L17.0516 73.242C16.5594 72.992 16.3641 72.3943 16.6102 71.9022L26.5282 52.2032C26.7782 51.711 27.3758 51.5157 27.868 51.7618L30.3055 52.9883V29.9024L30.3133 29.8867V29.8516L30.3172 29.8399V29.8086L30.3211 29.7969V29.7734L30.3484 29.6914L30.3523 29.6836L30.3563 29.6719L30.3602 29.6641L30.3641 29.6524V29.6484L30.368 29.6406L30.3719 29.6289L30.3758 29.6211L30.3797 29.6094L30.3836 29.6016L30.3875 29.5899L30.3914 29.582L30.3992 29.5703L30.4031 29.5625L30.4109 29.5508L30.4148 29.543L30.4383 29.5078L30.4461 29.5L30.4773 29.4531L30.4852 29.4453L30.493 29.4336L30.5008 29.4258L30.5086 29.4141L30.5164 29.4063V29.4024L30.5242 29.3945L30.5281 29.3867L30.532 29.3828V29.375L30.5555 29.3516L30.5633 29.3359V29.332L38.3719 21.5234L38.3797 21.5195L38.3914 21.5078L38.3992 21.5039L38.4109 21.4922L38.4188 21.4883L38.4344 21.4727L38.4383 21.4609L38.4617 21.4375H38.4656L38.5359 21.3672L38.5594 21.3516L38.5672 21.3437L38.5789 21.3359L38.5867 21.332L38.5984 21.3242L38.6258 21.3281L38.6375 21.3203L38.6453 21.3164H38.6492L38.6609 21.3086L38.6688 21.3047H38.6727L38.6844 21.3008L38.6922 21.2969H38.6961L38.7078 21.293L38.7156 21.2891H38.7195L38.7313 21.2852L38.7391 21.2812H38.743L38.7547 21.2773L38.7625 21.2734H38.7703L38.782 21.2695L38.7899 21.2656H38.7977L38.8094 21.2617H38.8172L38.8367 21.2539H38.8484L38.8602 21.25H38.8719L38.8836 21.2461H38.8875L38.907 21.2422H38.9109L38.9344 21.2383H38.9461L38.9695 21.2344H39.0086L39.0008 21.2148H39.0242C39.0477 21.2109 39.075 21.2109 39.1024 21.2109H76.1224C77.1028 21.2109 77.9935 21.6094 78.6419 22.2578L78.6458 22.2617C79.2942 22.9102 79.6966 23.8047 79.6966 24.7851V53.0151L82.1341 51.7885C82.6262 51.5385 83.2279 51.7378 83.4739 52.23L93.3919 71.929C93.6419 72.4211 93.4426 73.0228 92.9504 73.2688L83.8801 77.8352C83.388 78.0852 82.7864 77.8859 82.5404 77.3937L82.2239 76.7609C81.2747 77.218 80.4583 77.7414 79.7669 78.3312C79.1263 78.882 78.595 79.4914 78.1771 80.1593C78.7162 80.6789 79.0912 81.3312 79.2787 82.0304C79.5405 83.0109 79.4389 84.089 78.9116 85.046L78.8764 85.1164C78.3178 86.0851 77.4155 86.7335 76.4076 87.0069C75.724 87.1866 74.9896 87.1905 74.2865 86.9991C74.3216 87.7257 74.1654 88.4757 73.7904 89.1553C73.767 89.2022 73.7396 89.2491 73.7084 89.296C73.1459 90.2256 72.2631 90.8545 71.2826 91.1162C70.3685 91.3623 69.3685 91.2881 68.4623 90.8506C68.4701 91.5577 68.2982 92.2803 67.9193 92.9365C67.3568 93.9092 66.4545 94.5615 65.4545 94.8271C64.6068 95.0537 63.685 95.0068 62.8334 94.6513C62.849 95.3662 62.6772 96.0966 62.2904 96.7607C61.7279 97.7334 60.8256 98.3857 59.8256 98.6513C58.8217 98.9209 57.7123 98.8076 56.7436 98.2451C55.3491 97.3857 53.8452 96.542 52.3881 95.7217C51.853 96.4326 51.1069 96.917 50.2904 97.1358C49.3334 97.3936 48.2748 97.2842 47.349 96.7491L47.3217 96.7334C46.4076 96.1944 45.7905 95.339 45.5365 94.3896C45.5209 94.3232 45.5013 94.2568 45.4896 94.1904C45.4232 94.2139 45.3568 94.2295 45.2943 94.249C44.3685 94.499 43.349 94.4053 42.4427 93.9131C42.3841 93.8896 42.3294 93.8584 42.2786 93.8193C41.388 93.2803 40.7903 92.4365 40.5403 91.499C40.513 91.3975 40.4896 91.292 40.47 91.1865C40.3997 91.21 40.3333 91.2295 40.2669 91.249C39.2708 91.5146 38.1771 91.4131 37.2044 90.8857C37.138 90.8584 37.0755 90.8232 37.0208 90.7803C36.0755 90.2022 35.4427 89.3037 35.1731 88.3076C35.1536 88.2373 35.138 88.1709 35.1223 88.1006C35.0208 88.1357 34.9192 88.1709 34.8177 88.1982C33.8919 88.4482 32.8724 88.3545 31.97 87.8623C31.9035 87.831 31.8371 87.7959 31.7825 87.7529C30.9075 87.2138 30.3137 86.374 30.0677 85.4482C29.8098 84.4912 29.9192 83.4326 30.4544 82.5029L31.1927 81.2256C30.8177 78.6592 29.6413 77.8786 27.7273 76.8396ZM26.1296 75.5779L26.4694 74.9021C29.3053 69.1209 32.2585 63.4021 35.1491 57.6601L30.9186 55.5312C30.8757 55.5117 30.8327 55.4922 30.7936 55.4687L27.86 53.9921L18.8366 71.9101L26.1296 75.5779ZM53.2666 65.6404C52.9307 65.449 52.5322 65.4724 52.2275 65.6678C51.5244 66.0935 50.8759 66.4529 50.2939 66.742C49.7392 67.0154 49.2587 67.2185 48.8486 67.3435L48.8095 67.3552C47.8408 67.7029 46.9345 67.9138 46.0829 67.9959C45.2744 68.0701 44.5048 68.031 43.7743 67.8709C43.2509 67.6482 42.9267 67.4216 42.7978 67.1912C42.7431 67.0935 42.747 66.9646 42.8095 66.8005L52.1181 58.8083C52.1533 58.781 52.1884 58.7537 52.2197 58.7224L52.8603 58.1755C53.0634 58.031 53.2822 57.9255 53.5204 57.8552C53.7822 57.7771 54.0673 57.7419 54.3759 57.7497L61.1806 57.8122C61.4033 57.8201 61.6416 57.8787 61.8955 57.9919C62.1806 58.1169 62.4814 58.3162 62.8095 58.5857C62.8447 58.613 62.8798 58.6404 62.9189 58.6638L66.2001 60.8982C66.6454 61.1834 67.1259 61.3826 67.6376 61.488C68.1337 61.5935 68.661 61.6091 69.2118 61.5388L69.3055 61.5232L74.0086 60.4294L81.325 74.9604C80.3172 75.4799 79.2078 76.187 78.4773 76.812C77.6922 77.4839 77.0398 78.2339 76.5203 79.0542L53.2666 65.6404ZM51.165 93.9174L51.1845 93.8783L51.2002 93.851L53.1611 90.4565C53.4189 90.0112 53.4697 89.4917 53.3447 89.0229C53.2197 88.5541 52.9189 88.1362 52.4775 87.8784L52.4696 87.8745C52.0243 87.6167 51.5048 87.5659 51.036 87.6909C50.579 87.8159 50.1689 88.1011 49.911 88.5268L47.6532 92.4448L47.6337 92.4761C47.3915 92.9136 47.3447 93.4175 47.4697 93.8745C47.5907 94.3198 47.8681 94.7261 48.2782 94.9839C48.3251 95.0073 48.3681 95.0308 48.4111 95.062C48.8407 95.2886 49.3329 95.3276 49.7783 95.2105C50.247 95.0855 50.6689 94.7808 50.9267 94.3355L51.165 93.9174ZM48.0986 84.0502C48.0556 84.0268 48.0127 84.0033 47.9697 83.976C47.54 83.7494 47.0478 83.7104 46.6025 83.8275C46.1494 83.9486 45.7392 84.2338 45.4775 84.6557C44.6025 86.1713 43.747 87.7104 42.8486 89.2104L42.6494 89.5541C42.3916 89.9994 42.3408 90.5151 42.4658 90.9838C42.5869 91.4369 42.872 91.8432 43.2939 92.101L43.4033 92.1674C43.833 92.394 44.3252 92.433 44.7705 92.3159C45.2236 92.1948 45.6338 91.9096 45.8955 91.4877L48.7236 86.5893C48.9814 86.144 49.0322 85.6284 48.9072 85.1596C48.79 84.7143 48.5088 84.312 48.0986 84.0502ZM35.5326 85.2494L35.5873 85.1557L38.2514 80.5463C38.5092 80.101 38.56 79.5853 38.435 79.1166C38.31 78.6478 38.0131 78.2338 37.5756 77.976L37.5639 77.9682C37.1186 77.7103 36.599 77.6596 36.1303 77.7846C35.6654 77.9096 35.2475 78.2103 34.9858 78.6518C34.0522 80.2729 33.1147 81.894 32.1811 83.5112C31.9233 83.9565 31.8725 84.4721 31.9975 84.9409C32.1225 85.4096 32.4233 85.8276 32.8647 86.0853L32.8725 86.0892C33.3178 86.3471 33.8373 86.3978 34.31 86.2728C34.7631 86.1517 35.1733 85.8666 35.4311 85.4447L35.5326 85.2494ZM44.5795 80.9564C44.4389 80.433 44.1108 79.9642 43.6225 79.6673L43.5756 79.64C43.0639 79.3431 42.474 79.2845 41.935 79.429C41.4116 79.5696 40.9428 79.8978 40.6459 80.39L37.3178 86.1556C37.0209 86.6673 36.9623 87.2572 37.1069 87.7962C37.2514 88.3313 37.5951 88.8118 38.1029 89.1087L38.1108 89.1126C38.6264 89.4095 39.2163 89.468 39.7553 89.3235C40.2826 89.1829 40.7592 88.843 41.0561 88.343L41.0639 88.3196L43.728 83.7102L44.3686 82.6008C44.6616 82.0852 44.7201 81.4915 44.5795 80.9564ZM39.4818 48.3974H70.5208C71.0716 48.3974 71.5208 47.9482 71.5208 47.3974C71.5208 46.8466 71.0716 46.3974 70.5208 46.3974H39.4818C38.931 46.3974 38.4818 46.8466 38.4818 47.3974C38.4818 47.9521 38.931 48.3974 39.4818 48.3974ZM39.4818 41.5927H70.5208C71.0716 41.5927 71.5208 41.1435 71.5208 40.5927C71.5208 40.0419 71.0716 39.5927 70.5208 39.5927H39.4818C38.931 39.5927 38.4818 40.0419 38.4818 40.5927C38.4818 41.1435 38.931 41.5927 39.4818 41.5927ZM48.1263 34.7841H70.5213C71.0721 34.7841 71.5213 34.3349 71.5213 33.7841C71.5213 33.2333 71.0721 32.7841 70.5213 32.7841H48.1263C47.5755 32.7841 47.1263 33.2333 47.1263 33.7841C47.1263 34.3349 47.5755 34.7841 48.1263 34.7841ZM38.1033 24.6241L33.7205 29.0069H38.1033V24.6241Z" fill="white"/>
</svg>
