<svg width="17" height="16" viewBox="0 0 17 16" fill="none" xmlns="http://www.w3.org/2000/svg">
<g clip-path="url(#clip0_500_1933)">
<path fill-rule="evenodd" clip-rule="evenodd" d="M14.0081 2.95331C14.1831 2.88397 14.3747 2.86006 14.5629 2.88405C14.7511 2.90805 14.929 2.97909 15.0781 3.08977C15.2273 3.20044 15.3421 3.34672 15.4108 3.51337C15.4795 3.68001 15.4995 3.86094 15.4686 4.03731L13.8621 13.2086C13.7063 14.0933 12.675 14.6006 11.8129 14.16C11.0918 13.7913 10.0208 13.2233 9.05751 12.6306C8.57585 12.334 7.10039 11.384 7.28172 10.708C7.43756 10.13 9.91672 7.95798 11.3334 6.66664C11.8894 6.15931 11.6358 5.86664 10.9792 6.33331C9.34864 7.49198 6.73064 9.25398 5.86506 9.74998C5.10147 10.1873 4.70339 10.262 4.22739 10.1873C3.35897 10.0513 2.5536 9.84064 1.89626 9.58398C1.00801 9.23731 1.05122 8.08798 1.89556 7.75331L14.0081 2.95331Z" fill="white"/>
</g>
<defs>
<clipPath id="clip0_500_1933">
<rect width="17" height="16" fill="white"/>
</clipPath>
</defs>
</svg>
