<svg width="26" height="26" viewBox="0 0 26 26" fill="none" xmlns="http://www.w3.org/2000/svg">
<g clip-path="url(#clip0_500_1940)">
<path d="M16.7408 9.99454L16.9737 9.69121C17.1331 9.45216 17.381 9.28625 17.6628 9.22997C17.9446 9.17369 18.2372 9.23166 18.4763 9.39112C18.7153 9.55058 18.8812 9.79848 18.9375 10.0803C18.9938 10.3621 18.9358 10.6547 18.7763 10.8937C18.3179 11.5588 17.7851 12.1694 17.1882 12.7137C17.0336 12.8565 16.8746 12.9945 16.7115 13.1275C17.901 13.7602 18.8673 14.7309 19.3852 15.7665C19.454 15.8942 19.4965 16.0345 19.5102 16.1789C19.5238 16.3234 19.5083 16.4691 19.4646 16.6074C19.4208 16.7457 19.3497 16.8739 19.2555 16.9842C19.1613 17.0945 19.0459 17.1848 18.9161 17.2497C18.7864 17.3146 18.6449 17.3527 18.5001 17.3619C18.3553 17.3711 18.2101 17.3511 18.0732 17.3031C17.9363 17.2551 17.8104 17.18 17.7031 17.0825C17.5957 16.9849 17.509 16.8667 17.4482 16.735C16.9531 15.747 15.6715 14.7807 14.3108 14.5825L14.0833 14.5575V16.2508C14.0833 16.5381 13.9692 16.8137 13.766 17.0168C13.5629 17.22 13.2873 17.3341 13 17.3341C9.21917 17.3341 6.5 14.2271 6.5 10.2925C6.5 10.0051 6.61414 9.72959 6.8173 9.52642C7.02047 9.32326 7.29602 9.20912 7.58333 9.20912C7.87065 9.20912 8.1462 9.32326 8.34937 9.52642C8.55253 9.72959 8.66667 10.0051 8.66667 10.2925C8.66667 12.3226 9.72617 14.2997 11.6946 14.9616L11.9167 15.0299V10.2925C11.9167 9.67604 12.4128 9.24271 13 9.20912C13.2441 9.20893 13.4812 9.2912 13.6727 9.44261C13.8642 9.59402 13.999 9.80569 14.0552 10.0433L14.0768 10.1657L14.0844 12.224C14.6218 12.0009 15.1732 11.625 15.7181 11.1212C16.0951 10.7745 16.4266 10.3932 16.7408 9.99454Z" fill="white"/>
</g>
<defs>
<clipPath id="clip0_500_1940">
<rect width="26" height="26" fill="white"/>
</clipPath>
</defs>
</svg>
