<svg width="16" height="16" viewBox="0 0 16 16" fill="none" xmlns="http://www.w3.org/2000/svg">
<path d="M10.0244 4H1V13.7369H3.51175V10.5692H8.32475L10.5208 13.7369H13.3333L10.9118 10.5546C11.6638 10.4378 12.2053 10.1604 12.5362 9.7225C12.867 9.28458 13.0325 8.58383 13.0325 7.64958V6.91967C13.0325 6.36492 12.9724 5.927 12.8671 5.59125C12.7618 5.2555 12.5813 4.9635 12.3256 4.70075C12.0548 4.45258 11.7541 4.27742 11.3931 4.16067C11.0321 4.0585 10.5808 4 10.0244 4ZM9.61833 8.42333H3.51175V6.14592H9.61833C9.96417 6.14592 10.2048 6.20425 10.3252 6.3065C10.4455 6.40867 10.5208 6.59842 10.5208 6.87583V7.69333C10.5208 7.98525 10.4455 8.175 10.3252 8.27717C10.2048 8.37933 9.96425 8.42317 9.61833 8.42317V8.42333Z" stroke="white" stroke-linecap="round" stroke-linejoin="round"/>
<path d="M13.6616 3.63151C14.1216 3.63151 14.4948 3.25843 14.4948 2.79818C14.4948 2.33793 14.1216 1.96484 13.6616 1.96484C13.2013 1.96484 12.8281 2.33793 12.8281 2.79818C12.8281 3.25843 13.2013 3.63151 13.6616 3.63151Z" fill="white"/>
</svg>
