<svg width="26" height="27" viewBox="0 0 26 27" fill="none" xmlns="http://www.w3.org/2000/svg">
<path d="M25.4262 12.9021C25.4285 12.9021 25.4302 12.9021 25.4325 12.9021C25.5908 12.9021 25.7418 12.8331 25.8491 12.7123C25.958 12.5897 26.0119 12.4252 25.9978 12.259C25.4279 5.74999 20.4657 0.594863 14.1975 0.00189949C14.0386 -0.0110679 13.8786 0.04257 13.7605 0.156329C13.6425 0.269499 13.5766 0.429234 13.5783 0.596042C13.6771 9.24647 14.7759 12.7813 25.4262 12.9021ZM25.4262 14.0975C14.7759 14.2183 13.6777 17.7531 13.5789 26.4035C13.5772 26.5703 13.643 26.73 13.7611 26.8432C13.8667 26.944 14.0046 27 14.1465 27C14.1635 27 14.1811 26.9994 14.1981 26.9976C20.4663 26.4047 25.4285 21.2501 25.9978 14.7405C26.0119 14.5743 25.9586 14.4098 25.8491 14.2872C25.7395 14.1646 25.5868 14.1039 25.4262 14.0975ZM11.7644 0.00484669C5.51611 0.614903 0.569795 5.76885 0.00279954 12.2602C-0.0113895 12.4264 0.0419614 12.5909 0.151501 12.7135C0.25877 12.8343 0.41031 12.9027 0.568092 12.9027C0.570363 12.9027 0.572633 12.9027 0.574903 12.9027C11.19 12.776 12.286 9.24293 12.3859 0.598399C12.3876 0.431592 12.3212 0.271268 12.2031 0.158098C12.0839 0.0449277 11.9245 -0.0104784 11.7644 0.00484669ZM0.574336 14.0969C0.397823 14.0762 0.259338 14.1635 0.150934 14.2861C0.0419615 14.4087 -0.0119571 14.5731 0.00223202 14.7393C0.569227 21.2307 5.51611 26.3846 11.7644 26.9947C11.782 26.9965 11.8002 26.9971 11.8178 26.9971C11.9596 26.9971 12.097 26.9416 12.2026 26.8409C12.3206 26.7277 12.387 26.5674 12.3853 26.4006C12.2854 17.7566 11.19 14.2236 0.574336 14.0969Z" fill="white"/>
</svg>
