<svg width="122" height="54" viewBox="0 0 122 54" fill="none" xmlns="http://www.w3.org/2000/svg">
<g clip-path="url(#clip0_387_24)">
<path d="M51.3203 50.8785V35.9267H54.5515V41.8521H54.8765L57.0245 35.9267H60.2377L57.5661 42.9411L60.328 50.8785H57.0065L54.8765 44.3625H54.5515V50.8785H51.3203ZM65.7843 50.9154C64.6892 50.9154 63.8227 50.7185 63.1849 50.3248C62.547 49.931 62.0898 49.3649 61.813 48.6265C61.5362 47.8881 61.3978 47.0083 61.3978 45.9869V40.4307C61.3978 39.397 61.5362 38.5171 61.813 37.7911C62.0898 37.065 62.547 36.5113 63.1849 36.1298C63.8227 35.7359 64.6892 35.5391 65.7843 35.5391C66.8914 35.5391 67.764 35.7359 68.4018 36.1298C69.0516 36.5113 69.515 37.065 69.7917 37.7911C70.0685 38.5171 70.2069 39.397 70.2069 40.4307V45.9869C70.2069 47.0083 70.0685 47.8881 69.7917 48.6265C69.515 49.3649 69.0516 49.931 68.4018 50.3248C67.764 50.7185 66.8914 50.9154 65.7843 50.9154ZM65.7843 48.5712C66.1213 48.5712 66.368 48.485 66.5244 48.3128C66.6809 48.1404 66.7832 47.9189 66.8313 47.6482C66.8794 47.3774 66.9035 47.1005 66.9035 46.8176V39.6186C66.9035 39.3231 66.8794 39.0463 66.8313 38.7878C66.7832 38.5171 66.6809 38.2957 66.5244 38.1234C66.368 37.951 66.1213 37.8649 65.7843 37.8649C65.4714 37.8649 65.2367 37.951 65.0804 38.1234C64.9239 38.2957 64.8216 38.5171 64.7734 38.7878C64.7253 39.0463 64.7012 39.3231 64.7012 39.6186V46.8176C64.7012 47.1005 64.7192 47.3774 64.7553 47.6482C64.8036 47.9189 64.8998 48.1404 65.0442 48.3128C65.2007 48.485 65.4473 48.5712 65.7843 48.5712ZM73.4911 50.6939V38.1972H71.2889V35.7421H78.9246V38.1972H76.7404V50.6939H73.4911ZM81.5298 50.6939V38.1972H79.3274V35.7421H86.9632V38.1972H84.779V50.6939H81.5298ZM88.2505 50.6939V35.7421H94.8212V37.9942H91.4817V41.7044H94.0269V43.9933H91.4817V48.4604H94.8573V50.6939H88.2505ZM95.5661 53.9243V48.3312H95.9813C96.2581 48.245 96.5109 48.0973 96.7394 47.8881C96.9801 47.6666 97.1968 47.3713 97.3894 47.0021C97.5819 46.633 97.7561 46.1715 97.9133 45.6177C98.0694 45.064 98.2012 44.4055 98.3095 43.6425C98.4179 42.8673 98.5086 41.9751 98.5809 40.9661L98.9781 35.7421H105.784V48.3312H107.426V53.9243H105.296L105.134 50.6939H97.967L97.7864 53.9243H95.5661ZM99.0318 48.3312H102.769V38.0864H101.415L101.252 41.2983C101.193 42.3566 101.102 43.255 100.982 43.9933C100.873 44.7317 100.741 45.3469 100.585 45.8392C100.44 46.3191 100.284 46.713 100.115 47.0206C99.9463 47.3282 99.7657 47.5806 99.5735 47.7774C99.3929 47.9743 99.2123 48.1589 99.0318 48.3312ZM107.866 50.6939L110.934 43.1812L107.938 35.7421H110.953L113.498 42.7381H113.642V35.7421H116.205V42.7381H116.367L118.913 35.7421H121.928L118.931 43.1812L122 50.6939H119.112L116.367 43.4395H116.205V50.6939H113.642V43.4395H113.498L110.754 50.6939H107.866Z" fill="#B1A489"/>
<path d="M4.38653 51.0635C3.27936 51.0635 2.40086 50.8611 1.75094 50.4562C1.11313 50.0389 0.661923 49.4622 0.397134 48.726C0.132346 47.9775 0 47.1002 0 46.0939V40.7194C0 39.6887 0.132346 38.8052 0.397134 38.0689C0.661923 37.3205 1.11323 36.7437 1.75104 36.3388C2.40086 35.9338 3.27936 35.7314 4.38653 35.7314C5.4696 35.7314 6.31199 35.9155 6.91369 36.2836C7.5275 36.6394 7.96065 37.1426 8.21343 37.7929C8.46621 38.4433 8.59251 39.1918 8.59251 40.0384V41.3269H5.43339V39.836C5.43339 39.5415 5.41534 39.2592 5.37922 38.9892C5.35521 38.7193 5.27089 38.4984 5.12644 38.3267C4.98209 38.1426 4.73536 38.0506 4.38644 38.0506C4.04942 38.0506 3.79674 38.1426 3.62828 38.3267C3.47183 38.5107 3.36954 38.7438 3.32133 39.0261C3.28522 39.296 3.26726 39.5844 3.26726 39.8912V46.9038C3.26726 47.2351 3.29127 47.5419 3.33948 47.8241C3.3996 48.0941 3.50794 48.3149 3.66439 48.4867C3.83285 48.6463 4.07353 48.726 4.38644 48.726C4.72335 48.726 4.96403 48.6401 5.10848 48.4683C5.25293 48.2843 5.34311 48.0511 5.37922 47.7689C5.41534 47.4867 5.43339 47.1983 5.43339 46.9038V45.3393H8.59241V46.6277C8.59241 47.4744 8.46602 48.2352 8.21333 48.9101C7.97265 49.5726 7.54546 50.1003 6.93165 50.4929C6.32995 50.8733 5.48161 51.0635 4.38653 51.0635ZM11.6879 50.8427V38.3819H9.48565V35.9338H17.1214V38.3819H14.9372V50.8427H11.6879ZM18.4087 50.8427V35.9338H23.3187C24.1972 35.9338 24.9192 36.1057 25.4848 36.4492C26.0505 36.7806 26.4717 37.2714 26.7485 37.9217C27.0252 38.5598 27.1636 39.3389 27.1636 40.2593C27.1636 41.4128 26.9771 42.2962 26.6041 42.9097C26.231 43.511 25.7256 43.9282 25.0878 44.1614C24.4499 44.3945 23.7339 44.5111 22.9396 44.5111H21.6399V50.8427H18.4087ZM21.6399 42.2103H22.723C23.1202 42.2103 23.421 42.1367 23.6255 41.9894C23.8301 41.8422 23.9626 41.6213 24.0227 41.3269C24.0949 41.0324 24.131 40.658 24.131 40.204C24.131 39.8236 24.101 39.4924 24.0407 39.2101C23.9926 38.9156 23.8662 38.6825 23.6617 38.5107C23.4571 38.3389 23.1382 38.2531 22.705 38.2531H21.6399V42.2103ZM32.9093 51.0635C31.8141 51.0635 30.9477 50.8672 30.3099 50.4746C29.6721 50.0819 29.2147 49.5174 28.9379 48.7813C28.6611 48.045 28.5227 47.1676 28.5227 46.1492V40.609C28.5227 39.5782 28.6611 38.7009 28.9379 37.977C29.2147 37.253 29.6721 36.7008 30.3099 36.3204C30.9477 35.9278 31.8141 35.7314 32.9093 35.7314C34.0164 35.7314 34.8889 35.9278 35.5267 36.3204C36.1765 36.7008 36.6399 37.253 36.9167 37.977C37.1935 38.7009 37.3319 39.5782 37.3319 40.609V46.1492C37.3319 47.1676 37.1935 48.045 36.9167 48.7813C36.6399 49.5174 36.1765 50.0819 35.5267 50.4746C34.8889 50.8672 34.0164 51.0635 32.9093 51.0635ZM32.9093 48.726C33.2462 48.726 33.4929 48.6401 33.6494 48.4683C33.8058 48.2966 33.9081 48.0757 33.9562 47.8057C34.0043 47.5358 34.0284 47.2597 34.0284 46.9774V39.7991C34.0284 39.5046 34.0043 39.2285 33.9562 38.9709C33.9081 38.7009 33.8058 38.48 33.6494 38.3083C33.4929 38.1365 33.2462 38.0506 32.9093 38.0506C32.5963 38.0506 32.3617 38.1365 32.2053 38.3083C32.0488 38.48 31.9465 38.7009 31.8983 38.9709C31.8502 39.2285 31.8262 39.5046 31.8262 39.7991V46.9774C31.8262 47.2597 31.8442 47.5358 31.8804 47.8057C31.9285 48.0757 32.0247 48.2966 32.1692 48.4683C32.3256 48.6401 32.5722 48.726 32.9093 48.726ZM39.28 50.8427V35.9338H41.8253V44.4742L45.5619 35.9338H47.6559V50.8427H45.0565V42.1551L41.2476 50.8427H39.28ZM43.7026 34.7375C42.8482 34.7375 42.1622 34.4921 41.6447 34.0013C41.1273 33.5104 40.8685 32.7988 40.8685 31.8662H42.5293C42.5293 32.3202 42.6135 32.6577 42.782 32.8785C42.9625 33.0993 43.2694 33.2098 43.7026 33.2098C44.1238 33.2098 44.4247 33.0993 44.6051 32.8785C44.7857 32.6453 44.876 32.3079 44.876 31.8662H46.5367C46.5367 32.7988 46.2779 33.5104 45.7604 34.0013C45.243 34.4921 44.557 34.7375 43.7026 34.7375Z" fill="#000101"/>
<path fill-rule="evenodd" clip-rule="evenodd" d="M78.2508 12.1789L64.376 22.7477V25.505L78.5568 14.7055L92.7377 25.505V22.7477L78.8628 12.1789L78.5962 11.9809L78.5568 11.9482L78.2508 12.1789Z" fill="#B1A489"/>
<path fill-rule="evenodd" clip-rule="evenodd" d="M78.2508 17.6935L64.376 28.2624V31.0197L78.5568 20.2202L92.7377 31.0197V28.2624L78.8628 17.6934L78.5962 17.4956L78.5568 17.4629L78.2508 17.6935Z" fill="#B1A489"/>
<path d="M95.4395 20.6796L99.4909 23.8964V26.6538L95.4395 23.4369V20.6796ZM61.6757 20.6795L56.7236 24.1262V26.6538L61.6757 23.2072V20.6795ZM92.7383 18.3818L95.4395 20.6796V33.0875L92.7384 31.0195L92.7383 18.3818ZM64.3767 18.3818L61.6757 20.6795V33.0875L64.3767 31.0195V18.3818Z" fill="#B1A489"/>
<path d="M61.6757 4.13619H62.5761V5.51479H61.6757V4.13619ZM61.6757 1.37891V12.8282L59.875 14.1942V1.37891H61.6757ZM64.3768 1.37891V10.7836L62.5761 12.1442V1.37891H64.3768Z" fill="#000101"/>
<path fill-rule="evenodd" clip-rule="evenodd" d="M78.1266 0.360864L51.3213 20.6799V23.4372L78.5574 2.75729L105.794 23.4372V20.6799L78.9933 0.360864L78.5695 0L78.1266 0.360864Z" fill="#000101"/>
<path d="M61.6758 1.37891H62.5761V2.7575H61.6758V1.37891Z" fill="#000101"/>
</g>
<defs>
<clipPath id="clip0_387_24">
<rect width="122" height="54" fill="white"/>
</clipPath>
</defs>
</svg>
