<svg width="21" height="21" viewBox="0 0 21 21" fill="none" xmlns="http://www.w3.org/2000/svg">
<g clip-path="url(#clip0_547_285)">
<path fill-rule="evenodd" clip-rule="evenodd" d="M10.5 1.75C12.5886 1.75 14.5916 2.57968 16.0685 4.05653C17.5453 5.53338 18.375 7.53642 18.375 9.625C18.375 12.3147 16.9085 14.5163 15.3633 16.0956C14.5911 16.876 13.7487 17.5837 12.8468 18.2096L12.474 18.4634L12.299 18.5798L11.9691 18.7898L11.6751 18.9691L11.3111 19.1809C11.0639 19.3216 10.7844 19.3955 10.5 19.3955C10.2156 19.3955 9.93606 19.3216 9.68888 19.1809L9.32487 18.9691L8.86987 18.6891L8.70187 18.5798L8.34312 18.3409C7.37011 17.6823 6.46368 16.9303 5.63675 16.0956C4.0915 14.5154 2.625 12.3147 2.625 9.625C2.625 7.53642 3.45468 5.53338 4.93153 4.05653C6.40838 2.57968 8.41142 1.75 10.5 1.75ZM10.5 3.5C8.87555 3.5 7.31763 4.14531 6.16897 5.29397C5.02031 6.44263 4.375 8.00055 4.375 9.625C4.375 11.6567 5.488 13.44 6.88713 14.8715C7.48879 15.4804 8.13902 16.0393 8.83138 16.5428L9.23212 16.828C9.36162 16.9181 9.48587 17.0021 9.60575 17.08L9.947 17.2987L10.2471 17.4816L10.5 17.6295L10.8981 17.3941L11.2192 17.1929C11.3899 17.0844 11.5736 16.9628 11.7679 16.828L12.1686 16.5428C12.861 16.0393 13.5112 15.4804 14.1129 14.8715C15.512 13.4409 16.625 11.6567 16.625 9.625C16.625 8.00055 15.9797 6.44263 14.831 5.29397C13.6824 4.14531 12.1245 3.5 10.5 3.5ZM10.5 6.125C11.4283 6.125 12.3185 6.49375 12.9749 7.15013C13.6313 7.8065 14 8.69674 14 9.625C14 10.5533 13.6313 11.4435 12.9749 12.0999C12.3185 12.7563 11.4283 13.125 10.5 13.125C9.57174 13.125 8.6815 12.7563 8.02513 12.0999C7.36875 11.4435 7 10.5533 7 9.625C7 8.69674 7.36875 7.8065 8.02513 7.15013C8.6815 6.49375 9.57174 6.125 10.5 6.125ZM10.5 7.875C10.0359 7.875 9.59075 8.05937 9.26256 8.38756C8.93437 8.71575 8.75 9.16087 8.75 9.625C8.75 10.0891 8.93437 10.5342 9.26256 10.8624C9.59075 11.1906 10.0359 11.375 10.5 11.375C10.9641 11.375 11.4092 11.1906 11.7374 10.8624C12.0656 10.5342 12.25 10.0891 12.25 9.625C12.25 9.16087 12.0656 8.71575 11.7374 8.38756C11.4092 8.05937 10.9641 7.875 10.5 7.875Z" fill="white"/>
</g>
<defs>
<clipPath id="clip0_547_285">
<rect width="21" height="21" fill="white"/>
</clipPath>
</defs>
</svg>
