<svg width="19" height="19" viewBox="0 0 19 19" fill="none" xmlns="http://www.w3.org/2000/svg">
<g clip-path="url(#clip0_547_266)">
<path d="M15.834 3.16602C16.2334 3.16589 16.6182 3.31675 16.9111 3.58837C17.204 3.85998 17.3834 4.23227 17.4134 4.6306L17.4173 4.74935V14.2493C17.4174 14.6488 17.2666 15.0335 16.995 15.3264C16.7234 15.6194 16.3511 15.7988 15.9527 15.8287L15.834 15.8327H3.16732C2.76786 15.8328 2.38312 15.6819 2.09022 15.4103C1.79732 15.1387 1.6179 14.7664 1.58794 14.3681L1.58398 14.2493V4.74935C1.58386 4.34989 1.73472 3.96515 2.00634 3.67225C2.27795 3.37935 2.65024 3.19993 3.04857 3.16997L3.16732 3.16602H15.834ZM15.834 5.86877L10.3398 11.3629C10.1172 11.5853 9.81534 11.7102 9.50065 11.7102C9.18596 11.7102 8.88414 11.5853 8.66148 11.3629L3.16732 5.86877V14.2493H15.834V5.86877ZM14.7146 4.74935H4.28673L9.50065 9.96327L14.7146 4.74935Z" fill="white"/>
</g>
<defs>
<clipPath id="clip0_547_266">
<rect width="19" height="19" fill="white"/>
</clipPath>
</defs>
</svg>
