<svg width="27" height="34" viewBox="0 0 27 34" fill="none" xmlns="http://www.w3.org/2000/svg">
<path d="M11.6543 4.1709C14.7871 4.1709 17.6239 5.45031 19.677 7.51855C21.73 9.5868 23 12.4446 23 15.6006C23 18.7567 21.73 21.6145 19.677 23.6827C17.6239 25.751 14.7871 27.0304 11.6543 27.0304C8.52144 27.0304 5.68467 25.751 3.63163 23.6827C1.57859 21.6145 0.308594 18.7567 0.308594 15.6006C0.308594 12.4446 1.57859 9.5868 3.63163 7.51855C5.68467 5.45031 8.52144 4.1709 11.6543 4.1709ZM6.43706 15.2862C6.20855 15.0448 6.21831 14.6616 6.45796 14.4314C6.6983 14.2012 7.07798 14.2111 7.30648 14.4525L10.5745 17.9279L17.0861 11.5821C17.3237 11.3505 17.7026 11.3575 17.9325 11.5961C18.1624 11.8354 18.1555 12.2172 17.9186 12.4481L11.005 19.1855C10.9939 19.1988 10.982 19.2108 10.9695 19.2234C10.7298 19.4536 10.3495 19.4438 10.121 19.2024L6.43775 15.2862H6.43706ZM18.8263 8.37547C16.9914 6.52619 14.4555 5.38293 11.655 5.38293C8.85444 5.38293 6.31863 6.52689 4.48364 8.37547C2.64796 10.224 1.51311 12.7786 1.51311 15.5999C1.51311 18.4212 2.64865 20.9758 4.48364 22.8244C6.31863 24.6737 8.85444 25.8169 11.655 25.8169C14.4555 25.8169 16.9914 24.673 18.8263 22.8244C20.662 20.9758 21.7969 18.4212 21.7969 15.5999C21.7969 12.7786 20.6613 10.224 18.8263 8.37547Z" fill="#000101"/>
</svg>
