<svg width="39" height="49" viewBox="0 0 39 49" fill="none" xmlns="http://www.w3.org/2000/svg">
<path d="M24.4755 3.22461H21.6605C21.6059 3.22461 21.5531 3.23676 21.503 3.25654C21.4844 3.26387 21.4694 3.27592 21.4521 3.28565C21.4293 3.29846 21.4046 3.30761 21.3841 3.32457C18.9513 5.34879 14.9459 8.62524 14.4005 8.92979C14.3374 8.94851 14.279 8.98126 14.2295 9.0272C14.1406 9.10971 14.0898 9.22583 14.0898 9.34748V29.8518C14.0898 29.9849 14.1504 30.1104 14.254 30.1929L21.3913 35.8802C21.4105 35.8955 21.4334 35.9035 21.4546 35.9153C21.4715 35.9247 21.4865 35.936 21.5048 35.9431C21.5543 35.9624 21.6065 35.9746 21.6605 35.9746H24.4755C24.715 35.9746 24.9088 35.7798 24.9088 35.5391V3.66016C24.9088 3.41942 24.715 3.22461 24.4755 3.22461ZM21.2271 34.6379L14.9565 29.6412V24.7792L21.2271 27.9717V34.6379ZM21.2271 26.9954L14.9565 23.8026V20.0352H21.2271V26.9954ZM21.2271 19.1641H14.9565V15.3967L21.2271 12.2038V19.1641ZM21.2271 11.2276L14.9565 14.4201V9.58738C15.5702 9.19239 17.0921 8.01607 21.2271 4.58516V11.2276ZM24.0421 35.1035H22.0938V4.09572H24.0421V35.1035Z" fill="#818181"/>
</svg>
