<svg width="619" height="272" viewBox="0 0 619 272" fill="none" xmlns="http://www.w3.org/2000/svg">
<g style="mix-blend-mode:soft-light" opacity="0.45">
<path fill-rule="evenodd" clip-rule="evenodd" d="M397.029 61.3454L326.631 114.581V128.47L398.581 74.0722L470.532 128.47V114.581L400.134 61.3454L398.781 60.3482L398.581 60.1836L397.029 61.3454Z" fill="#F9F9F9"/>
<path fill-rule="evenodd" clip-rule="evenodd" d="M397.029 89.1227L326.631 142.358V156.247L398.581 101.849L470.532 156.247V142.358L400.134 89.1222L398.781 88.1255L398.581 87.9609L397.029 89.1227Z" fill="#F9F9F9"/>
<path d="M484.236 104.166L504.792 120.369V134.258L484.236 118.054V104.166ZM312.926 104.165L287.801 121.526V134.258L312.926 116.897V104.165ZM470.531 92.5918L484.236 104.166V166.665L470.532 156.248L470.531 92.5918ZM326.631 92.5918L312.926 104.165V166.665L326.631 156.248V92.5918Z" fill="#F9F9F9"/>
<path d="M312.926 20.8339H317.495V27.7779H312.926V20.8339ZM312.926 6.94531V64.6158L303.79 71.4966V6.94531H312.926ZM326.631 6.94531V54.317L317.495 61.1707V6.94531H326.631Z" fill="#000101"/>
<path fill-rule="evenodd" clip-rule="evenodd" d="M396.395 1.81768L260.391 104.165V118.054L398.581 13.8886L536.772 118.054V104.165L400.792 1.81768L398.642 0L396.395 1.81768Z" fill="#000101"/>
<path d="M312.926 6.94531H317.494V13.8893H312.926V6.94531Z" fill="#000101"/>
</g>
</svg>
