<svg width="41" height="29" viewBox="0 0 41 29" fill="none" xmlns="http://www.w3.org/2000/svg">
<path d="M0.603296 10.9249C0.603296 10.0892 0.482637 8.71607 0.241318 6.8057C5.79555e-08 4.77593 -0.0603296 3.28345 0.0603296 2.32827C0.180989 1.25369 0.603296 0.596996 1.32725 0.358195C11.7039 -0.119398 17.3146 -0.119398 18.1592 0.358195C18.7625 1.19399 19.0038 3.46255 18.8832 7.16389C18.7625 10.7458 18.4609 14.3278 17.9782 17.9097C17.6162 19.8201 16.289 21.7902 13.9965 23.82C11.7039 25.7303 9.41142 27.1631 7.11889 28.1183C4.82637 29.0735 3.49912 29.2526 3.13714 28.6556C2.29253 28.178 1.87022 27.2825 1.87022 25.9691C1.99088 24.5363 2.95615 23.7006 4.76604 23.4618C6.45527 23.3424 7.96351 22.626 9.29076 21.3126C10.7387 19.9992 11.342 19.044 11.1006 18.447C10.98 18.2082 10.256 18.0888 8.92878 18.0888C7.60153 18.0888 6.27428 18.1485 4.94703 18.2679C3.74044 18.3873 2.71483 18.3276 1.87022 18.0888C1.38758 17.85 1.0256 17.6709 0.784285 17.5515C0.542967 17.3128 0.361978 16.9546 0.241318 16.477C0.241318 15.9994 0.241318 15.5815 0.241318 15.2233C0.361978 14.8651 0.422307 14.2681 0.422307 13.4323C0.542966 12.4771 0.603296 11.6413 0.603296 10.9249ZM22.8649 10.9249C22.8649 10.0892 22.7443 8.71607 22.5029 6.8057C22.2616 4.77593 22.2013 3.28345 22.322 2.32827C22.4426 1.25369 22.8046 0.596996 23.4079 0.358195C34.0259 -0.119398 39.6969 -0.119398 40.4208 0.358195C40.9035 1.19399 41.0845 3.46255 40.9638 7.16389C40.9638 10.7458 40.7225 14.3278 40.2398 17.9097C39.8779 19.8201 38.5506 21.7902 36.2581 23.82C33.9656 25.7303 31.673 27.1631 29.3805 28.1183C27.088 29.0735 25.7004 29.2526 25.2178 28.6556C24.4938 28.178 24.1922 27.2825 24.3128 25.9691C24.4335 24.5363 25.2781 23.7006 26.8467 23.4618C28.0533 23.3424 29.1995 22.9245 30.2855 22.2081C31.3714 21.4917 32.1557 20.7753 32.6383 20.0589C33.2416 19.3425 33.4226 18.8052 33.1813 18.447C33.0606 18.2082 32.3367 18.0888 31.0094 18.0888C29.8028 18.0888 28.5359 18.1485 27.2087 18.2679C26.0021 18.3873 24.9765 18.3276 24.1318 18.0888C23.6492 17.85 23.2872 17.6709 23.0459 17.5515C22.8046 17.3128 22.6839 17.0143 22.6839 16.6561C22.6839 16.1785 22.6839 15.7606 22.6839 15.4024C22.6839 14.9248 22.6839 14.2681 22.6839 13.4323C22.8046 12.5965 22.8649 11.7607 22.8649 10.9249Z" fill="#F0F0F0"/>
</svg>
