<svg width="13" height="13" viewBox="0 0 13 13" fill="none" xmlns="http://www.w3.org/2000/svg">
<path d="M5.68732 8.68563L4.01032 7.00917C3.85797 6.85674 3.65131 6.77109 3.43581 6.77104C3.2203 6.77098 3.0136 6.85655 2.86118 7.0089C2.70876 7.16125 2.6231 7.36791 2.62305 7.58341C2.623 7.79892 2.70856 8.00562 2.86091 8.15804L5.92512 11.2223C6.00057 11.2978 6.09016 11.3576 6.18877 11.3985C6.28738 11.4394 6.39308 11.4604 6.49982 11.4604C6.60657 11.4604 6.71226 11.4394 6.81087 11.3985C6.90949 11.3576 6.99908 11.2978 7.07453 11.2223L10.1387 8.15858C10.2142 8.08311 10.2741 7.99351 10.3149 7.89491C10.3558 7.7963 10.3768 7.69061 10.3768 7.58388C10.3768 7.47714 10.3558 7.37145 10.3149 7.27285C10.2741 7.17424 10.2142 7.08464 10.1387 7.00917C10.0633 6.93369 9.97367 6.87383 9.87506 6.83298C9.77645 6.79214 9.67076 6.77111 9.56403 6.77111C9.4573 6.77111 9.35161 6.79214 9.253 6.83298C9.15439 6.87383 9.0648 6.93369 8.98932 7.00917L7.31232 8.68563V2.4375C7.31232 2.22201 7.22672 2.01535 7.07435 1.86298C6.92198 1.7106 6.71531 1.625 6.49982 1.625C6.28434 1.625 6.07767 1.7106 5.9253 1.86298C5.77293 2.01535 5.68732 2.22201 5.68732 2.4375V8.68563Z" fill="#000101"/>
</svg>
