<svg width="121" height="135" viewBox="0 0 121 135" fill="none" xmlns="http://www.w3.org/2000/svg">
<path d="M119.767 44.0416H109.703V34.3684C109.703 33.8293 109.267 33.3921 108.73 33.3921H63.7703L57.327 18.472C56.4799 16.5075 54.881 15.1477 52.8288 14.6387C50.7645 14.1295 48.7659 14.6626 47.3521 16.1001L43.3133 20.203L39.7158 16.6333L39.9305 16.4176C40.6405 15.6989 40.6345 14.5309 39.9126 13.8182L38.1706 12.0872C37.8246 11.7398 37.3593 11.5482 36.876 11.5601C36.6076 11.5601 36.357 11.632 36.1243 11.7398L26.0181 0.329671C25.8391 0.126029 25.5885 0.0122254 25.32 0.000250043C25.0516 -0.00574069 24.795 0.0960834 24.6041 0.28775L18.8471 6.13358C18.6562 6.32525 18.5547 6.58878 18.5667 6.85833C18.5786 7.12786 18.7039 7.37942 18.9067 7.55911L30.4687 17.4899C30.1704 18.1667 30.2897 18.9873 30.8445 19.5383L32.5865 21.2693C32.9445 21.6226 33.4098 21.7963 33.8752 21.7963C34.3465 21.7963 34.8178 21.6166 35.1757 21.2513L35.3905 21.0357L38.988 24.6054L34.3286 29.3371C33.2487 30.4332 32.6999 31.8587 32.7356 33.392H13.9364C13.3995 33.392 12.964 33.8293 12.964 34.3683V45.0118C12.964 45.5509 13.3995 45.9881 13.9364 45.9881H24.0008V54.685H13.6082C13.0713 54.685 12.6358 55.1223 12.6358 55.6613V65.3345H0.972446C0.435518 65.3345 0 65.7718 0 66.3108V76.9543C0 77.4934 0.435518 77.9306 0.972446 77.9306H118.513C118.537 77.9306 118.555 77.9186 118.578 77.9186C119.08 77.8827 119.485 77.4754 119.485 76.9543V66.3108C119.485 65.7957 119.086 65.3824 118.578 65.3465C118.555 65.3465 118.537 65.3345 118.513 65.3345H109.361V56.6376H119.754C120.291 56.6376 120.726 56.2004 120.726 55.6613V45.0178C120.726 44.4788 120.291 44.0415 119.754 44.0415L119.767 44.0416ZM25.2548 2.40239L34.6691 13.0339L31.7338 16.0167L20.9594 6.76273L25.2548 2.40239ZM33.8695 19.8088L32.2826 18.2336L32.4794 18.03L35.4385 15.0232L36.8882 13.5498L38.4752 15.125L37.6579 15.9575L36.2082 17.431L33.8695 19.8088ZM38.3559 18.0238L41.9294 21.5697L40.3186 23.2048L36.7451 19.659L38.3559 18.0238ZM107.763 44.043H85.6891V35.3461H107.763V44.043ZM117.553 75.9792H96.7439V67.2823H117.553V75.9792ZM37.6216 67.2823H47.4056V75.9792H25.9642V67.2823H37.6276H37.6216ZM47.9844 44.0431H38.9163V40.2217L47.9844 44.0431ZM52.602 45.9897L59.7073 48.9844C60.5187 49.3259 61.3539 49.4936 62.1653 49.4936C63.6568 49.4936 65.0707 48.9245 66.1387 47.8345C66.6756 47.2894 67.0634 46.6605 67.3319 45.9838H71.3886V54.6807H49.9472V45.9838H52.5961L52.602 45.9897ZM60.0296 56.6332V65.3301H38.5882V56.6332H60.0296ZM49.3387 67.2767H70.7801V75.9736H49.3387V67.2767ZM72.7197 67.2767H94.7934V75.9736H72.7197V67.2767ZM61.9691 65.3301V56.6332H83.4105V65.3301H61.9691ZM73.3341 54.6866V45.9897H94.7755V54.6866H73.3341ZM83.7446 35.3405V44.0374H67.7434C67.7673 43.157 67.5942 42.2465 67.2124 41.3601L64.6113 35.3346H83.7435L83.7446 35.3405ZM35.7073 30.7047L48.7308 17.4737C49.6675 16.5213 50.962 16.1859 52.37 16.5333C53.8197 16.8927 54.9473 17.857 55.5498 19.2465L62.2435 34.7409L65.4352 42.132C66.1213 43.7193 65.8707 45.3425 64.767 46.4624C63.6633 47.5824 62.0526 47.852 60.4656 47.1812L53.1813 44.1085H53.1753L38.3261 37.8495L37.5506 37.5201C36.1545 36.9331 35.1821 35.807 34.8062 34.3576C34.4423 32.95 34.7644 31.6503 35.7011 30.698L35.7073 30.7047ZM14.9104 35.3405H33.1247C33.7392 37.1494 35.004 38.563 36.8057 39.3237L36.9847 39.4015V44.0374H14.911L14.9104 35.3405ZM25.9474 45.984H48.0211V54.6809H25.9474V45.984ZM14.5824 56.6275H36.6561V65.3244H14.5824V56.6275ZM1.9526 67.271H24.0263V75.9679H1.9526V67.271ZM107.435 65.3244H85.3615V56.6275H107.435V65.3244ZM118.8 54.6809H96.7266V45.984H118.8V54.6809Z" fill="#B1A489"/>
</svg>
