<svg width="110" height="135" viewBox="0 0 110 135" fill="none" xmlns="http://www.w3.org/2000/svg">
<path d="M99.687 69.2074L92.4995 54.1024V42.0284C92.4995 41.4541 92.0308 40.9854 91.4565 40.9854C90.8823 40.9854 90.4135 41.4541 90.4135 42.0284V49.7276L82.058 32.1846C81.8901 31.8291 81.5385 31.6025 81.1518 31.5908H81.1205H77.9135V28.2275H90.4135V32.6533C90.4135 33.2275 90.8823 33.6963 91.4565 33.6963C92.0308 33.6963 92.4995 33.2276 92.4995 32.6533V28.2275C93.6441 28.2275 94.5815 27.29 94.5815 26.1455V21.9775C94.5815 20.833 93.6441 19.8955 92.4995 19.8955H75.8315C74.687 19.8955 73.7495 20.833 73.7495 21.9775V26.1455C73.7495 27.29 74.687 28.2275 75.8315 28.2275V31.5908L31.9485 31.5947C31.5735 31.5947 31.2181 31.8017 31.0423 32.126L10.3433 69.146C10.1675 69.4702 10.1675 69.8647 10.355 70.1772C10.5425 70.4896 10.8863 70.6889 11.2495 70.6889H12.2925V98.2709C12.2925 98.8451 12.7613 99.3139 13.3355 99.3139C13.9098 99.3139 14.3785 98.8451 14.3785 98.2709V70.6889H62.5155V99.0519C62.5155 99.6261 62.9843 100.095 63.5585 100.095C64.1328 100.095 64.6015 99.6261 64.6015 99.0519V70.6889H93.7695V99.0519C93.7695 99.6261 94.2383 100.095 94.8125 100.095C95.3868 100.095 95.8555 99.6261 95.8555 99.0519V70.6889H98.7617C99.1172 70.6889 99.4492 70.5014 99.6485 70.2006C99.836 69.8998 99.8672 69.5248 99.711 69.2006L99.687 69.2074ZM75.832 21.9804H92.5V26.1484H75.832V21.9804ZM49.906 68.6134L53.5427 62.1017C54.6052 62.4962 55.7107 62.7892 56.8357 62.9571C57.6365 63.0821 58.4607 63.1446 59.2849 63.1446C60.5661 63.1446 61.8591 62.9767 63.1287 62.6876L59.8162 68.6134L49.906 68.6134ZM52.281 60.0939C50.4802 60.7618 47.863 61.3556 44.8435 60.9064C43.9803 60.7696 43.1247 60.5314 42.2927 60.2501L46.656 52.4376C47.7302 52.8321 48.8435 53.1368 49.9568 53.3009C50.7576 53.4259 51.5701 53.4767 52.3943 53.4767C53.6755 53.4767 54.9568 53.3087 56.2381 53.0196L52.281 60.0939ZM45.3865 50.4377C43.574 51.1056 40.9685 51.6877 37.9803 51.2384C37.1053 51.1017 36.242 50.8947 35.3983 50.5939L39.7538 42.8127C40.785 43.1877 41.8476 43.4572 42.9218 43.6252C43.7226 43.7502 44.5351 43.801 45.3476 43.801C46.6914 43.801 48.0468 43.6135 49.3788 43.301L45.3905 50.4377L45.3865 50.4377ZM37.6677 53.2932C38.4685 53.4182 39.281 53.4689 40.1052 53.4689C41.3864 53.4689 42.6677 53.301 43.949 53.0119L39.992 60.0861C38.1912 60.7541 35.5662 61.3478 32.5545 60.8986C31.6913 60.7619 30.8357 60.5236 30.0037 60.2424L34.367 52.4299C35.4412 52.8244 36.5544 53.1291 37.6677 53.2932ZM57.6877 50.4377C55.8752 51.1056 53.2697 51.6877 50.2815 51.2384C49.4065 51.1017 48.5432 50.8947 47.6995 50.5939L52.055 42.8127C53.0862 43.1877 54.1488 43.4572 55.223 43.6252C56.0238 43.7502 56.8363 43.801 57.6605 43.801C59.0043 43.801 60.3597 43.6135 61.6917 43.301L57.7034 50.4377L57.6877 50.4377ZM63.1369 40.676C60.6486 41.6252 58.0236 41.9377 55.5236 41.5627C54.6994 41.4377 53.8869 41.2189 53.0861 40.9494L57.1486 33.6799H67.0548L63.1368 40.6799L63.1369 40.676ZM50.8439 40.676C48.3556 41.6252 45.7306 41.9377 43.2306 41.5627C42.4064 41.4377 41.5939 41.2189 40.7931 40.9494L44.8556 33.6799H54.7618L50.8438 40.6799L50.8439 40.676ZM33.0939 50.4377C31.2814 51.1056 28.6759 51.6877 25.6877 51.2384C24.8127 51.1017 23.9494 50.8947 23.1057 50.5939L27.4612 42.8127C28.4924 43.1877 29.555 43.4572 30.6292 43.6252C31.43 43.7502 32.2425 43.801 33.0667 43.801C34.4105 43.801 35.7659 43.6135 37.0979 43.301L33.1096 50.4377L33.0939 50.4377ZM25.3751 53.2932C26.1759 53.4182 26.9884 53.4689 27.8126 53.4689C29.0938 53.4689 30.3751 53.301 31.6564 53.0119L27.6994 60.0861C25.8986 60.7541 23.2814 61.3478 20.2619 60.8986C19.3987 60.7619 18.5431 60.5236 17.7111 60.2424L22.0744 52.4299C23.1486 52.8244 24.2618 53.1291 25.3751 53.2932ZM32.2384 62.969C33.0392 63.094 33.8517 63.1447 34.6759 63.1447C35.9689 63.1447 37.2579 62.9768 38.5392 62.6877L35.2267 68.6135H25.3205L28.9572 62.1018C30.0314 62.4963 31.1252 62.7893 32.2502 62.9573L32.2384 62.969ZM41.2501 62.1135C42.3243 62.508 43.4181 62.801 44.5431 62.969C45.3439 63.094 46.1564 63.1447 46.9806 63.1447C48.2736 63.1447 49.5626 62.9768 50.8439 62.6877L47.5314 68.6135H37.6252L41.2619 62.1018L41.2501 62.1135ZM64.5741 60.094C62.1483 60.9885 59.5858 61.2698 57.1366 60.9065C56.2616 60.7815 55.4178 60.5432 54.5858 60.2502L58.9491 52.4377C60.0233 52.8323 61.1249 53.137 62.2499 53.301C63.0507 53.426 63.8749 53.4885 64.6991 53.4885C65.9686 53.4885 67.2616 53.3205 68.5233 53.0315L64.5663 60.1057L64.5741 60.094ZM69.9803 50.426C67.5623 51.3127 64.9998 51.6018 62.5741 51.2268C61.6991 51.09 60.8436 50.8518 59.9999 50.5588L64.3319 42.7971C65.3749 43.1721 66.4257 43.4416 67.4999 43.6096C68.3554 43.7346 69.1758 43.7971 69.9688 43.7971C71.4492 43.7971 72.7812 43.5979 73.957 43.3166L69.9765 50.4221L69.9803 50.426ZM75.4256 40.6877C73.6639 41.3635 70.9764 42.0432 67.8123 41.5627C66.9881 41.4377 66.1756 41.2385 65.3631 40.9689L69.4373 33.6759H79.3435L75.4256 40.6877ZM32.5626 33.676H42.4688L38.5508 40.676C36.0625 41.6252 33.4453 41.9377 30.9375 41.5627C30.1133 41.4377 29.3008 41.219 28.5 40.9494L32.5625 33.6799L32.5626 33.676ZM16.6676 62.114C17.7418 62.5085 18.8356 62.8015 19.9606 62.9695C20.7614 63.0945 21.5739 63.1452 22.3981 63.1452C23.6911 63.1452 24.9801 62.9773 26.2614 62.6882L22.9489 68.614H13.0309L16.6676 62.1023V62.114ZM68.4256 68.614L80.6956 44.321L91.1446 68.614H68.4146H68.4256ZM93.4256 68.614L81.7376 41.446C81.5814 41.071 81.2181 40.8327 80.8119 40.821C80.3939 40.821 80.0306 41.028 79.8548 41.3952L66.1048 68.6142H62.2103L81.0653 34.9072L97.1163 68.6142L93.4256 68.614ZM92.4999 36.407V38.282C92.4999 38.8562 92.0311 39.325 91.4569 39.325C90.8826 39.325 90.4139 38.8562 90.4139 38.282V36.407C90.4139 35.8328 90.8826 35.364 91.4569 35.364C92.0311 35.364 92.4999 35.8327 92.4999 36.407Z" fill="#b1a489"/>
</svg>
