<svg width="100" height="125" viewBox="0 0 100 125" fill="none" xmlns="http://www.w3.org/2000/svg">
<path fill-rule="evenodd" clip-rule="evenodd" d="M85.8 85.8V81.4H74.256C73.0069 81.4146 71.7862 81.0265 70.775 80.293C70.2931 79.9568 69.8971 79.5118 69.6191 78.9941C69.3411 78.4764 69.189 77.9005 69.175 77.313V61.133C69.1891 60.5457 69.3413 59.97 69.6193 59.4525C69.8973 58.9349 70.2932 58.4901 70.775 58.154C71.7862 57.4205 73.0069 57.0324 74.256 57.047H85.8V48.708H58.01V36.418C58.0183 36.1502 58.1306 35.8963 58.3229 35.7098C58.5153 35.5234 58.7726 35.4191 59.0405 35.4191C59.3084 35.4191 59.5657 35.5234 59.7581 35.7098C59.9504 35.8963 60.0627 36.1502 60.071 36.418V46.647H85.8V41.684H75.6V36.984H73.37C71.6113 36.9625 69.932 36.2488 68.6959 34.9975C67.4599 33.7463 66.7668 32.0583 66.7668 30.2995C66.7668 28.5407 67.4599 26.8527 68.6959 25.6015C69.932 24.3502 71.6113 23.6365 73.37 23.615H75.609V18.915H85.8V14.2H60.071V26.165L64.966 33.511C65.0432 33.6235 65.0971 33.7502 65.1248 33.8838C65.1525 34.0173 65.1533 34.1551 65.1273 34.289C65.1012 34.4229 65.0487 34.5502 64.9729 34.6636C64.8971 34.777 64.7995 34.8742 64.6858 34.9495C64.5721 35.0248 64.4445 35.0768 64.3105 35.1023C64.1765 35.1278 64.0388 35.1264 63.9053 35.0981C63.7719 35.0699 63.6454 35.0154 63.5332 34.9377C63.421 34.8601 63.3255 34.7609 63.252 34.646L58.222 27.1C58.0841 26.9201 58.0096 26.6997 58.01 26.473V14.2H45.355V38.18C45.3569 38.4019 45.2867 38.6184 45.155 38.797L40.984 45.538C40.9149 45.6564 40.8229 45.7597 40.7133 45.842C40.6037 45.9242 40.4787 45.9837 40.3457 46.0169C40.2128 46.0501 40.0745 46.0563 39.9391 46.0353C39.8037 46.0142 39.6739 45.9663 39.5573 45.8942C39.4407 45.8222 39.3397 45.7276 39.2602 45.616C39.1807 45.5043 39.1244 45.3779 39.0946 45.2441C39.0647 45.1104 39.062 44.972 39.0864 44.8372C39.1109 44.7023 39.1621 44.5737 39.237 44.459L43.299 37.894V14.2H37.582V44.564H16.093V14.2H14.2V55.933H43.3V48.618C43.2957 48.48 43.3192 48.3425 43.369 48.2137C43.4189 48.0849 43.4941 47.9675 43.5902 47.8683C43.6863 47.7692 43.8014 47.6903 43.9286 47.6365C44.0557 47.5826 44.1924 47.5549 44.3305 47.5549C44.4686 47.5549 44.6053 47.5826 44.7325 47.6365C44.8596 47.6903 44.9747 47.7692 45.0708 47.8683C45.1669 47.9675 45.2421 48.0849 45.292 48.2137C45.3418 48.3425 45.3653 48.48 45.361 48.618V57.994H14.2V62.886H10.515V88.994H35.25V85.8H38.737V67.284C38.7367 67.1088 38.7813 66.9365 38.8663 66.7834C38.9514 66.6302 39.0742 66.5014 39.223 66.409L46.635 60.933C46.8544 60.7795 47.125 60.7176 47.3893 60.7606C47.6536 60.8035 47.8908 60.9479 48.0502 61.163C48.2097 61.3781 48.279 61.647 48.2432 61.9123C48.2075 62.1777 48.0697 62.4187 47.859 62.584L40.8 67.8V85.8H85.8ZM8.454 62.886H5C5 43.59 5 24.2947 5 5C35 5 65 5 95 5V95H35.25V91.055H8.454V62.886ZM58.754 58.825C59.9663 58.8276 61.1281 59.3106 61.985 60.1681C62.842 61.0256 63.3242 62.1877 63.326 63.4V72.528C63.3082 73.729 62.8187 74.8748 61.9631 75.7178C61.1075 76.5608 59.9546 77.0334 58.7535 77.0334C57.5524 77.0334 56.3995 76.5608 55.5439 75.7178C54.6883 74.8748 54.1988 73.729 54.181 72.528V63.4C54.1834 62.1879 54.6659 61.0261 55.523 60.169C56.3801 59.3119 57.5419 58.8294 58.754 58.827V58.825ZM60.527 61.625C60.7606 61.8577 60.946 62.1341 61.0726 62.4385C61.1993 62.7429 61.2646 63.0693 61.265 63.399V72.527C61.2519 73.1844 60.9815 73.8105 60.5119 74.2708C60.0424 74.7311 59.411 74.9889 58.7535 74.9889C58.096 74.9889 57.4646 74.7311 56.9951 74.2708C56.5255 73.8105 56.2551 73.1844 56.242 72.527V63.4C56.2412 62.9032 56.3879 62.4173 56.6636 62.004C56.9394 61.5907 57.3316 61.2686 57.7906 61.0786C58.2497 60.8885 58.7548 60.8391 59.242 60.9366C59.7292 61.034 60.1764 61.273 60.527 61.625ZM24.793 14.717H28.881C29.8079 14.739 30.6895 15.1227 31.3373 15.786C31.9851 16.4494 32.3477 17.3398 32.3477 18.267C32.3477 19.1942 31.9851 20.0846 31.3373 20.748C30.6895 21.4113 29.8079 21.795 28.881 21.817H24.793C23.8661 21.795 22.9845 21.4113 22.3367 20.748C21.6889 20.0846 21.3263 19.1942 21.3263 18.267C21.3263 17.3398 21.6889 16.4494 22.3367 15.786C22.9845 15.1227 23.8661 14.739 24.793 14.717ZM28.881 16.778C29.2762 16.778 29.6552 16.935 29.9346 17.2144C30.214 17.4938 30.371 17.8728 30.371 18.268C30.371 18.6632 30.214 19.0422 29.9346 19.3216C29.6552 19.601 29.2762 19.758 28.881 19.758H24.793C24.3978 19.758 24.0188 19.601 23.7394 19.3216C23.46 19.0422 23.303 18.6632 23.303 18.268C23.303 17.8728 23.46 17.4938 23.7394 17.2144C24.0188 16.935 24.3978 16.778 24.793 16.778H28.881ZM18.154 22.964V14.2H35.52V22.968L18.154 22.964ZM35.52 25.025V28.769H18.154V25.025H35.52ZM35.52 30.83V42.5H18.154V30.83H35.52ZM75.609 34.922H73.37C72.1439 34.922 70.968 34.4349 70.101 33.568C69.2341 32.701 68.747 31.5251 68.747 30.299C68.747 29.0729 69.2341 27.897 70.101 27.03C70.968 26.1631 72.1439 25.676 73.37 25.676H75.609V34.922ZM85.809 39.622H77.67V20.975H85.8V39.623L85.809 39.622ZM71.245 60.981C71.2874 60.742 71.3774 60.5139 71.5096 60.3103C71.6419 60.1067 71.8138 59.9318 72.015 59.796C72.6689 59.3323 73.4546 59.0911 74.256 59.108H81.007V60.981H71.245ZM81.007 63.042V75.4H71.236V63.042H81.007ZM81.007 77.464V79.338H74.256C73.4546 79.3545 72.6691 79.1133 72.015 78.65C71.8137 78.514 71.6419 78.3389 71.5096 78.1352C71.3773 77.9314 71.2874 77.7032 71.245 77.464H81.007ZM83.068 59.108H85.8V79.338H83.068V59.108ZM87.868 13.165V12.135H12.135V60.824H7.061V7.061H92.939V92.939H37.311V87.865H87.865V13.165H87.868Z" fill="#B1A489"/>
</svg>
