<svg width="110" height="135" viewBox="0 0 110 135" fill="none" xmlns="http://www.w3.org/2000/svg">
<path d="M12.3393 59.1677C12.0112 59.1677 11.6753 59.1364 11.3471 59.0739C9.97214 58.8122 8.77684 58.0309 7.99164 56.8708C6.36664 54.4802 6.98774 51.2106 9.37834 49.5856L51.3083 21.0856C53.07 19.8903 55.3552 19.8708 57.1364 21.0387L100.55 49.5347C101.722 50.3043 102.523 51.48 102.808 52.855C103.093 54.2261 102.828 55.6284 102.058 56.8003C101.086 58.2808 99.4449 59.1675 97.6715 59.1675C96.6481 59.1675 95.652 58.8706 94.7965 58.3042L54.3165 31.7302L15.2775 58.2572C14.3986 58.8549 13.3784 59.1677 12.3393 59.1677ZM54.2573 22.2577C53.6362 22.2577 53.019 22.4412 52.48 22.8084L10.55 51.3044C9.85081 51.781 9.38203 52.4997 9.22193 53.3278C9.06568 54.1599 9.23756 54.9997 9.71412 55.695C10.1907 56.3943 10.9094 56.8669 11.7375 57.0231C12.5735 57.1794 13.4094 57.0075 14.1047 56.5309L53.7137 29.6129C54.0653 29.3747 54.5184 29.3747 54.8699 29.6051L95.9359 56.5621C96.4555 56.902 97.0531 57.0817 97.6664 57.0817C98.7367 57.0817 99.725 56.5465 100.315 55.6559C100.776 54.9488 100.94 54.1051 100.768 53.277C100.596 52.4489 100.112 51.7379 99.4085 51.277L55.9905 22.781C55.4632 22.4333 54.8577 22.2614 54.2561 22.2614L54.2573 22.2577Z" fill="#B1A489"/>
<path d="M18.3555 99.8201C17.7813 99.8201 17.3125 99.3553 17.3125 98.7771V59.7891C17.3125 59.2149 17.7773 58.7461 18.3555 58.7461C18.9297 58.7461 19.3985 59.2109 19.3985 59.7891V98.7771C19.3985 99.3513 18.9337 99.8201 18.3555 99.8201Z" fill="#B1A489"/>
<path d="M91.1325 99.8204H18.3555C17.7813 99.8204 17.3125 99.3555 17.3125 98.7774C17.3125 98.2032 17.7773 97.7344 18.3555 97.7344H91.1325C91.7067 97.7344 92.1755 98.1992 92.1755 98.7774C92.1755 99.3516 91.7107 99.8204 91.1325 99.8204Z" fill="#B1A489"/>
<path d="M91.1329 99.8201C90.5586 99.8201 90.0898 99.3553 90.0898 98.7771V59.7891C90.0898 59.2149 90.5547 58.7461 91.1329 58.7461C91.7071 58.7461 92.1758 59.2109 92.1758 59.7891V98.7771C92.1758 99.3513 91.711 99.8201 91.1329 99.8201Z" fill="#B1A489"/>
<path d="M95.3402 99.8204H14.6602C14.086 99.8204 13.6172 99.3555 13.6172 98.7774C13.6172 98.2032 14.082 97.7344 14.6602 97.7344H95.3402C95.9144 97.7344 96.3832 98.1992 96.3832 98.7774C96.3832 99.3516 95.9184 99.8204 95.3402 99.8204Z" fill="#B1A489"/>
<path d="M74.332 84.7031C73.6718 84.7031 73.0156 84.4531 72.5156 83.9531L64.8711 76.3086C64.3828 75.8242 64.1172 75.1758 64.1172 74.4883C64.1172 73.8008 64.3867 73.1563 64.8711 72.668L67.375 70.1641C68.3789 69.1602 70.0078 69.1602 71.0117 70.1641L78.6562 77.8086C79.1445 78.2968 79.4101 78.9414 79.4101 79.6289C79.4101 80.3164 79.1406 80.9609 78.6562 81.4492L76.1562 83.9531C75.6562 84.4531 74.996 84.707 74.3398 84.707L74.332 84.7031ZM69.1913 71.4958C69.0663 71.4958 68.9413 71.5426 68.8436 71.6403L66.3397 74.1442C66.2147 74.2692 66.1952 74.4137 66.1952 74.4918C66.1952 74.5661 66.2147 74.7145 66.3397 74.8356L73.9842 82.4801C74.1756 82.6715 74.4881 82.6715 74.6756 82.4801L77.1795 79.9762C77.3045 79.8512 77.3241 79.7067 77.3241 79.6285C77.3241 79.5543 77.3045 79.4059 77.1795 79.2809L69.535 71.6364C69.4374 71.5387 69.3124 71.4918 69.1874 71.4918L69.1913 71.4958Z" fill="#B1A489"/>
<path d="M66.8555 73.1953C66.5899 73.1953 66.3204 73.0938 66.1172 72.8906L61.5547 68.3281C60.8985 67.6719 60.5352 66.8008 60.5352 65.8711V58.7539C60.5352 58.3868 60.3868 58.0274 60.1251 57.7696L56.9767 54.6212C56.4337 54.0782 55.5509 54.0782 55.0079 54.6212L53.0782 56.5509C52.6719 56.9571 52.0118 56.9571 51.6055 56.5509C51.1992 56.1446 51.1992 55.4845 51.6055 55.0782L53.5352 53.1485C54.8907 51.793 57.0938 51.793 58.4493 53.1485L61.5977 56.2969C62.2461 56.9453 62.6172 57.8399 62.6172 58.7539V65.8711C62.6172 66.2422 62.7617 66.5937 63.0273 66.8554L67.5898 71.4179C67.9961 71.8242 67.9961 72.4843 67.5898 72.8906C67.3867 73.0938 67.1211 73.1953 66.8516 73.1953H66.8555Z" fill="#B1A489"/>
<path d="M39.2226 77.4999C38.5469 77.4999 37.8672 77.2421 37.3555 76.7265L31.3672 70.7382C30.336 69.707 30.336 68.0273 31.3672 66.9999L46.2812 52.0859C47.3124 51.0547 48.9881 51.0547 50.0194 52.0859L56.0077 58.0742C57.0389 59.1054 57.0389 60.7851 56.0077 61.8125L41.0938 76.7265C40.5781 77.2421 39.9023 77.4999 39.2226 77.4999ZM48.1523 53.3949C48.0078 53.3949 47.8672 53.4496 47.7539 53.559L32.8399 68.473C32.6212 68.6917 32.6212 69.0472 32.8399 69.266L38.8282 75.2543C39.047 75.473 39.4024 75.473 39.6212 75.2543L54.5352 60.3403C54.7539 60.1215 54.7539 59.766 54.5352 59.5473L48.5508 53.5629C48.4414 53.4535 48.2969 53.3988 48.1523 53.3988L48.1523 53.3949Z" fill="#B1A489"/>
</svg>
