<svg width="107" height="135" viewBox="0 0 107 135" fill="none" xmlns="http://www.w3.org/2000/svg">
<path d="M106.694 26.5651C105.847 22.0348 101.807 20.6983 99.263 20.5731C98.587 17.9101 97.1249 15.7576 95.1171 14.4811C92.954 13.1045 88.9133 12.3336 85.9991 15.3521C84.4268 13.9254 81.3425 13.2647 78.6237 13.9204C75.1588 14.7564 73.0958 17.4645 72.9056 21.394C71.7289 21.9297 69.0301 23.4064 68.264 25.9493C67.8484 27.3209 68.0537 28.7626 68.8699 30.2443C67.4228 30.9952 66.3262 32.9275 66.0709 35.3803C65.7004 38.9744 67.2976 43.009 71.6488 44.2254C71.8241 45.4819 72.48 48.2401 74.8534 50.0672C76.8812 51.6239 79.6452 52.0945 83.06 51.4939C83.065 51.7542 83.07 52.0195 83.075 52.2948C83.1501 56.9252 83.3003 66.031 83.1151 68.608H68.6049V62.6462H69.1406C70.2722 62.6462 71.1886 61.7251 71.1886 60.5988V59.3523C71.1886 58.221 70.2673 57.3049 69.1406 57.3049H65.3903V54.2063H68.5147C69.9918 54.2063 71.1885 53.0049 71.1885 51.5333V48.6149C71.1885 47.1383 69.9868 45.9419 68.5147 45.9419H43.459C41.982 45.9419 40.7853 47.1433 40.7853 48.6149V51.5333C40.7853 53.0099 41.987 54.2063 43.459 54.2063H46.2179V57.3049H42.8331C41.7015 57.3049 40.7851 58.226 40.7851 59.3523V60.5988C40.7851 61.7301 41.7065 62.6462 42.8331 62.6462H43.434V68.608H29.0532C29.0332 67.3366 28.9731 65.7247 28.908 63.8926C28.7428 59.3573 28.5125 53.04 28.7779 47.9497C29.9445 48.5003 31.2814 48.7856 32.6784 48.7856C34.7163 48.7856 36.8643 48.2 38.7271 47.0286C41.521 45.2715 42.9431 42.5584 42.6276 39.6601C43.8544 39.0744 46.4531 37.5377 47.7949 34.5142C49.0016 31.791 48.8865 28.5823 47.4544 24.9681C48.2956 23.8719 50.8142 20.578 50.0181 16.3181C48.8514 10.0809 42.9331 9.1899 40.8501 9.06983C40.039 5.74092 38.2465 3.05789 35.7578 1.47103C33.1041 -0.220911 28.112 -1.15703 24.5669 2.67242C22.7193 0.875397 18.8037 -0.000625189 15.464 0.805298C11.2279 1.82649 8.72441 5.16528 8.52907 10.006C7.16713 10.6117 3.72725 12.4187 2.77088 15.5774C2.25515 17.2844 2.54055 19.0765 3.61207 20.9287C1.78446 21.7446 0.377535 24.1474 0.0620794 27.226C-0.388557 31.6311 1.58424 36.5768 6.96185 38.0085C7.14711 39.4652 7.89818 42.9642 10.8774 45.2468C13.3909 47.174 16.8408 47.7297 21.127 46.9288C21.132 47.3292 21.142 47.7347 21.147 48.1652C21.177 50.0874 21.2171 52.335 21.2471 54.6076C20.9767 54.3222 20.6863 54.0619 20.3559 53.8567C18.9438 52.9557 16.8459 52.8305 15.3287 54.122C14.3573 53.4462 12.8001 53.1659 11.3781 53.5063C9.44042 53.9718 8.26372 55.4385 8.08349 57.561C7.33242 57.9315 6.05566 58.7474 5.64509 60.104C5.42477 60.8248 5.48486 61.5707 5.82034 62.3266C5.10933 62.8672 4.60361 63.8734 4.4784 65.1348C4.35323 66.3312 4.63362 67.5977 5.35965 68.5988H5.21445C4.73878 68.5988 4.35823 68.9843 4.35823 69.4548C4.35823 69.9304 4.74378 70.3108 5.21445 70.3108H95.6275C96.1032 70.3108 96.4837 69.9254 96.4837 69.4548C96.4837 68.9793 96.0982 68.5988 95.6275 68.5988H89.7742C89.7542 67.5977 89.7091 66.3512 89.659 64.9545C89.5289 61.3654 89.3436 56.3896 89.5389 52.3349C90.4502 52.7254 91.4716 52.9356 92.5331 52.9356C94.2105 52.9356 95.973 52.455 97.5001 51.4939C99.7733 50.0673 100.95 47.8648 100.735 45.507C101.781 44.9914 103.809 43.7249 104.876 41.3222C105.857 39.1046 105.777 36.5016 104.64 33.5832C105.381 32.6171 107.319 29.964 106.683 26.55L106.694 26.5651ZM66.8918 68.6131H65.7101V62.6512H66.8918V68.6131ZM63.9977 62.6512V68.6131H47.8494V62.6512H63.9977ZM42.5016 51.5333V48.615C42.5016 48.0844 42.9322 47.6539 43.463 47.6539H68.5187C69.0494 47.6539 69.4801 48.0844 69.4801 48.615V51.5333C69.4801 52.064 69.0494 52.4945 68.5187 52.4945H43.463C42.9322 52.4945 42.5016 52.064 42.5016 51.5333ZM47.9344 54.2114H63.6764V57.31H47.9344V54.2114ZM42.5016 60.6038V59.3574C42.5016 59.1772 42.6518 59.027 42.8321 59.027H69.1388C69.3191 59.027 69.4693 59.1772 69.4693 59.3574V60.6038C69.4693 60.784 69.3191 60.9342 69.1388 60.9342H42.8321C42.6518 60.9342 42.5016 60.784 42.5016 60.6038ZM45.1504 62.6512H46.1318V68.6131H45.1504V62.6512ZM25.6078 64.3132C26.0835 63.6574 26.9547 62.2608 26.6192 60.4787C26.1936 58.2161 24.416 57.3351 22.9941 57.0849C22.9591 53.9912 22.909 50.7725 22.8639 48.1445C22.8189 45.4413 22.7838 43.3039 22.7838 42.2476C22.7838 37.8775 18.002 35.1344 15.919 34.1533C15.8189 34.0932 14.7824 33.4274 14.5521 32.3762C14.452 31.9057 14.5321 31.4101 14.7924 30.8894C17.0807 31.8055 19.464 33.6426 21.2467 35.0243C21.467 35.1945 21.6773 35.3597 21.8825 35.5148C22.0378 35.63 22.218 35.69 22.4033 35.69C22.5335 35.69 22.6637 35.66 22.7838 35.5999C23.0793 35.4548 23.2645 35.1594 23.2645 34.8291C23.2645 33.8129 23.3246 32.3462 23.3847 30.9345C23.4448 29.4477 23.5099 27.911 23.5099 26.7747C23.5099 26.2591 23.1393 25.6534 21.5621 23.3057C20.6909 22.0042 19.7045 20.5325 19.2638 19.6314C19.1537 19.1859 19.0235 17.539 19.6093 16.7481C19.8447 17.1336 20.1401 17.6191 20.4305 18.0997C22.4683 21.4586 23.4998 23.1205 23.8604 23.506C24.0256 23.6812 24.2509 23.7763 24.4863 23.7763C24.5163 23.7763 24.5463 23.7763 24.5714 23.7713C24.8368 23.7463 25.0771 23.5961 25.2173 23.3658C25.3625 23.1256 28.487 18.0196 29.7838 15.6269C29.9841 15.762 30.1593 15.9372 30.2895 16.1775C30.67 16.8783 30.61 17.7444 30.5348 17.9495C30.0942 18.6553 29.5935 19.4613 29.0978 20.2522C27.4855 22.8402 26.6594 24.1818 26.6243 24.2768C25.8231 26.5344 25.6329 33.3023 26.0785 36.516C26.1336 36.9115 26.454 37.2168 26.8546 37.2519C26.8796 37.2519 26.9047 37.2569 26.9297 37.2569C27.3002 37.2569 27.6307 37.0216 27.7459 36.6662C28.2516 35.1043 31.4411 30.9996 33.1586 28.7921C33.6643 28.1414 34.0098 27.6959 34.2552 27.3704C34.3453 27.4906 34.4304 27.6357 34.5005 27.846C34.9411 29.1375 34.4454 31.1248 34.2452 31.4552C32.9082 33.4375 30.3997 36.9516 29.3282 38.4482C29.0378 38.8537 28.8576 39.104 28.8375 39.139C26.5944 42.4929 26.7796 52.7893 27.1901 63.9523C27.2552 65.7645 27.3153 67.3562 27.3353 68.6077H25.5678C26.0585 67.6015 26.2839 66.1949 25.6029 64.3127L25.6078 64.3132ZM11.9385 43.9043C8.82404 41.5215 8.62382 37.3317 8.62382 37.2916C8.6088 36.8961 8.3284 36.5608 7.93784 36.4807C2.81057 35.4244 1.41364 30.9343 1.77909 27.4052C2.0695 24.567 3.49147 22.3444 5.00863 22.3444H5.01364C5.3391 22.3444 5.63451 22.1642 5.77973 21.8738C5.92493 21.5835 5.8999 21.2381 5.70462 20.9778C4.40781 19.2108 3.97712 17.5638 4.4228 16.0772C5.34411 13.0136 9.64019 11.4018 9.68031 11.3867C10.0158 11.2615 10.2411 10.9412 10.2411 10.5858C10.2561 4.70401 13.7761 2.97696 15.8741 2.47142C19.2738 1.65047 22.9842 2.87689 23.7903 4.43875C23.9255 4.70405 24.1909 4.87926 24.4863 4.89927C24.7817 4.9193 25.0671 4.79415 25.2474 4.55387C28.1015 0.684442 32.5527 1.46025 34.846 2.92204C37.0592 4.33372 38.6413 6.81659 39.2924 9.92008C39.3425 10.1604 39.4075 10.4607 39.738 10.6559C39.8832 10.741 40.0485 10.7811 40.2137 10.7761C40.4991 10.7661 47.2036 10.5608 48.3402 16.6378C49.0011 20.1569 46.8881 22.905 46.097 23.9362C45.7665 24.3667 45.5011 24.7121 45.7114 25.2027C47.1135 28.5316 47.2937 31.4249 46.2472 33.7976C44.8001 37.0814 41.4404 38.3128 41.4054 38.3228C40.9998 38.4629 40.7645 38.8834 40.8496 39.3039C41.3553 41.7668 40.2487 44.0543 37.8253 45.5761C34.9762 47.3631 31.251 47.5283 28.9177 46.0517C29.148 43.3485 29.5636 41.166 30.2746 40.0998C30.3046 40.0548 30.4749 39.8195 30.7353 39.4491C31.8118 37.9423 34.3304 34.4182 35.6823 32.4159C36.168 31.7001 36.7338 29.1872 36.173 27.3951C35.8626 26.3989 35.2367 25.6931 34.3705 25.3578C34.3605 25.3528 34.3505 25.3578 34.3405 25.3528C34.3305 25.3478 34.3254 25.3427 34.3154 25.3377C34.2604 25.3177 34.2003 25.3227 34.1452 25.3177C34.1001 25.3127 34.0601 25.3027 34.015 25.3027C33.9399 25.3077 33.8698 25.3277 33.7997 25.3528C33.7697 25.3628 33.7346 25.3628 33.7046 25.3778C33.6094 25.4228 33.5193 25.4829 33.4442 25.558C33.4292 25.573 33.4242 25.593 33.4142 25.603C33.3591 25.6681 33.309 25.7332 33.274 25.8133C33.1388 26.0385 32.4678 26.8995 31.8169 27.7355C30.2546 29.7428 28.6975 31.7801 27.5909 33.4471C27.5058 30.3384 27.7261 26.4289 28.2318 24.9173C28.4421 24.5619 29.5687 22.7598 30.5651 21.1629C31.0658 20.362 31.5715 19.5461 32.0171 18.8352C32.3927 18.2345 32.4528 16.8129 31.947 15.6565C31.4914 14.6103 30.6402 13.9195 29.5536 13.7043C29.5336 13.6993 29.5136 13.7093 29.4935 13.7043C29.4335 13.6943 29.3784 13.6993 29.3183 13.7043C29.2632 13.7093 29.2131 13.7143 29.1631 13.7243C29.108 13.7393 29.0629 13.7644 29.0129 13.7894C28.9628 13.8144 28.9177 13.8345 28.8727 13.8695C28.8326 13.8995 28.7975 13.9396 28.7625 13.9796C28.7224 14.0247 28.6874 14.0647 28.6573 14.1198C28.6473 14.1348 28.6323 14.1498 28.6223 14.1648C27.9714 15.4914 25.6281 19.3909 24.4514 21.3382C23.7204 20.1919 22.6038 18.3548 21.9078 17.2084C21.1216 15.9119 20.701 15.226 20.5658 15.0359C20.5608 15.0259 20.5508 15.0209 20.5408 15.0108C20.5007 14.9608 20.4557 14.9257 20.4106 14.8857C20.3705 14.8507 20.3355 14.8156 20.2904 14.7906C20.2454 14.7656 20.1903 14.7505 20.1402 14.7355C20.0851 14.7155 20.0351 14.6955 19.98 14.6855C19.9299 14.6805 19.8798 14.6855 19.8298 14.6905C19.7697 14.6905 19.7046 14.6905 19.6445 14.7105C19.6345 14.7155 19.6245 14.7105 19.6095 14.7155C18.8183 14.9558 18.2125 15.5214 17.852 16.3423C17.171 17.8891 17.5215 19.9665 17.6917 20.322C18.1724 21.3281 19.1738 22.8198 20.1403 24.2615C20.7712 25.2026 21.6274 26.4791 21.7927 26.8746C21.7876 27.9658 21.7276 29.4375 21.6725 30.8642C21.6424 31.6501 21.6074 32.411 21.5874 33.1068C19.6346 31.605 17.1511 29.808 14.7076 29.0121C14.6976 29.0071 14.6825 29.0121 14.6725 29.0071C14.6125 28.9921 14.5524 28.9871 14.4923 28.9871C14.4422 28.9821 14.3921 28.977 14.3421 28.9821C14.287 28.9871 14.2369 29.0121 14.1818 29.0271C14.1318 29.0421 14.0767 29.0571 14.0316 29.0822C13.9866 29.1072 13.9515 29.1422 13.9115 29.1773C13.8664 29.2173 13.8163 29.2524 13.7813 29.2974C13.7713 29.3074 13.7612 29.3124 13.7512 29.3224C12.6847 30.7891 12.7098 32.0606 12.915 32.8615C13.3356 34.5033 14.8228 35.5196 15.1682 35.6798C16.9457 36.5157 21.0716 38.8333 21.0716 42.2373C21.0716 42.8731 21.0867 43.8993 21.1017 45.1858C17.1861 45.9667 14.0968 45.5412 11.9387 43.8893L11.9385 43.9043ZM6.19029 65.3191C6.29544 64.2829 6.78113 63.6172 7.06652 63.6172C7.38698 63.6172 7.68741 63.437 7.83262 63.1467C7.97782 62.8563 7.95279 62.5109 7.75751 62.2506C7.29686 61.6249 7.14665 61.0893 7.28684 60.6138C7.5472 59.7378 8.76388 59.112 9.20957 58.9468C9.54504 58.8217 9.77036 58.5013 9.77537 58.1459C9.78038 56.0985 10.8719 55.4078 11.7832 55.1875C13.065 54.8771 14.3818 55.3827 14.5822 55.7681C14.7174 56.0334 14.9828 56.2086 15.2782 56.2287C15.5736 56.2487 15.859 56.1236 16.0393 55.8833C17.1659 54.3565 18.8782 54.9572 19.439 55.3126C20.2652 55.8382 20.8561 56.7793 21.1014 57.9607C21.1315 58.0908 21.1915 58.4012 21.522 58.5964C21.6622 58.6815 21.8324 58.7215 21.9927 58.7165H22.1379H22.1429H22.1529H22.1579C22.7488 58.7316 24.5813 58.9268 24.9319 60.799C25.1722 62.0704 24.3761 63.1066 24.0757 63.4971C23.9255 63.6923 23.6501 64.0527 23.8504 64.5283C24.5764 66.2554 24.4512 67.6269 23.4999 68.613H8.35902C6.03573 68.0974 6.14584 65.7848 6.19595 65.3242L6.19029 65.3191ZM84.8324 68.6129C84.9876 66.2902 84.9375 60.809 84.7923 52.274C84.7573 50.0915 84.7272 48.3695 84.7272 47.5186C84.7272 43.9044 80.8167 41.6518 79.1043 40.8409C79.0092 40.7808 78.2481 40.2753 78.0828 39.5143C78.0177 39.214 78.0678 38.8986 78.208 38.5682C79.9855 39.3191 81.8331 40.7457 83.2202 41.822C83.4004 41.9622 83.5707 42.0924 83.7359 42.2175C83.8911 42.3326 84.0714 42.3927 84.2567 42.3927C84.3868 42.3927 84.517 42.3627 84.6372 42.3026C84.9326 42.1574 85.1179 41.8621 85.1179 41.5317C85.1179 40.7158 85.168 39.5344 85.213 38.3981C85.2631 37.1967 85.3132 35.9553 85.3132 35.0342C85.3132 34.5687 85.0328 34.1031 83.7159 32.1409C83.0199 31.1047 82.2338 29.9333 81.8833 29.2176C81.8132 28.8972 81.728 27.881 81.9984 27.2554C82.1586 27.5207 82.3389 27.816 82.5242 28.1214C84.2066 30.8946 85.0127 32.1911 85.3132 32.5115C85.4784 32.6867 85.7037 32.7818 85.939 32.7818C85.9691 32.7818 85.9991 32.7818 86.0242 32.7768C86.2895 32.7517 86.5299 32.6016 86.6701 32.3713C86.7852 32.1811 89.1536 28.3116 90.2552 26.3093C90.3253 26.3793 90.4004 26.4394 90.4555 26.5395C90.7359 27.0251 90.7209 27.6608 90.6658 27.851C90.3153 28.4166 89.9147 29.0574 89.5192 29.6881C88.2123 31.7855 87.5413 32.8768 87.5113 32.9669C86.8604 34.8091 86.7002 40.3105 87.0657 42.9184C87.1208 43.3138 87.4412 43.6192 87.8418 43.6542C87.8668 43.6542 87.8919 43.6592 87.9169 43.6592C88.2874 43.6592 88.6179 43.424 88.733 43.0686C89.1336 41.8371 91.6973 38.5383 93.0692 36.7662C93.3796 36.3658 93.615 36.0604 93.8002 35.8201C93.8152 35.8552 93.8353 35.8852 93.8503 35.9303C94.1958 36.8864 93.8403 38.4231 93.675 38.7185C92.5985 40.3154 90.5756 43.1436 89.7094 44.355C89.474 44.6854 89.3238 44.8906 89.3088 44.9207C87.4712 47.6688 87.6214 56.0034 87.9519 65.0335C88.0019 66.4101 88.047 67.6364 88.067 68.6177H84.8325L84.8324 68.6129ZM103.329 40.6254C102.192 43.2083 99.5437 44.1794 99.5186 44.1894C99.113 44.3296 98.8777 44.7501 98.9628 45.1706C99.5186 47.8887 97.4958 49.4906 96.5994 50.0562C94.3862 51.4478 91.5071 51.593 89.6746 50.4867C89.8599 48.3843 90.1853 46.6974 90.7361 45.8713C90.7612 45.8313 90.9014 45.6411 91.1117 45.3457C91.9779 44.1293 94.0107 41.286 95.1023 39.6741C95.5179 39.0584 95.9936 36.9961 95.5179 35.4843C95.2525 34.6333 94.7168 34.0277 93.9658 33.7373C93.9558 33.7323 93.9457 33.7373 93.9357 33.7323C93.9257 33.7273 93.9207 33.7223 93.9107 33.7173C93.8506 33.6972 93.7905 33.7022 93.7304 33.6972C93.6904 33.6922 93.6503 33.6822 93.6153 33.6822C93.5252 33.6872 93.445 33.7072 93.3649 33.7373C93.3449 33.7423 93.3249 33.7423 93.3099 33.7523C93.2147 33.7974 93.1246 33.8574 93.0495 33.9325C93.0295 33.9525 93.0194 33.9776 93.0044 33.9976C92.9594 34.0526 92.9093 34.1127 92.8742 34.1828C92.7541 34.373 92.2283 35.0538 91.7176 35.7095C90.556 37.2063 89.4444 38.658 88.5932 39.8944C88.5631 37.4616 88.7584 34.6833 89.1089 33.6072C89.2992 33.2918 90.1904 31.8651 90.9815 30.5936C91.3821 29.9479 91.7927 29.2921 92.1532 28.7165C92.5237 28.1208 92.5037 26.9044 92.1081 25.9984C91.7176 25.1023 90.9915 24.5116 90.0601 24.3264C90.0401 24.3214 90.0201 24.3314 90.0001 24.3264C89.94 24.3214 89.8849 24.3214 89.8248 24.3264C89.7697 24.3314 89.7197 24.3364 89.6696 24.3464C89.6145 24.3614 89.5695 24.3865 89.5194 24.4115C89.4693 24.4365 89.4242 24.4566 89.3792 24.4916C89.3391 24.5216 89.3041 24.5617 89.269 24.6017C89.229 24.6468 89.1939 24.6868 89.1639 24.7419C89.1539 24.7619 89.1388 24.7719 89.1288 24.7869C88.6331 25.8031 86.8956 28.7065 85.9093 30.3283C85.3285 29.4073 84.5223 28.0757 84.0015 27.2247C83.3456 26.1485 83.0302 25.6229 82.915 25.4627C82.91 25.4527 82.9 25.4477 82.89 25.4376C82.8499 25.3876 82.8048 25.3525 82.7548 25.3125C82.7147 25.2775 82.6797 25.2424 82.6396 25.2174C82.5895 25.1873 82.5345 25.1773 82.4794 25.1573C82.4293 25.1423 82.3842 25.1173 82.3292 25.1123C82.2741 25.1023 82.219 25.1123 82.1639 25.1173C82.1088 25.1223 82.0538 25.1173 81.9987 25.1323C81.9837 25.1373 81.9736 25.1323 81.9586 25.1373C81.2727 25.3475 80.7469 25.8331 80.4365 26.539C79.8957 27.7704 80.131 29.5074 80.3113 29.8879C80.7019 30.7138 81.513 31.9202 82.2991 33.0866C82.7898 33.8174 83.4458 34.7985 83.6059 35.139C83.6009 36.015 83.5559 37.1814 83.5058 38.3177C83.4858 38.8333 83.4658 39.3339 83.4457 39.8045C81.9036 38.6281 79.9958 37.2866 78.1031 36.6709C78.0931 36.6659 78.0781 36.6709 78.0681 36.6659C78.008 36.6509 77.9479 36.6509 77.8878 36.6458C77.8377 36.6408 77.7877 36.6358 77.7326 36.6408C77.6775 36.6458 77.6324 36.6709 77.5774 36.6859C77.5223 36.7009 77.4722 36.7159 77.4222 36.741C77.3771 36.766 77.342 36.801 77.302 36.8311C77.2519 36.8711 77.2068 36.9062 77.1668 36.9562C77.1568 36.9662 77.1468 36.9712 77.1418 36.9812C76.2455 38.2177 76.2655 39.2939 76.4408 39.9747C76.8013 41.3763 78.038 42.2122 78.3485 42.3574C79.7505 43.0182 83.0151 44.8453 83.0151 47.4934C83.0151 47.9839 83.0251 48.7598 83.0401 49.736C79.9958 50.3216 77.5974 49.9812 75.92 48.6998C73.4715 46.8276 73.3062 43.5187 73.3062 43.4887C73.2912 43.0933 73.0108 42.7579 72.6203 42.6778C68.5946 41.8468 67.498 38.3128 67.7834 35.5396C68.0088 33.332 69.0803 31.605 70.2218 31.605H70.2269C70.5473 31.605 70.8477 31.4248 70.993 31.1345C71.1382 30.8442 71.1131 30.4988 70.9178 30.2385C69.9064 28.8569 69.5659 27.5754 69.9114 26.434C70.6324 24.0462 74.0172 22.7697 74.0523 22.7597C74.3878 22.6346 74.6131 22.3142 74.6131 21.9588C74.6231 17.5587 77.0215 16.0569 79.0294 15.5714C81.8283 14.8956 84.6723 15.9969 85.2281 17.0732C85.3633 17.3385 85.6287 17.5137 85.9241 17.5337C86.2195 17.5537 86.5049 17.4286 86.6802 17.1883C88.9134 14.1598 92.3982 14.7655 94.2009 15.9118C95.9484 17.0281 97.1951 18.9903 97.7109 21.4482C97.7509 21.6484 97.816 21.9538 98.1465 22.149C98.2917 22.2341 98.4569 22.2742 98.6221 22.2692C98.8475 22.2592 104.11 22.0789 105.006 26.8644C105.522 29.6327 103.855 31.8052 103.229 32.6211C102.963 32.9665 102.688 33.3219 102.893 33.8075C104.005 36.4455 104.15 38.7332 103.329 40.6053L103.329 40.6254Z" fill="#B1A489"/>
</svg>
