<svg width="110" height="135" viewBox="0 0 110 135" fill="none" xmlns="http://www.w3.org/2000/svg">
<path d="M97.7071 62.082H87.2891V57.914C87.2891 56.7695 86.3516 55.832 85.2071 55.832V16.25C85.2071 15.6758 84.7384 15.207 84.1641 15.207C83.5899 15.207 83.1211 15.6758 83.1211 16.25V18.332H79.9961V16.25C79.9961 15.6758 79.5274 15.207 78.9531 15.207C78.3789 15.207 77.9101 15.6758 77.9101 16.25V18.332H74.7851V16.25C74.7851 15.6758 74.3164 15.207 73.7421 15.207C73.1679 15.207 72.6991 15.6758 72.6991 16.25V55.832C71.5546 55.832 70.6171 56.7695 70.6171 57.914V62.082H39.3671V57.914C39.3671 56.7695 38.4296 55.832 37.2851 55.832L37.2929 16.25C37.2929 15.6758 36.8242 15.207 36.2499 15.207C35.6757 15.207 35.2069 15.6758 35.2069 16.25V18.332H32.0819V16.25C32.0819 15.6758 31.6132 15.207 31.0389 15.207C30.4647 15.207 29.9959 15.6758 29.9959 16.25V18.332H26.8709V16.25C26.8709 15.6758 26.4022 15.207 25.8279 15.207C25.2537 15.207 24.7849 15.6758 24.7849 16.25V55.832C23.6404 55.832 22.7029 56.7695 22.7029 57.914V62.082H12.2929C11.1484 62.082 10.2109 63.0195 10.2109 64.164V102.707C10.2109 103.852 11.1484 104.789 12.2929 104.789H97.7109C98.8554 104.789 99.7929 103.852 99.7929 102.707V85.258C99.7929 84.6838 99.3242 84.215 98.7499 84.215C98.1757 84.215 97.7069 84.6838 97.7069 85.258V102.707H12.2929V64.164H18.5429V80.832C18.5429 81.9765 19.4804 82.914 20.6249 82.914H41.4569C42.6014 82.914 43.5389 81.9765 43.5389 80.832V64.164H66.4569V80.832C66.4569 81.9765 67.3944 82.914 68.5389 82.914H89.3709C90.5154 82.914 91.4529 81.9765 91.4529 80.832V64.164H97.7029V75.883C97.7029 76.4573 98.1717 76.926 98.7459 76.926C99.3202 76.926 99.7889 76.4573 99.7889 75.883V64.164C99.7889 63.0195 98.8516 62.082 97.7071 62.082ZM30.0001 37.082H26.8751V32.914H30.0001V37.082ZM32.0821 32.9179H35.2071V37.0859H32.0821V32.9179ZM30.0001 39.1679V43.3359H26.8751V39.1679H30.0001ZM32.0821 39.1679H35.2071V43.3359H32.0821V39.1679ZM35.2071 30.832H32.0821V26.664H35.2071V30.832ZM30.0001 30.832H26.8751V26.664H30.0001V30.832ZM26.8751 45.418H30.0001V49.586H26.8751V45.418ZM32.0821 45.418H35.2071V49.586H32.0821V45.418ZM35.2071 51.668V55.836H32.0821V51.668H35.2071ZM35.2071 20.418V24.586H32.0821V20.418H35.2071ZM30.0001 20.418V24.586H26.8751V20.418H30.0001ZM26.8751 51.668H30.0001V55.836H26.8751V51.668ZM24.7931 57.918H37.2931V62.086H24.7931V57.918ZM41.4571 80.832H20.6251V64.164H41.4571V80.832ZM77.9181 37.082H74.7931V32.914H77.9181V37.082ZM80.0001 32.9179H83.1251V37.0859H80.0001V32.9179ZM77.9181 39.1679V43.3359H74.7931V39.1679H77.9181ZM80.0001 39.1679H83.1251V43.3359H80.0001V39.1679ZM83.1251 30.832H80.0001V26.664H83.1251V30.832ZM77.9181 30.832H74.7931V26.664H77.9181V30.832ZM74.7931 45.418H77.9181V49.586H74.7931V45.418ZM80.0001 45.418H83.1251V49.586H80.0001V45.418ZM83.1251 51.668V55.836H80.0001V51.668H83.1251ZM83.1251 20.418V24.586H80.0001V20.418H83.1251ZM77.9181 20.418V24.586H74.7931V20.418H77.9181ZM74.7931 51.668H77.9181V55.836H74.7931V51.668ZM72.7072 57.918H85.2072V62.086H72.7072V57.918ZM89.3752 80.832H68.5432V64.164H89.3752V80.832ZM99.7932 79.6367V81.5117C99.7932 82.086 99.3245 82.5547 98.7502 82.5547C98.176 82.5547 97.7072 82.086 97.7072 81.5117V79.6367C97.7072 79.0625 98.176 78.5937 98.7502 78.5937C99.3245 78.5937 99.7932 79.0625 99.7932 79.6367ZM25.8322 92.2927C26.4064 92.2927 26.8752 92.7615 26.8752 93.3357C26.8752 93.91 26.4065 94.3787 25.8322 94.3787H20.6252C20.051 94.3787 19.5822 93.91 19.5822 93.3357C19.5822 92.7615 20.051 92.2927 20.6252 92.2927H25.8322ZM41.4572 87.0818C42.0314 87.0818 42.5002 87.5506 42.5002 88.1248C42.5002 88.6991 42.0315 89.1678 41.4572 89.1678H36.2502C35.676 89.1678 35.2072 88.6991 35.2072 88.1248C35.2072 87.5506 35.676 87.0818 36.2502 87.0818H41.4572ZM53.9572 78.7498H48.7502C48.176 78.7498 47.7072 78.2811 47.7072 77.7068C47.7072 77.1326 48.176 76.6638 48.7502 76.6638H53.9572C54.5314 76.6638 55.0002 77.1326 55.0002 77.7068C55.0002 78.2811 54.5315 78.7498 53.9572 78.7498ZM62.2931 71.4568H57.0861C56.5119 71.4568 56.0431 70.9881 56.0431 70.4138C56.0431 69.8396 56.5119 69.3708 57.0861 69.3708H62.2931C62.8673 69.3708 63.3361 69.8396 63.3361 70.4138C63.3361 70.988 62.8674 71.4568 62.2931 71.4568ZM59.1681 89.1678C59.1681 88.5936 59.6369 88.1248 60.2111 88.1248H65.4181C65.9923 88.1248 66.4611 88.5936 66.4611 89.1678C66.4611 89.7421 65.9924 90.2108 65.4181 90.2108H60.2111C59.6369 90.2108 59.1681 89.7421 59.1681 89.1678ZM91.4571 87.0819C92.0313 87.0819 92.5001 87.5507 92.5001 88.1249C92.5001 88.6992 92.0314 89.1679 91.4571 89.1679H86.2501C85.6759 89.1679 85.2071 88.6992 85.2071 88.1249C85.2071 87.5507 85.6759 87.0819 86.2501 87.0819H91.4571ZM82.0821 95.4178C82.6563 95.4178 83.1251 95.8866 83.1251 96.4608C83.1251 97.035 82.6564 97.5038 82.0821 97.5038H76.8751C76.3009 97.5038 75.8321 97.0351 75.8321 96.4608C75.8321 95.8866 76.3009 95.4178 76.8751 95.4178H82.0821ZM51.8751 94.3748C52.4493 94.3748 52.9181 94.8436 52.9181 95.4178C52.9181 95.9921 52.4494 96.4608 51.8751 96.4608H46.6681C46.0939 96.4608 45.6251 95.9921 45.6251 95.4178C45.6251 94.8436 46.0939 94.3748 46.6681 94.3748H51.8751Z" fill="#b1a489"/>
</svg>
