<svg width="100" height="125" viewBox="0 0 100 125" fill="none" xmlns="http://www.w3.org/2000/svg">
<path fill-rule="evenodd" clip-rule="evenodd" d="M62.6156 28.5318L62.8476 43.0048C63.6873 43.058 64.4762 43.4256 65.057 44.0345C65.6378 44.6433 65.9679 45.4486 65.9815 46.2899C65.9952 47.1312 65.6913 47.9468 65.1305 48.5741C64.5697 49.2014 63.7932 49.5944 62.9556 49.6748L63.2826 70.0408C63.3093 71.7656 63.8848 73.4371 64.9256 74.8128C65.6863 75.8257 66.6764 76.6437 67.8146 77.1998C67.9971 76.4647 68.4235 75.8132 69.0241 75.3518C69.6248 74.8905 70.3642 74.6464 71.1215 74.6597C71.8788 74.6729 72.6092 74.9426 73.1934 75.4247C73.7775 75.9068 74.1809 76.5728 74.3376 77.3138C75.5551 76.7796 76.6205 75.9506 77.4376 74.9018C78.519 73.5199 79.1062 71.8155 79.1056 70.0608V29.0498C79.1139 28.782 79.2262 28.528 79.4185 28.3416C79.6109 28.1551 79.8682 28.0509 80.1361 28.0509C80.404 28.0509 80.6613 28.1551 80.8537 28.3416C81.046 28.528 81.1583 28.782 81.1666 29.0498V70.0568C81.1648 72.2705 80.4216 74.4198 79.0556 76.1618C77.8606 77.6976 76.2461 78.8542 74.4076 79.4918V87.9188C78.5914 87.1547 82.3758 84.9501 85.104 81.6874C87.8323 78.4247 89.3322 74.3098 89.3436 70.0568V29.0498C89.3519 28.782 89.4642 28.528 89.6565 28.3416C89.8489 28.1551 90.1062 28.0509 90.3741 28.0509C90.642 28.0509 90.8993 28.1551 91.0917 28.3416C91.284 28.528 91.3963 28.782 91.4046 29.0498V70.0568C91.3925 74.8589 89.6757 79.5008 86.5601 83.155C83.4444 86.8093 79.1324 89.2385 74.3926 90.0098C74.3067 90.8375 73.9156 91.6035 73.2956 92.1585C72.6755 92.7134 71.871 93.0175 71.0388 93.0114C70.2067 93.0053 69.4067 92.6894 68.7949 92.1254C68.1831 91.5614 67.8033 90.7896 67.7296 89.9608C63.2306 89.1647 59.1382 86.8563 56.1296 83.4178C52.8842 79.7227 51.0631 74.9912 50.9936 70.0738L50.6656 49.6738C49.8415 49.601 49.0736 49.2255 48.5101 48.6199C47.9466 48.0142 47.6275 47.2212 47.6143 46.394C47.6011 45.5669 47.8949 44.7641 48.4388 44.1408C48.9827 43.5175 49.7383 43.1177 50.5596 43.0188L50.3266 28.5608C50.2994 26.8505 49.7332 25.1924 48.7086 23.8228C47.9233 22.768 46.8902 21.9231 45.7006 21.3628C45.4332 21.9727 44.9898 22.489 44.4273 22.8456C43.8649 23.2022 43.2088 23.3828 42.543 23.3645C41.8773 23.3461 41.2322 23.1296 40.6902 22.7425C40.1482 22.3555 39.734 21.8155 39.5006 21.1918C38.203 21.7159 37.0653 22.5705 36.2006 23.6708C35.1011 25.0576 34.5021 26.775 34.5006 28.5448V68.5348C35.3356 68.6122 36.1112 69.0003 36.6736 69.6224C37.2361 70.2444 37.5444 71.055 37.5377 71.8936C37.5309 72.7322 37.2094 73.5377 36.637 74.1505C36.0645 74.7634 35.2828 75.1389 34.4466 75.2028C34.0886 79.7664 32.0027 84.0215 28.6146 87.0998C24.7825 90.464 19.8373 92.2848 14.7386 92.2088H12.2046C12.0633 93.0345 11.6174 93.7771 10.9552 94.2901C10.2929 94.8031 9.46235 95.0491 8.62754 94.9795C7.79273 94.9099 7.01437 94.5298 6.44618 93.9143C5.87799 93.2987 5.56127 92.4925 5.55859 91.6548V79.9758C5.55859 79.0884 5.91112 78.2373 6.53861 77.6098C7.16611 76.9823 8.01718 76.6298 8.90459 76.6298C9.79201 76.6298 10.6431 76.9823 11.2706 77.6098C11.8981 78.2373 12.2506 79.0884 12.2506 79.9758L15.4046 79.9818C17.2088 80.0235 18.9688 79.4208 20.3686 78.2818C21.3048 77.4882 21.9466 76.4026 22.1906 75.1998C21.3618 75.1194 20.5928 74.733 20.0338 74.1159C19.4748 73.4988 19.1659 72.6955 19.1675 71.8629C19.1691 71.0302 19.4811 70.2281 20.0426 69.6132C20.604 68.9984 21.3745 68.6149 22.2036 68.5378V28.5478C22.2174 23.7331 23.9441 19.0805 27.0748 15.4227C30.2055 11.7649 34.5358 9.3406 39.2906 8.58377V8.34577C39.3058 7.46851 39.6649 6.6323 40.2907 6.01728C40.9164 5.40225 41.7587 5.05762 42.6361 5.05762C43.5135 5.05762 44.3558 5.40225 44.9815 6.01728C45.6073 6.6323 45.9664 7.46851 45.9816 8.34577V8.66078C50.4563 9.47641 54.5203 11.7902 57.5056 15.2218C60.7329 18.9124 62.544 23.6296 62.6156 28.5318ZM12.2506 90.1468H14.7386C19.3274 90.2249 23.7818 88.5968 27.2386 85.5778C30.1909 82.8902 32.0267 79.1923 32.3826 75.2158H24.2736C24.0131 77.0187 23.1026 78.6642 21.7136 79.8428C19.9398 81.3041 17.7025 82.0843 15.4046 82.0428L12.2506 82.0368V90.1508V90.1468ZM7.62059 79.9758V91.6538C7.62993 91.9882 7.76935 92.3059 8.00922 92.5392C8.2491 92.7724 8.5705 92.9029 8.90509 92.9029C9.23969 92.9029 9.56109 92.7724 9.80096 92.5392C10.0408 92.3059 10.1803 91.9882 10.1896 91.6538V79.9758C10.1803 79.6413 10.0408 79.3237 9.80096 79.0904C9.56109 78.8571 9.23969 78.7266 8.90509 78.7266C8.5705 78.7266 8.2491 78.8571 8.00922 79.0904C7.76935 79.3237 7.62993 79.6413 7.62059 79.9758ZM45.9816 19.2488C47.7236 19.9339 49.2394 21.0925 50.3576 22.5938C51.6398 24.3109 52.3471 26.389 52.3786 28.5318L52.6116 42.9998H60.7996L60.5676 28.5658C60.5042 24.1502 58.8739 19.9007 55.9676 16.5758C53.3716 13.5915 49.8649 11.5454 45.9896 10.7538V19.2538L45.9816 19.2488ZM39.2906 19.0858V10.6678C35.0866 11.4123 31.2781 13.6112 28.5313 16.8797C25.7845 20.1482 24.2742 24.2783 24.2646 28.5478V68.5238H32.4406V28.5478C32.4416 26.3166 33.1956 24.1511 34.5806 22.4018C35.7935 20.8606 37.4307 19.708 39.2906 19.0858ZM43.9206 20.0238V8.34577C43.9113 8.01131 43.7718 7.69367 43.532 7.4604C43.2921 7.22713 42.9707 7.09662 42.6361 7.09662C42.3015 7.09662 41.9801 7.22713 41.7402 7.4604C41.5004 7.69367 41.3609 8.01131 41.3516 8.34577V20.0238C41.3609 20.3582 41.5004 20.6759 41.7402 20.9091C41.9801 21.1424 42.3015 21.2729 42.6361 21.2729C42.9707 21.2729 43.2921 21.1424 43.532 20.9091C43.7718 20.6759 43.9113 20.3582 43.9206 20.0238ZM34.1916 70.5848H22.5136C22.1728 70.5848 21.8459 70.7202 21.605 70.9611C21.364 71.2021 21.2286 71.529 21.2286 71.8698C21.2286 72.2106 21.364 72.5374 21.605 72.7784C21.8459 73.0194 22.1728 73.1548 22.5136 73.1548H34.1916C34.5324 73.1548 34.8592 73.0194 35.1002 72.7784C35.3412 72.5374 35.4766 72.2106 35.4766 71.8698C35.4766 71.529 35.3412 71.2021 35.1002 70.9611C34.8592 70.7202 34.5324 70.5848 34.1916 70.5848ZM67.7176 79.3848C65.9551 78.7122 64.4182 77.5559 63.2836 76.0488C61.9808 74.3247 61.261 72.2305 61.2286 70.0698L60.8996 49.6898H52.7186L53.0456 70.0408C53.1087 74.4695 54.7501 78.7303 57.6746 82.0568C60.2892 85.0496 63.8202 87.0938 67.7176 87.8708V79.3888V79.3848ZM69.7786 77.9998V89.6738C69.7879 90.0082 69.9274 90.3259 70.1672 90.5591C70.4071 90.7924 70.7285 90.9229 71.0631 90.9229C71.3977 90.9229 71.7191 90.7924 71.959 90.5591C72.1988 90.3259 72.3383 90.0082 72.3476 89.6738V77.9998C72.3383 77.6653 72.1988 77.3477 71.959 77.1144C71.7191 76.8811 71.3977 76.7506 71.0631 76.7506C70.7285 76.7506 70.4071 76.8811 70.1672 77.1144C69.9274 77.3477 69.7879 77.6653 69.7786 77.9998ZM62.6366 45.0588H50.9586C50.6178 45.0588 50.291 45.1942 50.05 45.4351C49.809 45.6761 49.6736 46.003 49.6736 46.3438C49.6736 46.6846 49.809 47.0114 50.05 47.2524C50.291 47.4934 50.6178 47.6288 50.9586 47.6288H62.6366C62.9774 47.6288 63.3042 47.4934 63.5452 47.2524C63.7862 47.0114 63.9216 46.6846 63.9216 46.3438C63.9216 46.003 63.7862 45.6761 63.5452 45.4351C63.3042 45.1942 62.9774 45.0588 62.6366 45.0588ZM91.0996 25.4498H79.4166C79.0758 25.4498 78.7489 25.5852 78.508 25.8261C78.267 26.0671 78.1316 26.394 78.1316 26.7348C78.1316 27.0756 78.267 27.4024 78.508 27.6434C78.7489 27.8844 79.0758 28.0198 79.4166 28.0198H91.0996C91.4404 28.0198 91.7672 27.8844 92.0082 27.6434C92.2492 27.4024 92.3846 27.0756 92.3846 26.7348C92.3846 26.394 92.2492 26.0671 92.0082 25.8261C91.7672 25.5852 91.4404 25.4498 91.0996 25.4498ZM79.4166 23.3888C78.5292 23.3888 77.6781 23.7413 77.0506 24.3688C76.4231 24.9963 76.0706 25.8474 76.0706 26.7348C76.0706 27.6222 76.4231 28.4733 77.0506 29.1008C77.6781 29.7283 78.5292 30.0808 79.4166 30.0808H91.0996C91.987 30.0808 92.8381 29.7283 93.4656 29.1008C94.0931 28.4733 94.4456 27.6222 94.4456 26.7348C94.4456 25.8474 94.0931 24.9963 93.4656 24.3688C92.8381 23.7413 91.987 23.3888 91.0996 23.3888H79.4166Z" fill="#B1A489"/>
</svg>
