<svg width="100" height="125" viewBox="0 0 100 125" fill="none" xmlns="http://www.w3.org/2000/svg">
<path fill-rule="evenodd" clip-rule="evenodd" d="M11.459 54.087C11.5411 54.0666 11.6254 54.0562 11.71 54.056H28.11C28.8587 54.0574 29.5764 54.3555 30.1058 54.885C30.6351 55.4145 30.9329 56.1323 30.934 56.881V73.529H38.807L32.957 59.291C32.8932 59.1614 32.8576 59.0196 32.8526 58.8752C32.8476 58.7307 32.8733 58.5868 32.928 58.453L37.206 47.969L37.219 47.937H14.532V39.455H46.064V43.417L49.137 42.154V10.684H11.459V54.084V54.087ZM68.678 78.067C70.1283 78.0673 71.5388 78.5411 72.6953 79.4163C73.8517 80.2915 74.6908 81.5204 75.085 82.916H75.925C76.3194 81.5206 77.1586 80.2921 78.315 79.4172C79.4715 78.5423 80.8819 78.0689 82.332 78.0689C83.7821 78.0689 85.1925 78.5423 86.349 79.4172C87.5054 80.2921 88.3446 81.5206 88.739 82.916H92.175C92.3773 82.915 92.571 82.8342 92.7141 82.6911C92.8571 82.5481 92.938 82.3543 92.939 82.152V75.59H30.939V82.916H34.287V80.691C34.2886 79.8959 34.6052 79.1337 35.1674 78.5715C35.7297 78.0092 36.4918 77.6926 37.287 77.691H57.031C57.8262 77.6926 58.5883 78.0092 59.1506 78.5715C59.7128 79.1337 60.0294 79.8959 60.031 80.691V82.916H62.27C62.6642 81.5204 63.5033 80.2915 64.6597 79.4163C65.8162 78.5411 67.2277 78.0673 68.678 78.067ZM75.328 84.977C75.2613 86.6961 74.5315 88.3226 73.2917 89.5152C72.0519 90.7079 70.3984 91.3741 68.678 91.3741C66.9576 91.3741 65.3041 90.7079 64.0643 89.5152C62.8245 88.3226 62.0947 86.6961 62.028 84.977H60.028V85.377C60.0259 86.172 59.7091 86.9339 59.147 87.496C58.5848 88.0582 57.823 88.3749 57.028 88.377H37.284C36.489 88.3749 35.7272 88.0582 35.165 87.496C34.6029 86.9339 34.2861 86.172 34.284 85.377V84.977H29.905C29.6692 84.9768 29.4405 84.8958 29.2571 84.7476C29.0737 84.5993 28.9466 84.3926 28.897 84.162C28.5337 82.7685 27.89 81.4638 27.0052 80.3276C26.1203 79.1914 25.0131 78.2476 23.751 77.554C22.491 76.9098 21.0731 76.639 19.6643 76.7734C18.2555 76.9079 16.9144 77.4421 15.799 78.313C13.832 79.8241 12.339 82.423 11.944 86.091C11.9366 86.2289 11.9416 86.3671 11.959 86.504C11.965 86.57 11.968 86.592 11.97 86.604C11.9772 86.6517 11.9809 86.6998 11.981 86.748C11.981 86.8834 11.9543 87.0175 11.9025 87.1426C11.8507 87.2677 11.7748 87.3813 11.679 87.4771C11.5833 87.5728 11.4696 87.6488 11.3446 87.7006C11.2195 87.7524 11.0854 87.779 10.95 87.779H7.82501C7.07868 87.778 6.363 87.4821 5.83387 86.9558C5.30473 86.4295 5.00502 85.7154 5.00001 84.969V66.379C4.99938 66.1927 5.04988 66.0097 5.14601 65.85L9.40001 57.4V8.62305H51.2V21.074H86.185V43.967C86.655 44.0386 87.0897 44.2591 87.425 44.596C87.6322 44.8019 87.7966 45.0467 87.9088 45.3163C88.021 45.5859 88.0789 45.875 88.079 46.167V72.537C88.0794 72.8798 88.0004 73.218 87.848 73.525H95V82.148C94.9987 82.8969 94.7006 83.6147 94.1711 84.1442C93.6416 84.6737 92.9238 84.9717 92.175 84.973H88.983C88.9163 86.6921 88.1865 88.3186 86.9467 89.5112C85.7069 90.7039 84.0534 91.3701 82.333 91.3701C80.6126 91.3701 78.9591 90.7039 77.7193 89.5112C76.4795 88.3186 75.7497 86.6921 75.683 84.973L75.328 84.977ZM71.928 81.477C72.6792 82.2285 73.1465 83.2173 73.2505 84.2747C73.3544 85.3322 73.0885 86.3929 72.4981 87.2763C71.9077 88.1597 71.0292 88.8111 70.0124 89.1194C68.9955 89.4277 67.9033 89.374 66.9216 88.9673C65.94 88.5606 65.1297 87.8262 64.6288 86.8891C64.128 85.952 63.9675 84.8703 64.1747 83.8281C64.382 82.786 64.9442 81.8479 65.7655 81.1738C66.5868 80.4997 67.6165 80.1312 68.679 80.131C69.2826 80.1302 69.8803 80.2486 70.4379 80.4796C70.9955 80.7106 71.5019 81.0496 71.928 81.477ZM85.582 81.477C86.3332 82.2285 86.8005 83.2173 86.9045 84.2747C87.0084 85.3322 86.7425 86.3929 86.1521 87.2763C85.5617 88.1597 84.6832 88.8111 83.6664 89.1194C82.6495 89.4277 81.5573 89.374 80.5756 88.9673C79.594 88.5606 78.7837 87.8262 78.2828 86.8891C77.782 85.952 77.6215 84.8703 77.8288 83.8281C78.036 82.786 78.5982 81.8479 79.4195 81.1738C80.2408 80.4997 81.2705 80.1312 82.333 80.131C82.9366 80.1302 83.5343 80.2486 84.0919 80.4796C84.6495 80.7106 85.1559 81.0496 85.582 81.477ZM20.109 78.067C18.5696 78.0672 17.0779 78.6012 15.888 79.5779C14.6982 80.5546 13.8838 81.9137 13.5836 83.4235C13.2834 84.9333 13.516 86.5006 14.2417 87.8581C14.9675 89.2157 16.1415 90.2796 17.5638 90.8687C18.986 91.4577 20.5685 91.5354 22.0416 91.0885C23.5147 90.6415 24.7873 89.6977 25.6425 88.4177C26.4977 87.1377 26.8827 85.6008 26.7318 84.0688C26.5809 82.5369 25.9035 81.1046 24.815 80.016C24.1977 79.3972 23.4641 78.9064 22.6565 78.5719C21.8489 78.2374 20.9831 78.0658 20.109 78.067ZM23.358 81.474C22.6065 80.7201 21.6168 80.2501 20.5575 80.1442C19.4983 80.0384 18.4351 80.3031 17.5492 80.8934C16.6633 81.4838 16.0096 82.363 15.6995 83.3814C15.3894 84.3997 15.4421 85.4941 15.8486 86.478C16.2551 87.4619 16.9903 88.2743 17.9288 88.7767C18.8672 89.2792 19.9509 89.4406 20.9951 89.2335C22.0393 89.0263 22.9793 88.4635 23.6549 87.6408C24.3305 86.8181 24.6999 85.7866 24.7 84.722C24.7009 84.1187 24.5826 83.5212 24.3518 82.9638C24.121 82.4064 23.7822 81.9001 23.355 81.474H23.358ZM57.026 26.327H56V35.671H78.127V26.327H57.026ZM76.066 28.388H58.056V33.61H76.066V28.388ZM31.329 19.152H44V23.512H31.329V19.152ZM29.268 23.512H16.593V19.152H29.268V23.512ZM31.329 30.334H44V34.694H31.329V30.334ZM29.268 34.694H16.593V30.334H29.268V34.694ZM31.329 41.516H44V44.264L40.078 45.876H31.329V41.516ZM29.268 45.876H16.593V41.516H29.268V45.876ZM40.746 47.824L45.346 45.934C45.4012 45.9168 45.4547 45.8947 45.506 45.868L50.48 43.824C50.5351 43.807 50.5886 43.7852 50.64 43.759L56.44 41.374L69.695 70.928L63.367 73.528H52.548L40.527 47.914L40.586 47.889C40.6412 47.8722 40.6947 47.8504 40.746 47.824ZM15.562 28.273H46.062V36.755H14.532V28.273H15.562ZM15.562 17.091H46.062V25.573H14.532V17.091H15.562ZM84.124 43.942V23.136H51.2V41.308L56.578 39.098L56.597 39.091H56.603H56.615H56.622H56.627H56.639H56.646H56.652H56.658H56.664H56.671H56.677H56.684H56.696H56.703H56.709H56.715H56.722H56.728H56.734H56.747H56.753H56.76H56.772H56.779H56.785H56.975L80.817 38.571C81.0303 38.5589 81.2421 38.6135 81.423 38.7273C81.6038 38.8411 81.7447 39.0085 81.826 39.206L83.802 44.015L84.124 43.942ZM11.381 58.028L12.343 56.118H21.51V63.523C21.5066 64.4862 21.1224 65.409 20.4412 66.0899C19.76 66.7709 18.8372 67.1549 17.874 67.158H7.06101V66.617L11.313 58.165C11.3394 58.1213 11.3622 58.0755 11.381 58.028ZM57.031 79.752C57.2798 79.7531 57.5181 79.8523 57.6942 80.0282C57.8702 80.204 57.9697 80.4422 57.971 80.691V85.377C57.9694 85.6259 57.8699 85.864 57.6939 86.04C57.518 86.2159 57.2798 86.3155 57.031 86.317H37.284C37.0352 86.3155 36.797 86.2159 36.6211 86.04C36.4451 85.864 36.3456 85.6259 36.344 85.377V80.691C36.3453 80.4422 36.4448 80.204 36.6208 80.0282C36.7969 79.8523 37.0352 79.7531 37.284 79.752H57.031ZM20.11 81.152C19.2829 81.1521 18.4814 81.4389 17.8421 81.9636C17.2028 82.4884 16.7652 83.2186 16.6039 84.0298C16.4425 84.841 16.5675 85.683 16.9574 86.4124C17.3473 87.1419 17.9781 87.7135 18.7422 88.03C19.5064 88.3465 20.3566 88.3882 21.1481 88.1481C21.9396 87.9079 22.6233 87.4008 23.0828 86.7131C23.5423 86.0254 23.7491 85.1996 23.668 84.3765C23.5869 83.5534 23.2229 82.7839 22.638 82.199C22.3063 81.8666 21.9123 81.603 21.4785 81.4234C21.0446 81.2437 20.5796 81.1515 20.11 81.152ZM21.181 83.652C20.9332 83.4038 20.6069 83.2491 20.2579 83.2144C19.9088 83.1797 19.5585 83.2672 19.2667 83.4619C18.9749 83.6566 18.7596 83.9464 18.6576 84.282C18.5555 84.6177 18.573 84.9783 18.7071 85.3024C18.8412 85.6266 19.0835 85.8942 19.3929 86.0597C19.7022 86.2252 20.0593 86.2783 20.4034 86.2099C20.7474 86.1416 21.0572 85.956 21.2797 85.6849C21.5023 85.4138 21.624 85.0738 21.624 84.723C21.6243 84.5241 21.5854 84.3271 21.5094 84.1433C21.4333 83.9596 21.3217 83.7926 21.181 83.652ZM82.332 81.152C83.159 81.1542 83.9597 81.443 84.5977 81.9692C85.2356 82.4954 85.6714 83.2266 85.8308 84.0381C85.9902 84.8496 85.8633 85.6913 85.4717 86.4197C85.0801 87.1481 84.4481 87.7183 83.6833 88.033C82.9186 88.3478 82.0683 88.3876 81.2775 88.1458C80.4866 87.904 79.804 87.3954 79.3461 86.7068C78.8881 86.0182 78.683 85.1921 78.7658 84.3692C78.8485 83.5464 79.2141 82.7776 79.8 82.194C80.1318 81.8618 80.5258 81.5982 80.9597 81.4186C81.3935 81.2389 81.8585 81.1466 82.328 81.147L82.332 81.152ZM83.403 83.652C83.1552 83.4045 82.8293 83.2505 82.4807 83.2164C82.1321 83.1822 81.7825 83.27 81.4914 83.4647C81.2002 83.6594 80.9856 83.949 80.884 84.2842C80.7825 84.6194 80.8003 84.9794 80.9344 85.303C81.0686 85.6265 81.3107 85.8935 81.6196 86.0586C81.9286 86.2236 82.2852 86.2764 82.6287 86.208C82.9722 86.1396 83.2813 85.9543 83.5035 85.6835C83.7256 85.4127 83.847 85.0733 83.847 84.723C83.8473 84.5241 83.8083 84.327 83.732 84.1432C83.6558 83.9594 83.544 83.7924 83.403 83.652ZM68.678 81.152C69.5051 81.1521 70.3066 81.4389 70.9459 81.9636C71.5852 82.4884 72.0229 83.2186 72.1842 84.0298C72.3455 84.841 72.2205 85.683 71.8306 86.4124C71.4407 87.1419 70.8099 87.7135 70.0458 88.03C69.2816 88.3465 68.4314 88.3882 67.6399 88.1481C66.8484 87.9079 66.1647 87.4008 65.7052 86.7131C65.2458 86.0254 65.0389 85.1996 65.12 84.3765C65.2011 83.5534 65.5651 82.7839 66.15 82.199C66.4816 81.8666 66.8757 81.603 67.3095 81.4233C67.7434 81.2436 68.2084 81.1514 68.678 81.152ZM69.749 83.652C69.5012 83.4045 69.1753 83.2505 68.8267 83.2164C68.4781 83.1822 68.1285 83.27 67.8374 83.4647C67.5462 83.6594 67.3316 83.949 67.23 84.2842C67.1285 84.6194 67.1463 84.9794 67.2804 85.303C67.4146 85.6265 67.6567 85.8935 67.9656 86.0586C68.2746 86.2236 68.6311 86.2764 68.9747 86.208C69.3182 86.1396 69.6273 85.9543 69.8495 85.6835C70.0716 85.4127 70.193 85.0733 70.193 84.723C70.1932 84.5241 70.1541 84.327 70.0779 84.1432C70.0017 83.9594 69.8899 83.7925 69.749 83.652ZM22.958 71.658C22.82 71.6623 22.6825 71.6389 22.5537 71.589C22.4249 71.5392 22.3075 71.464 22.2083 71.3678C22.1092 71.2717 22.0303 71.1567 21.9765 71.0295C21.9226 70.9023 21.8949 70.7656 21.8949 70.6275C21.8949 70.4895 21.9226 70.3528 21.9765 70.2256C22.0303 70.0984 22.1092 69.9834 22.2083 69.8873C22.3075 69.7911 22.4249 69.7159 22.5537 69.6661C22.6825 69.6162 22.82 69.5927 22.958 69.597H26.538C26.676 69.5927 26.8135 69.6162 26.9423 69.6661C27.0711 69.7159 27.1885 69.7911 27.2877 69.8873C27.3869 69.9834 27.4657 70.0984 27.5195 70.2256C27.5734 70.3528 27.6011 70.4895 27.6011 70.6275C27.6011 70.7656 27.5734 70.9023 27.5195 71.0295C27.4657 71.1567 27.3869 71.2717 27.2877 71.3678C27.1885 71.464 27.0711 71.5392 26.9423 71.589C26.8135 71.6389 26.676 71.6623 26.538 71.658H22.958ZM28.874 79.422C27.8094 77.8507 26.3646 76.5741 24.674 75.711C23.0688 74.8968 21.265 74.5561 19.4734 74.7287C17.6817 74.9014 15.9762 75.5802 14.556 76.686C12.19 78.5 10.4 81.532 9.91501 85.733H7.82501C7.6227 85.732 7.42899 85.6512 7.28594 85.5081C7.14289 85.3651 7.06206 85.1713 7.06101 84.969V69.22H17.874C19.3848 69.2169 20.8327 68.6153 21.901 67.5471C22.9693 66.4788 23.5708 65.0308 23.574 63.52V56.118H28.114C28.3162 56.1186 28.51 56.1991 28.6529 56.3421C28.7959 56.4851 28.8765 56.6788 28.877 56.881V79.422H28.874ZM50.28 73.529H41.029L34.993 58.841L38.893 49.273L50.28 73.529ZM58.542 41.038L71.4 69.71L80.591 60.71V46.171C80.5912 45.8791 80.6489 45.5901 80.761 45.3205C80.873 45.0509 81.0372 44.8061 81.244 44.6C81.3829 44.4615 81.5392 44.3415 81.709 44.243L80.2 40.565L58.539 41.038H58.542ZM71.787 72.208C71.6834 72.3107 71.5589 72.3898 71.422 72.44L68.772 73.529H80.822C80.6697 73.222 80.5906 72.8838 80.591 72.541V63.584L71.791 72.208H71.787ZM82.652 68.643H86.018V65.762H82.652V68.643ZM86.018 70.7H82.652V72.537C82.6522 72.559 82.6567 72.5808 82.6652 72.601C82.6738 72.6213 82.6863 72.6396 82.702 72.655C82.7339 72.6859 82.7766 72.7031 82.821 72.703H85.853C85.8749 72.703 85.8965 72.6985 85.9166 72.6899C85.9367 72.6813 85.9549 72.6688 85.97 72.653C85.9857 72.6376 85.9982 72.6193 86.0068 72.599C86.0154 72.5788 86.0199 72.557 86.02 72.535V70.7H86.018ZM82.652 63.7H86.018V60.82H82.652V63.7ZM82.652 58.758H86.018V55.877H82.652V58.758ZM82.652 53.815H86.018V50.935H82.652V53.816V53.815ZM82.652 48.873H86.018V46.173C86.0183 46.1283 86.0011 46.0852 85.97 46.053C85.9549 46.0373 85.9367 46.0247 85.9166 46.0162C85.8965 46.0076 85.8749 46.0031 85.853 46.003H82.819C82.7969 46.0026 82.7749 46.0067 82.7544 46.015C82.7339 46.0233 82.7152 46.0357 82.6996 46.0514C82.684 46.0671 82.6718 46.0858 82.6636 46.1063C82.6554 46.1269 82.6515 46.1489 82.652 46.171V48.873Z" fill="#B1A489"/>
</svg>
