<svg width="31" height="40" viewBox="0 0 31 40" fill="none" xmlns="http://www.w3.org/2000/svg">
<path fill-rule="evenodd" clip-rule="evenodd" d="M23.5927 10.8613H7.40718C7.24002 10.8613 7.10439 10.7214 7.10439 10.5488C7.10443 10.3762 7.23998 10.2363 7.40712 10.2363L23.5927 10.2363C23.7599 10.2363 23.8954 10.3763 23.8954 10.5488C23.8955 10.7214 23.7598 10.8613 23.5927 10.8613ZM6.2637 28.7489C6.0966 28.7489 5.96094 28.609 5.96094 28.4365V11.7287C5.96094 11.5561 6.09654 11.4163 6.26367 11.4163C6.43143 11.4162 6.56641 11.5562 6.56641 11.7288L6.56647 28.4364C6.56647 28.609 6.43143 28.7489 6.2637 28.7489ZM24.7356 28.7489C24.5684 28.7489 24.4328 28.609 24.4328 28.4365L24.4328 11.7287C24.4328 11.5561 24.5684 11.4163 24.7355 11.4163C24.9027 11.4162 25.0383 11.5562 25.0383 11.7288V28.4364C25.0383 28.609 24.9027 28.7489 24.7356 28.7489ZM23.5927 29.9288H7.40718C7.24002 29.9288 7.1044 29.7889 7.1044 29.6163C7.10443 29.4437 7.23999 29.3038 7.40713 29.3038L23.5927 29.3038C23.7599 29.3038 23.8954 29.4438 23.8954 29.6163C23.8955 29.7889 23.7598 29.9289 23.5927 29.9288Z" fill="#B1A489" stroke="#B1A489" stroke-width="0.5"/>
<path fill-rule="evenodd" clip-rule="evenodd" d="M6.26199 28.749C5.79909 28.749 5.42186 29.1381 5.42186 29.6164C5.4219 30.0947 5.79902 30.4838 6.26195 30.4838C6.72553 30.4838 7.10269 30.0947 7.10269 29.6164C7.10272 29.1381 6.72553 28.749 6.26199 28.749ZM6.26199 31.1088C5.46483 31.1088 4.81641 30.4393 4.81641 29.6164C4.81646 28.7935 5.46475 28.124 6.26195 28.124C7.05923 28.124 7.70814 28.7935 7.70814 29.6164C7.70816 30.4393 7.05918 31.1089 6.26199 31.1088Z" fill="#B1A489" stroke="#B1A489" stroke-width="0.5"/>
<path fill-rule="evenodd" clip-rule="evenodd" d="M6.26199 9.68159C5.79909 9.68159 5.42186 10.0708 5.42186 10.5491C5.4219 11.0273 5.79902 11.4165 6.26195 11.4165C6.72553 11.4164 7.10269 11.0273 7.10269 10.5491C7.10272 10.0707 6.72553 9.68163 6.26199 9.68159ZM6.26199 12.0415C5.46483 12.0415 4.81641 11.372 4.81641 10.5491C4.81646 9.72612 5.46475 9.05664 6.26195 9.05664C7.05923 9.05662 7.70814 9.72616 7.70814 10.5491C7.70816 11.372 7.05918 12.0415 6.26199 12.0415Z" fill="#B1A489" stroke="#B1A489" stroke-width="0.5"/>
<path fill-rule="evenodd" clip-rule="evenodd" d="M24.7347 28.749C24.2711 28.749 23.8945 29.1381 23.8945 29.6164C23.8946 30.0947 24.2711 30.4838 24.7346 30.4838C25.1982 30.4838 25.5747 30.0947 25.5747 29.6164C25.5748 29.1381 25.1982 28.749 24.7347 28.749ZM24.7347 31.1088C23.9374 31.1088 23.2891 30.4393 23.2891 29.6164C23.2891 28.7935 23.9374 28.124 24.7346 28.124C25.5318 28.124 26.1802 28.7935 26.1802 29.6164C26.1802 30.4393 25.5318 31.1089 24.7347 31.1088Z" fill="#B1A489" stroke="#B1A489" stroke-width="0.5"/>
<path fill-rule="evenodd" clip-rule="evenodd" d="M24.7347 9.68159C24.2711 9.68159 23.8945 10.0708 23.8945 10.5491C23.8946 11.0273 24.2711 11.4165 24.7346 11.4165C25.1982 11.4164 25.5747 11.0273 25.5747 10.5491C25.5748 10.0707 25.1982 9.68163 24.7347 9.68159ZM24.7347 12.0415C23.9374 12.0415 23.2891 11.372 23.2891 10.5491C23.2891 9.72612 23.9374 9.05664 24.7346 9.05664C25.5318 9.05662 26.1802 9.72616 26.1802 10.5491C26.1802 11.372 25.5318 12.0415 24.7347 12.0415Z" fill="#B1A489" stroke="#B1A489" stroke-width="0.5"/>
<path fill-rule="evenodd" clip-rule="evenodd" d="M24.4797 33.1728H6.51374C6.34658 33.1728 6.21094 33.0329 6.21094 32.8604C6.21099 32.6878 6.34654 32.5479 6.51368 32.5479H24.4797C24.6469 32.5479 24.7825 32.6878 24.7825 32.8604C24.7825 33.0329 24.6469 33.1729 24.4797 33.1728Z" fill="#B1A489" stroke="#B1A489" stroke-width="0.5"/>
<path fill-rule="evenodd" clip-rule="evenodd" d="M8.11631 34.3132C8.05706 34.3132 7.99771 34.2951 7.94473 34.258L6.34218 33.1179C6.26016 33.06 6.21094 32.9637 6.21094 32.8608C6.21099 32.758 6.26014 32.6616 6.34213 32.6037L7.94473 31.4635C8.08287 31.3654 8.27143 31.4014 8.36604 31.5435C8.46071 31.6856 8.42595 31.8804 8.28845 31.978L7.04725 32.8608L8.28851 33.743C8.42601 33.8413 8.46064 34.036 8.36604 34.1779C8.30739 34.2657 8.21278 34.3133 8.11631 34.3132Z" fill="#B1A489" stroke="#B1A489" stroke-width="0.5"/>
<path fill-rule="evenodd" clip-rule="evenodd" d="M24.4797 7.45114H6.51374C6.34658 7.45114 6.21094 7.31131 6.21094 7.1387C6.21099 6.96606 6.34654 6.82621 6.51368 6.82621L24.4797 6.82617C24.6469 6.82617 24.7825 6.96611 24.7825 7.1387C24.7825 7.31125 24.6469 7.4512 24.4797 7.45114Z" fill="#B1A489" stroke="#B1A489" stroke-width="0.5"/>
<path fill-rule="evenodd" clip-rule="evenodd" d="M22.8773 8.59133C22.7815 8.59133 22.6868 8.54416 22.6275 8.45613C22.5329 8.31395 22.5676 8.1194 22.7051 8.0215L23.9463 7.13892L22.7051 6.25644C22.5676 6.15852 22.5329 5.96395 22.6275 5.82183C22.7228 5.67965 22.9113 5.64376 23.0488 5.74175L24.6521 6.88155C24.7341 6.93985 24.7826 7.03615 24.7826 7.13894C24.7826 7.24168 24.734 7.33796 24.652 7.39629L23.0488 8.53609C22.9965 8.57344 22.9365 8.59137 22.8773 8.59133Z" fill="#B1A489" stroke="#B1A489" stroke-width="0.5"/>
<path fill-rule="evenodd" clip-rule="evenodd" d="M3.04105 29.5847C2.87389 29.5847 2.73828 29.4449 2.73828 29.2723L2.7383 10.7265C2.7383 10.5539 2.87387 10.4141 3.04101 10.4141C3.20815 10.4141 3.34374 10.554 3.34374 10.7266V29.2722C3.34374 29.4448 3.20813 29.5847 3.04105 29.5847Z" fill="#B1A489" stroke="#B1A489" stroke-width="0.5"/>
<path fill-rule="evenodd" clip-rule="evenodd" d="M4.14421 12.6937C4.04835 12.6937 3.95372 12.6465 3.89508 12.5585L3.03989 11.2774L2.18462 12.5585C2.09004 12.7006 1.90145 12.7365 1.76395 12.6385C1.6265 12.5406 1.59114 12.346 1.68636 12.2039L2.79077 10.5493C2.84689 10.4645 2.9402 10.4141 3.03985 10.4141C3.1395 10.4141 3.23284 10.4646 3.28898 10.5493L4.39333 12.2039C4.48862 12.346 4.45388 12.5406 4.31575 12.6385C4.26341 12.6758 4.20348 12.6938 4.14421 12.6937Z" fill="#B1A489" stroke="#B1A489" stroke-width="0.5"/>
<path fill-rule="evenodd" clip-rule="evenodd" d="M27.9584 29.5847C27.7913 29.5847 27.6562 29.4449 27.6562 29.2723L27.6563 10.7265C27.6563 10.5539 27.7912 10.4141 27.9584 10.4141C28.1261 10.4141 28.2611 10.554 28.2611 10.7266L28.2612 29.2722C28.2612 29.4448 28.1261 29.5847 27.9584 29.5847Z" fill="#B1A489" stroke="#B1A489" stroke-width="0.5"/>
<path fill-rule="evenodd" clip-rule="evenodd" d="M27.9576 29.5854C27.8585 29.5854 27.7652 29.5348 27.7084 29.4502L26.6041 27.7954C26.5095 27.6534 26.5441 27.4588 26.6816 27.3609C26.8197 27.2629 27.0083 27.2988 27.1029 27.4409L27.9576 28.722L28.8127 27.4409C28.9074 27.2988 29.0959 27.2629 29.2341 27.3609C29.3716 27.4588 29.4062 27.6534 29.3116 27.7955L28.2073 29.4501C28.1505 29.5348 28.0572 29.5854 27.9576 29.5854Z" fill="#B1A489" stroke="#B1A489" stroke-width="0.5"/>
</svg>
