<svg width="37" height="44" viewBox="0 0 37 44" fill="none" xmlns="http://www.w3.org/2000/svg">
<path d="M33.2156 13.2051H30.798V5.80563H33.2156C33.506 5.80563 33.7412 5.57773 33.7412 5.29637C33.7412 5.015 33.506 4.78711 33.2156 4.78711H27.3292C27.2267 4.78711 27.1269 4.81639 27.0415 4.86987L3.49602 19.7595C3.25294 19.9135 3.18462 20.2293 3.34361 20.4648C3.44478 20.615 3.61296 20.6952 3.78377 20.6952C3.88232 20.6952 3.98217 20.6685 4.07021 20.6125L6.20006 19.2655V28.0948H3.78376C3.49338 28.0948 3.25819 28.3227 3.25819 28.6041V33.815C3.25819 34.0964 3.49338 34.3243 3.78376 34.3243H12.7394C12.8406 34.3243 12.9392 34.2962 13.0246 34.2428L33.5007 21.4717C33.6505 21.3775 33.7411 21.2158 33.7411 21.0426V13.7145C33.7411 13.4332 33.506 13.2051 33.2156 13.2051ZM27.4856 5.80563H29.7469V13.2051H27.3293C27.0389 13.2051 26.8037 13.433 26.8037 13.7144V16.9278H24.9117V7.43262L27.4856 5.80563ZM15.5565 20.6493C15.2661 20.6493 15.0309 20.8772 15.0309 21.1585V24.372H13.1389V14.8781L17.9741 11.82V20.6493L15.5565 20.6493ZM19.0251 11.1554L23.8603 8.09728V16.9266H21.4427C21.1523 16.9266 20.9171 17.1545 20.9171 17.4359V20.6493H19.0251V11.1554ZM7.25235 18.6008L12.0876 15.5427V24.3721H9.66997C9.37959 24.3721 9.1444 24.6 9.1444 24.8813V28.0948H7.25235V18.6008ZM32.6898 20.7652L12.5854 33.3058H4.30917V29.1134H9.67013C9.96051 29.1134 10.1957 28.8855 10.1957 28.6042V25.3907H15.5567C15.847 25.3907 16.0822 25.1629 16.0822 24.8815V21.6681H21.4432C21.7336 21.6681 21.9688 21.4402 21.9688 21.1588V17.9454H27.3297C27.6201 17.9454 27.8553 17.7175 27.8553 17.4361V14.2227L32.6905 14.2239L32.6898 20.7652Z" fill="#B1A489"/>
</svg>
