<svg width="26" height="32" viewBox="0 0 26 32" fill="none" xmlns="http://www.w3.org/2000/svg">
<path d="M17.6858 20.0598L18.5297 19.4978C19.2009 19.0496 19.6025 18.3005 19.6025 17.4922V17.357C20.5194 17.0894 21.1906 16.2404 21.1906 15.2357V15.1311C21.1906 13.9126 20.1999 12.92 18.9858 12.92L8.92924 12.9209C8.96709 12.7783 8.9911 12.632 8.9911 12.4802L8.99017 4.05066C8.99017 3.1238 8.23861 2.37012 7.3144 2.37012H6.48436C5.56014 2.37012 4.80859 3.12382 4.80859 4.05066V12.4795C4.80859 13.4063 5.56016 14.16 6.48436 14.16H6.92386C6.77982 14.4535 6.69673 14.7832 6.69673 15.1322V15.2369C6.69673 16.2415 7.36795 17.0906 8.28481 17.3582V17.4933C8.28481 18.3017 8.68644 19.0508 9.35769 19.4989L10.2034 20.0609C10.5293 20.2767 10.7232 20.6415 10.7232 21.035C10.7232 21.497 10.4518 21.9165 10.0308 22.1045L9.71407 22.2443C8.84617 22.6304 8.28389 23.4933 8.28389 24.4461V25.4563C8.28389 25.798 8.56088 26.0748 8.90065 26.0748H18.9868C19.3275 26.0748 19.6035 25.797 19.6035 25.4563V24.4461C19.6035 23.4934 19.0431 22.6304 18.1761 22.2443L17.8594 22.1045C17.4384 21.9174 17.167 21.498 17.167 21.035C17.166 20.6406 17.3599 20.2783 17.6858 20.0598ZM6.04298 12.4793V4.05055C6.04298 3.80611 6.24148 3.6098 6.48247 3.6098H7.31251C7.55625 3.6098 7.752 3.80887 7.752 4.05055V12.4793C7.752 12.7238 7.5535 12.9201 7.31251 12.9201H6.48247C6.23873 12.921 6.04298 12.7219 6.04298 12.4793ZM7.93112 15.2368V15.1322C7.93112 14.5961 8.36598 14.1599 8.90059 14.1599H18.9867C19.5213 14.1599 19.9562 14.596 19.9562 15.1322V15.2368C19.9562 15.7729 19.5213 16.209 18.9867 16.209L8.90059 16.2081C8.366 16.2081 7.93112 15.772 7.93112 15.2368ZM17.358 23.234L17.6747 23.3738C18.0957 23.5608 18.3672 23.9802 18.3672 24.4432V24.8339H9.51747V24.4432C9.51747 23.9812 9.78891 23.5617 10.2099 23.3738L10.5266 23.234C11.3945 22.8478 11.9568 21.9849 11.9568 21.0321C11.9568 20.2238 11.5552 19.4747 10.8839 19.0265L10.0401 18.4645C9.71413 18.246 9.52024 17.884 9.52024 17.4904V17.4451H18.3699V17.4904C18.3699 17.8812 18.176 18.2469 17.8501 18.4645L17.0062 19.0265C16.335 19.4747 15.9334 20.2238 15.9334 21.0321C15.9297 21.9849 16.4901 22.8497 17.358 23.234Z" fill="#B1A489"/>
</svg>
