<svg width="36" height="45" viewBox="0 0 36 45" fill="none" xmlns="http://www.w3.org/2000/svg">
<path d="M32.2444 31.0718H29.2171L30.0481 26.2152C30.5045 26.0745 30.8177 25.6475 30.8202 25.1605V24.6748V24.6761C30.819 24.0641 30.3319 23.568 29.7311 23.568H29.3501V19.0224C29.7783 19.6161 29.1685 20.3961 29.8435 20.8271C30.7269 21.2737 32.486 18.7958 32.4093 17.6734H32.4106C32.3645 16.5042 31.6269 15.482 30.5466 15.0862C30.3805 14.3766 29.9522 13.7581 29.3501 13.3609V5.82193C29.3501 5.59797 29.1724 5.41699 28.9525 5.41699H6.89989C6.68 5.41699 6.50232 5.59798 6.50232 5.82193V31.0719H3.7563C3.53642 31.0719 3.35742 31.2529 3.35742 31.4769V34.1787C3.35742 34.4027 3.5364 34.5836 3.7563 34.5836H32.2444C32.4643 34.5836 32.6433 34.4026 32.6433 34.1787V31.4769C32.6433 31.2529 32.4643 31.0718 32.2444 31.0718ZM17.4827 8.26449L17.6004 29.1225H8.96985V8.26449H17.4827ZM18.3968 29.1225L18.2792 8.26449H26.7883V13.3102C26.2475 13.6266 25.8231 14.1149 25.5827 14.6995C23.7815 14.012 22.2819 15.5146 22.0659 16.7347L22.0058 16.9091C22.0045 16.913 22.0058 16.9156 22.0045 16.9196V16.9183C21.6606 17.0875 21.3563 17.331 21.116 17.6331C20.6481 18.2047 20.4308 18.9469 20.5165 19.6852C20.6686 20.844 22.2436 22.3362 23.0682 22.4013C23.632 22.4013 23.724 21.8036 23.6013 21.4052C23.4428 20.9794 23.5565 20.4976 23.8902 20.1943C24.6815 19.6513 24.9628 18.1161 24.5741 17.607V17.6057C24.4233 17.3271 24.1893 17.1031 23.9081 16.9651C23.9822 16.6318 24.2647 16.3882 24.5997 16.3687C24.9359 16.3492 25.244 16.5588 25.3552 16.8818C25.3757 18.5797 25.4089 22.3347 25.4204 23.5681H22.8623C22.2615 23.5681 21.7744 24.0642 21.7744 24.6761V25.1618V25.1605C21.7757 25.6696 22.117 26.1123 22.6028 26.2334L23.0579 29.1215L18.3968 29.1225ZM23.8747 17.9898C24.0166 18.3752 23.9655 18.8062 23.7379 19.1461C23.4656 19.6591 23.1396 19.5979 22.8878 20.2112C22.471 21.1878 23.2675 21.9716 22.0798 20.8219C21.0992 19.9807 21.1031 18.8948 21.727 18.1513C21.9839 17.7984 22.3751 17.5706 22.8034 17.5224C23.215 17.482 23.619 17.6578 23.8747 17.9898ZM23.4145 26.2685L29.2311 26.2698L28.4104 31.0718L24.1699 31.0705L23.4145 26.2685ZM30.0238 24.6761C30.0071 24.9326 30.1273 25.4612 29.7246 25.4599H22.862V25.4586C22.701 25.4586 22.5693 25.3258 22.5693 25.1604C22.5859 24.9065 22.4657 24.3805 22.862 24.3766H25.8216H29.7308V24.3779C29.8932 24.3779 30.0238 24.5107 30.0238 24.6761ZM27.2023 23.568V15.6747C27.1806 15.2801 27.435 14.926 27.8108 14.8283C28.1867 14.7306 28.5766 14.9181 28.7428 15.2749C27.6447 15.8543 27.5066 17.1903 28.5562 18.366L28.5549 23.5677L27.2023 23.568ZM31.6139 17.6773C31.6357 18.4547 30.8137 19.4052 30.3112 19.9156L30.3125 19.9143C30.3547 19.4625 30.2588 19.0067 30.0377 18.6122C29.6861 18.0198 29.3563 18.137 28.997 17.6474C28.7068 17.3258 28.5879 16.8818 28.6787 16.456C28.8833 15.8779 29.7244 15.7854 29.7334 15.7841C29.8715 15.7698 30.0095 15.7789 30.1451 15.8128C30.448 15.8909 30.728 16.0458 30.9569 16.2646C31.357 16.624 31.5948 17.1344 31.6139 17.6773ZM29.6554 14.9781C29.6452 14.9794 29.5825 14.9885 29.502 15.0028C29.2706 14.4651 28.7861 14.0849 28.2159 13.9963C27.7506 13.9403 27.2827 14.0927 26.9349 14.4143C26.5885 14.7372 26.3955 15.1969 26.407 15.6747V23.568H26.2152C26.2037 22.3324 26.1705 18.5707 26.15 16.8767C26.0337 16.0382 25.2768 15.4509 24.4523 15.559C23.822 15.6449 23.3043 16.1085 23.1381 16.7335C23.0435 16.7217 22.9642 16.7165 22.9016 16.7152V16.7139C23.0652 16.1566 23.4705 15.7061 24.001 15.49C24.5315 15.2738 25.1286 15.3168 25.6258 15.6045C25.7345 15.6684 25.8662 15.6749 25.9812 15.6241C26.0963 15.5733 26.1807 15.4704 26.2101 15.3467C26.6307 13.46 29.0892 13.2281 29.6554 14.9781ZM7.29746 6.22676H28.5548V13.0251C28.4947 13.0121 28.4372 12.9925 28.3758 12.9834V12.9847C28.1125 12.9483 27.844 12.9561 27.5832 13.0095V7.8598C27.5832 7.63584 27.4055 7.45487 27.1856 7.45353H8.57199C8.35211 7.45483 8.17442 7.63583 8.17442 7.8598V29.5278C8.17442 29.7518 8.35212 29.9327 8.57199 29.9327H23.1854L23.3644 31.0721H7.29723L7.29746 6.22676ZM31.8468 33.7738H4.154V31.8818H31.8468V33.7738Z" fill="#818181"/>
<path d="M12.0699 11.6703C12.4905 11.2614 12.8012 10.7484 12.9699 10.1807C12.4126 10.3525 11.9089 10.6689 11.5074 11.0986C11.0843 11.5062 10.7749 12.0192 10.6074 12.5882C11.1648 12.4177 11.6685 12.1013 12.0699 11.6703Z" fill="#818181"/>
<path d="M11.7352 13.3701C9.76135 15.8532 12.4728 13.6397 13.245 12.8792H13.2463C13.9468 12.2087 14.5388 11.4313 15.0015 10.5732C13.7308 11.2607 12.6186 12.2126 11.7352 13.3701Z" fill="#818181"/>
<path d="M22.2675 19.0202C22.0846 19.1973 21.9849 19.4459 21.9926 19.7038C22.0003 19.9616 22.1166 20.2038 22.3109 20.3691C22.3288 20.1686 22.3595 19.9694 22.4042 19.7728C22.4848 19.4811 22.674 19.4056 22.8594 19.1686C23.092 18.8613 23.0933 18.4329 22.8619 18.123C22.7865 18.4902 22.573 18.8118 22.2675 19.0202Z" fill="#818181"/>
<path d="M30.0959 16.8633C29.9719 16.7161 29.8709 16.5521 29.7929 16.375C29.6089 16.7096 29.6702 17.1289 29.9425 17.3945C30.1573 17.5977 30.3491 17.6393 30.4705 17.9115C30.5421 18.0951 30.6022 18.2839 30.6508 18.4766C30.8042 18.2982 30.886 18.0664 30.877 17.8281C30.8886 17.3073 30.3836 17.1211 30.0959 16.8633Z" fill="#818181"/>
</svg>
