<svg width="32" height="39" viewBox="0 0 32 39" fill="none" xmlns="http://www.w3.org/2000/svg">
<path d="M28.2994 29.9262L27.7471 26.006C27.5233 24.4171 26.4437 23.0821 24.9278 22.5223L21.8936 21.3983C21.8936 21.3983 21.8641 21.387 21.8504 21.3837L19.5141 20.5204V18.4372C20.1596 17.7556 20.5845 16.9262 20.7504 16.0245H20.8323C21.8004 16.0245 22.5891 15.2414 22.5891 14.2799V12.8908C23.0982 12.7091 23.4675 12.2295 23.4675 11.663C23.4675 10.9408 22.8766 10.354 22.1493 10.354H22.1198C21.9914 9.14649 21.3232 5.78143 17.8231 4.89656C17.7878 4.83562 17.7503 4.77807 17.7037 4.72278C17.4537 4.41921 17.081 4.24316 16.6856 4.24316H15.3151C14.9197 4.24316 14.5469 4.41695 14.2969 4.72278C14.2503 4.77807 14.2128 4.83562 14.1776 4.89656C10.6777 5.78016 10.006 9.14641 9.88088 10.354H9.85134C9.12407 10.354 8.53317 10.9408 8.53317 11.663C8.53317 12.2317 8.90248 12.7113 9.41157 12.8908V14.2799C9.41157 15.2414 10.2002 16.0245 11.1684 16.0245H11.2502C11.4161 16.9262 11.8411 17.7545 12.4866 18.4372V20.5204L10.1502 21.3837C10.1502 21.3837 10.1207 21.3927 10.1071 21.3983L7.07287 22.5223C5.55697 23.0831 4.47741 24.417 4.25355 26.006L3.70129 29.9262C3.68425 30.0503 3.72175 30.1779 3.80584 30.2726C3.88993 30.3674 4.00925 30.4227 4.13765 30.4227H27.8639C27.9923 30.4227 28.1116 30.3674 28.1957 30.2726C28.2798 30.1779 28.3184 30.0503 28.3003 29.9262H28.2994ZM21.271 22.1037V25.189H19.5142V21.4537L21.271 22.1037ZM13.3641 25.189V22.1929C13.888 22.6297 14.7141 23.0077 15.9993 23.0077C17.2857 23.0077 18.1118 22.6263 18.6346 22.1929V25.189H13.363H13.3641ZM12.0459 12.971H19.956V15.1524C19.956 16.2131 19.5345 17.2096 18.7697 17.9577C18.0276 18.6833 17.0447 19.0817 16.0026 19.0817C14.9617 19.0817 13.9754 18.6833 13.2356 17.9577C12.4708 17.2096 12.0493 16.2131 12.0493 15.1524V12.971H12.0459ZM15.9994 19.9506C16.9505 19.9506 17.8585 19.6786 18.6346 19.1731V20.7529C18.5505 20.9899 18.0437 22.1285 15.9994 22.1285C13.954 22.1285 13.4426 20.9786 13.3642 20.7529V19.1697C14.1414 19.6752 15.0517 19.9472 15.9994 19.9472V19.9506ZM20.8311 15.1524V12.9711H21.7095V14.2801C21.7095 14.7631 21.3163 15.1524 20.8311 15.1524ZM14.0299 5.84703L14.2515 6.94729C14.2981 7.18427 14.5311 7.33775 14.7697 7.28809C15.0083 7.24182 15.1629 7.01049 15.1129 6.77352L14.8833 5.6349C14.8572 5.50738 14.8924 5.37535 14.9731 5.27379C15.0572 5.17223 15.1799 5.11467 15.314 5.11467H16.6845C16.8152 5.11467 16.9402 5.17223 17.0254 5.27379C17.1095 5.37535 17.1413 5.50738 17.1152 5.6349L16.8856 6.77352C16.839 7.0105 16.9936 7.23846 17.2288 7.28809C17.2583 7.29374 17.2868 7.29712 17.3163 7.29712C17.5231 7.29712 17.7061 7.15268 17.747 6.94731L17.9686 5.84704C20.5924 6.71709 21.1311 9.30793 21.2413 10.3543H10.7537C10.864 9.31157 11.4026 6.72064 14.0265 5.84704L14.0299 5.84703ZM9.84696 11.2241H22.1492C22.3901 11.2241 22.589 11.4205 22.589 11.6608C22.589 11.9001 22.3912 12.0975 22.1492 12.0975L9.84696 12.0964C9.60605 12.0964 9.40719 11.9001 9.40719 11.6597C9.40719 11.4205 9.60492 11.223 9.84696 11.223V11.2241ZM10.2856 14.28V12.971H11.164V15.1523C10.6776 15.1523 10.2856 14.7618 10.2856 14.28ZM12.4856 25.189H10.7288V22.1037L12.4856 21.4537V25.189ZM5.1221 26.1301C5.30278 24.8595 6.1664 23.7897 7.37664 23.3428L9.84597 22.4299V25.3154C9.30505 25.5287 8.88346 26.0004 8.76413 26.5951L8.16754 29.5562H4.6391L5.12207 26.1323L5.1221 26.1301ZM9.06741 29.5506L9.62877 26.7633C9.71059 26.3559 10.0742 26.0614 10.4901 26.0614H21.5095C21.9288 26.0614 22.289 26.3559 22.3708 26.7633L22.9322 29.5506H9.06741ZM23.831 29.5506L23.2344 26.5895C23.1151 25.997 22.6935 25.5231 22.1526 25.3098V22.4243L24.6219 23.3372C25.8322 23.7852 26.6958 24.8539 26.8765 26.1245L27.3594 29.5485H23.831L23.831 29.5506Z" fill="#818181"/>
<path d="M17.7561 8.38867H14.2425C14.0016 8.38867 13.8027 8.58503 13.8027 8.82539C13.8027 9.06462 14.0005 9.2621 14.2425 9.2621H17.7561C17.997 9.2621 18.1959 9.06574 18.1959 8.82539C18.1959 8.58615 17.9981 8.38867 17.7561 8.38867Z" fill="#818181"/>
<path d="M11.6069 26.9336C11.1205 26.9336 10.7285 27.3241 10.7285 27.8059C10.7285 28.2889 11.1217 28.6782 11.6069 28.6782C12.0933 28.6782 12.4853 28.2877 12.4853 27.8059C12.4853 27.3229 12.0921 26.9336 11.6069 26.9336Z" fill="#818181"/>
<path d="M20.394 26.9336C19.9077 26.9336 19.5156 27.3241 19.5156 27.8059C19.5156 28.2889 19.9088 28.6782 20.394 28.6782C20.8804 28.6782 21.2724 28.2877 21.2724 27.8059C21.2724 27.3229 20.8792 26.9336 20.394 26.9336Z" fill="#818181"/>
</svg>
